# This file uses centimeters as units for non-parametric coordinates.

mtllib 0.mtl
g shellDeformer1Set tweakSet1 vectorAdjust1Set
v -0.516508 0.220863 -0.023960
v -0.516508 1.179098 -0.023960
v -0.815630 1.179098 -0.023960
v -0.815630 -1.180838 -0.023960
v -0.660852 -1.180838 -0.023960
v -0.509552 -1.079971 -0.023960
v -0.509552 -0.984322 -0.023960
v -0.598245 -0.408684 -0.023960
v -0.584332 -0.398251 -0.023960
v -0.347817 -0.499117 -0.023960
v 0.153039 -0.206951 -0.023960
v 0.168691 -0.212168 -0.023960
v 0.250428 -0.435205 -0.023960
v 0.450423 -0.509552 -0.023960
v 0.815630 -0.358252 -0.023960
v 0.747806 -0.253906 -0.023960
v 0.663461 -0.308687 -0.023960
v 0.584332 -0.326948 -0.023960
v 0.459118 -0.123474 -0.023960
v 0.459118 1.180838 -0.023960
v 0.159996 1.180838 -0.023960
v 0.159996 0.097389 -0.023960
v 0.032173 -0.179125 -0.023960
v -0.220864 -0.302601 -0.023960
v -0.446945 -0.204342 -0.023960
v -0.516508 0.220863 0.023960
v -0.516508 1.179098 0.023960
v -0.815630 1.179098 0.023960
v -0.815630 -1.180838 0.023960
v -0.660852 -1.180838 0.023960
v -0.509552 -1.079971 0.023960
v -0.509552 -0.984322 0.023960
v -0.598245 -0.408684 0.023960
v -0.584332 -0.398251 0.023960
v -0.347817 -0.499117 0.023960
v 0.153039 -0.206951 0.023960
v 0.168691 -0.212168 0.023960
v 0.250428 -0.435205 0.023960
v 0.450423 -0.509552 0.023960
v 0.815630 -0.358252 0.023960
v 0.747806 -0.253906 0.023960
v 0.663461 -0.308687 0.023960
v 0.584332 -0.326948 0.023960
v 0.459118 -0.123474 0.023960
v 0.459118 1.180838 0.023960
v 0.159996 1.180838 0.023960
v 0.159996 0.097389 0.023960
v 0.032173 -0.179125 0.023960
v -0.220864 -0.302601 0.023960
v -0.446945 -0.204342 0.023960
vt 0.336798 0.823232
vt 0.315953 0.831868
vt 0.332927 0.817276
vt 0.328112 0.820403
vt 0.323596 0.821445
vt 0.299376 0.735384
vt 0.316449 0.735384
vt 0.299376 0.797225
vt 0.316449 0.809831
vt 0.292080 0.813008
vt 0.243689 0.870183
vt 0.243689 0.735483
vt 0.252523 0.870183
vt 0.261159 0.864426
vt 0.260762 0.735483
vt 0.260762 0.790177
vt 0.304537 0.827624
vt 0.299872 0.814894
vt 0.270391 0.831272
vt 0.256891 0.825515
vt 0.298979 0.814596
vt 0.261159 0.858967
vt 0.256097 0.826110
vt 0.264733 0.814447
vt 0.277637 0.820055
vt 0.026262 0.001950
vt 0.080956 0.001950
vt 0.026262 0.144645
vt 0.080956 0.144645
vt 0.105014 0.144645
vt 0.087941 0.144645
vt 0.105014 0.001950
vt 0.087941 0.001950
vt 0.246029 0.144645
vt 0.111328 0.144645
vt 0.246029 0.001950
vt 0.111328 0.001950
vt 0.253602 0.001950
vt 0.262436 0.001950
vt 0.253602 0.144645
vt 0.262436 0.144645
vt 0.269193 0.001950
vt 0.274951 0.001950
vt 0.269193 0.144645
vt 0.274951 0.144645
vt 0.280410 0.001950
vt 0.280410 0.144645
vt 0.313266 0.001950
vt 0.313266 0.144645
vt 0.313862 0.001950
vt 0.313862 0.144645
vt 0.321815 0.001950
vt 0.335315 0.001950
vt 0.321815 0.144645
vt 0.335315 0.144645
vt 0.363903 0.001950
vt 0.363903 0.144645
vt 0.364796 0.001950
vt 0.364796 0.144645
vt 0.385218 0.144645
vt 0.372488 0.144645
vt 0.385218 0.001950
vt 0.372488 0.001950
vt 0.391977 0.001950
vt 0.403393 0.001950
vt 0.391977 0.144645
vt 0.403393 0.144645
vt 0.424238 0.001950
vt 0.424238 0.144645
vt 0.444158 0.144645
vt 0.440287 0.144645
vt 0.444158 0.001950
vt 0.440287 0.001950
vt 0.435473 0.144645
vt 0.435473 0.001950
vt 0.430956 0.144645
vt 0.430956 0.001950
vt 0.450446 0.001950
vt 0.462060 0.001950
vt 0.450446 0.144645
vt 0.462060 0.144645
vt 0.536507 0.001950
vt 0.536507 0.144645
vt 0.561069 0.144645
vt 0.543996 0.144645
vt 0.561069 0.001950
vt 0.543996 0.001950
vt 0.645007 0.144645
vt 0.583166 0.144645
vt 0.645007 0.001950
vt 0.583166 0.001950
vt 0.567383 0.144645
vt 0.567383 0.001950
vt 0.678535 0.144645
vt 0.664092 0.144645
vt 0.678535 0.001950
vt 0.664092 0.001950
vt 0.651188 0.144645
vt 0.651188 0.001950
vt 0.001992 0.001950
vt 0.001992 0.144645
vt 0.237554 0.782335
vt 0.233682 0.788291
vt 0.216708 0.773699
vt 0.228868 0.785164
vt 0.224351 0.784122
vt 0.161518 0.870084
vt 0.144444 0.870084
vt 0.161518 0.815390
vt 0.144444 0.735384
vt 0.217205 0.870183
vt 0.200131 0.870183
vt 0.217205 0.795736
vt 0.200131 0.808342
vt 0.192835 0.792559
vt 0.205293 0.777943
vt 0.200627 0.790673
vt 0.161915 0.741141
vt 0.161915 0.746600
vt 0.153279 0.735384
vt 0.171146 0.774295
vt 0.199734 0.790971
vt 0.157646 0.780052
vt 0.156852 0.779457
vt 0.165488 0.791120
vt 0.178392 0.785512
vn 0.000000 0.000000 -1.000000
vn -0.000000 0.000000 -1.000000
vn 0.000000 0.000000 -1.000000
vn -0.000000 0.000000 -1.000000
vn -0.000000 0.000000 -1.000000
vn 0.000000 0.000000 -1.000000
vn -0.000000 0.000000 -1.000000
vn -0.000001 0.000000 -1.000000
vn -0.000000 0.000000 -1.000000
vn -0.000000 0.000000 -1.000000
vn 0.000000 0.000000 -1.000000
vn -0.000000 0.000000 -1.000000
vn -0.000000 0.000000 -1.000000
vn -0.000001 0.000000 -1.000000
vn 0.000000 0.000000 -1.000000
vn 0.000000 0.000000 -1.000000
vn 0.000000 0.000000 -1.000000
vn 0.000000 0.000000 -1.000000
vn 0.000000 0.000000 -1.000000
vn -0.000000 0.000000 -1.000000
vn -0.000000 0.000000 -1.000000
vn 0.000000 0.000000 -1.000000
vn 0.000004 0.000000 -1.000000
vn -0.000000 0.000000 -1.000000
vn -0.000000 0.000000 -1.000000
vn 0.998738 0.050219 0.000000
vn 1.000000 0.000000 0.000000
vn 0.998738 0.050219 0.000000
vn 1.000000 0.000000 0.000000
vn 0.000000 1.000000 0.000000
vn 0.000000 1.000000 0.000000
vn 0.000000 1.000000 0.000000
vn 0.000000 1.000000 0.000000
vn -1.000000 0.000000 0.000000
vn -1.000000 0.000000 0.000000
vn -1.000000 0.000000 0.000000
vn -1.000000 0.000000 0.000000
vn 0.000000 -1.000000 0.000000
vn 0.000000 -1.000000 0.000000
vn 0.000000 -1.000000 0.000000
vn 0.000000 -1.000000 0.000000
vn 0.554698 -0.832052 0.000000
vn 0.554698 -0.832052 0.000000
vn 0.554698 -0.832052 0.000000
vn 0.554698 -0.832052 0.000000
vn 1.000000 0.000000 0.000000
vn 0.991384 0.130986 0.000000
vn 1.000000 0.000000 0.000000
vn 0.991384 0.130986 0.000000
vn 0.988337 0.152282 0.000000
vn 0.988337 0.152282 0.000000
vn 0.599939 -0.800046 0.000000
vn 0.599939 -0.800046 0.000000
vn 0.599939 -0.800046 0.000000
vn 0.599939 -0.800046 0.000000
vn -0.392285 -0.919844 0.000000
vn -0.392285 -0.919844 0.000000
vn -0.392285 -0.919844 0.000000
vn -0.392285 -0.919844 0.000000
vn 0.503871 -0.863779 0.000000
vn 0.503871 -0.863779 0.000000
vn 0.503871 -0.863779 0.000000
vn 0.503871 -0.863779 0.000000
vn -0.316193 -0.948695 0.000000
vn -0.316193 -0.948695 0.000000
vn -0.316193 -0.948695 0.000000
vn -0.316193 -0.948695 0.000000
vn -0.938936 -0.344093 0.000000
vn -0.938935 -0.344093 0.000000
vn -0.938935 -0.344093 0.000000
vn -0.938936 -0.344093 0.000000
vn -0.348445 -0.937329 0.000000
vn -0.348445 -0.937329 0.000000
vn -0.348445 -0.937329 0.000000
vn -0.348445 -0.937329 0.000000
vn 0.382741 -0.923856 0.000000
vn 0.382741 -0.923856 0.000000
vn 0.382740 -0.923856 0.000000
vn 0.382740 -0.923856 0.000000
vn 0.838444 0.544988 0.000000
vn 0.838444 0.544988 0.000000
vn 0.838444 0.544988 0.000000
vn 0.838444 0.544988 0.000000
vn -0.544684 0.838641 0.000000
vn -0.407941 0.913008 0.000000
vn -0.544684 0.838641 0.000000
vn -0.407941 0.913008 0.000000
vn -0.224865 0.974390 0.000000
vn -0.224865 0.974390 0.000000
vn 0.851660 0.524095 0.000000
vn 0.851660 0.524095 0.000000
vn 0.851661 0.524093 0.000000
vn 0.851661 0.524093 0.000000
vn 1.000000 0.000000 0.000000
vn 1.000000 0.000000 0.000000
vn 1.000000 0.000000 0.000000
vn 1.000000 0.000000 0.000000
vn 0.000000 1.000000 0.000000
vn 0.000000 1.000000 0.000000
vn 0.000000 1.000000 0.000000
vn 0.000000 1.000000 0.000000
vn -1.000000 0.000000 0.000000
vn -0.995612 0.093577 0.000000
vn -1.000000 0.000000 0.000000
vn -0.995612 0.093577 0.000000
vn -0.907709 0.419601 0.000000
vn -0.907709 0.419601 0.000000
vn -0.438547 0.898708 0.000000
vn -0.438547 0.898708 0.000000
vn -0.438548 0.898708 0.000000
vn -0.438548 0.898708 0.000000
vn 0.398600 0.917125 0.000000
vn 0.398600 0.917125 0.000000
vn 0.398600 0.917125 0.000000
vn 0.398600 0.917125 0.000000
vn 0.986881 0.161452 0.000000
vn 0.986881 0.161452 0.000000
vn 0.000000 0.000000 1.000000
vn 0.000000 0.000000 1.000000
vn 0.000000 0.000000 1.000000
vn 0.000000 0.000000 1.000000
vn -0.000000 0.000000 1.000000
vn 0.000000 0.000000 1.000000
vn 0.000000 0.000000 1.000000
vn 0.000000 0.000000 1.000000
vn 0.000000 0.000000 1.000000
vn 0.000000 0.000000 1.000000
vn 0.000000 0.000000 1.000000
vn -0.000000 0.000000 1.000000
vn -0.000000 0.000000 1.000000
vn -0.000000 0.000000 1.000000
vn 0.000000 0.000000 1.000000
vn 0.000000 0.000000 1.000000
vn 0.000000 0.000000 1.000000
vn 0.000000 0.000000 1.000000
vn 0.000000 0.000000 1.000000
vn -0.000000 0.000000 1.000000
vn -0.000000 0.000000 1.000000
vn -0.000000 0.000000 1.000000
vn 0.000000 0.000000 1.000000
vn 0.000001 0.000000 1.000000
vn 0.000000 0.000000 1.000000
s 1
g polySurface1 typeMesh1
usemtl typeBlinnSG
f 15/1/1 14/2/2 16/3/3
f 16/3/3 14/2/2 17/4/4
f 17/4/4 14/2/2 18/5/5
f 21/6/6 20/7/7 22/8/8
f 20/7/7 19/9/9 22/8/8
f 22/8/8 19/9/9 23/10/10
f 4/11/11 3/12/12 5/13/13
f 5/13/13 3/12/12 6/14/14
f 2/15/15 1/16/16 3/12/12
f 14/2/2 13/17/17 18/5/5
f 18/5/5 13/17/17 19/9/9
f 13/17/17 12/18/18 19/9/9
f 10/19/19 9/20/20 11/21/21
f 12/18/18 11/21/21 19/9/9
f 19/9/9 11/21/21 23/10/10
f 7/22/22 6/14/14 8/23/23
f 6/14/14 3/12/12 8/23/23
f 3/12/12 1/16/16 8/23/23
f 1/16/16 25/24/24 8/23/23
f 8/23/23 25/24/24 9/20/20
f 25/24/24 24/25/25 9/20/20
f 9/20/20 24/25/25 11/21/21
f 24/25/25 23/10/10 11/21/21
s 6
f 1/26/26 2/27/27 26/28/28
f 26/28/28 2/27/27 27/29/29
s 7
f 2/30/30 3/31/31 27/32/32
f 27/32/32 3/31/31 28/33/33
s 8
f 3/34/34 4/35/35 28/36/36
f 28/36/36 4/35/35 29/37/37
s 9
f 4/38/38 5/39/39 29/40/40
f 29/40/40 5/39/39 30/41/41
s 10
f 5/42/42 6/43/43 30/44/44
f 30/44/44 6/43/43 31/45/45
s 11
f 6/43/46 7/46/47 31/45/48
f 31/45/48 7/46/47 32/47/49
f 7/46/47 8/48/50 32/47/49
f 32/47/49 8/48/50 33/49/51
s 12
f 8/48/52 9/50/53 33/49/54
f 33/49/54 9/50/53 34/51/55
s 13
f 9/52/56 10/53/57 34/54/58
f 34/54/58 10/53/57 35/55/59
s 14
f 10/53/60 11/56/61 35/55/62
f 35/55/62 11/56/61 36/57/63
s 15
f 11/56/64 12/58/65 36/57/66
f 36/57/66 12/58/65 37/59/67
s 16
f 12/60/68 13/61/69 37/62/70
f 37/62/70 13/61/69 38/63/71
s 17
f 13/64/72 14/65/73 38/66/74
f 38/66/74 14/65/73 39/67/75
s 18
f 14/65/76 15/68/77 39/67/78
f 39/67/78 15/68/77 40/69/79
s 19
f 15/70/80 16/71/81 40/72/82
f 40/72/82 16/71/81 41/73/83
s 20
f 16/71/84 17/74/85 41/73/86
f 41/73/86 17/74/85 42/75/87
f 17/74/85 18/76/88 42/75/87
f 42/75/87 18/76/88 43/77/89
s 21
f 18/78/90 19/79/91 43/80/92
f 43/80/92 19/79/91 44/81/93
s 22
f 19/79/94 20/82/95 44/81/96
f 44/81/96 20/82/95 45/83/97
s 23
f 20/84/98 21/85/99 45/86/100
f 45/86/100 21/85/99 46/87/101
s 24
f 21/88/102 22/89/103 46/90/104
f 46/90/104 22/89/103 47/91/105
f 22/89/103 23/92/106 47/91/105
f 47/91/105 23/92/106 48/93/107
s 25
f 23/94/108 24/95/109 48/96/110
f 48/96/110 24/95/109 49/97/111
s 26
f 24/95/112 25/98/113 49/97/114
f 49/97/114 25/98/113 50/99/115
s 6
f 25/100/116 1/26/26 50/101/117
f 50/101/117 1/26/26 26/28/28
s 27
f 40/102/118 41/103/119 39/104/120
f 41/103/119 42/105/121 39/104/120
f 42/105/121 43/106/122 39/104/120
f 27/107/123 28/108/124 26/109/125
f 28/108/124 29/110/126 26/109/125
f 45/111/127 46/112/128 44/113/129
f 46/112/128 47/114/130 44/113/129
f 47/114/130 48/115/131 44/113/129
f 39/104/120 43/106/122 38/116/132
f 43/106/122 44/113/129 38/116/132
f 38/116/132 44/113/129 37/117/133
f 31/118/134 32/119/135 30/120/136
f 35/121/137 36/122/138 34/123/139
f 37/117/133 44/113/129 36/122/138
f 44/113/129 48/115/131 36/122/138
f 30/120/136 32/119/135 29/110/126
f 32/119/135 33/124/140 29/110/126
f 29/110/126 33/124/140 26/109/125
f 26/109/125 33/124/140 50/125/141
f 33/124/140 34/123/139 50/125/141
f 50/125/141 34/123/139 49/126/142
f 34/123/139 36/122/138 49/126/142
f 36/122/138 48/115/131 49/126/142
