# This file uses centimeters as units for non-parametric coordinates.

mtllib 1.mtl
g shellDeformer1Set tweakSet1 vectorAdjust1Set
v 0.666069 -0.579985 -0.023960
v 0.566941 -0.454771 -0.023960
v 0.036520 -0.658243 -0.023960
v -0.246515 -0.581289 -0.023960
v -0.340861 -0.350426 -0.023960
v -0.224342 -0.111301 -0.023960
v 0.121736 -0.030434 -0.023960
v 0.278253 -0.030434 -0.023960
v 0.278253 0.157387 -0.023960
v 0.179125 0.157387 -0.023960
v -0.186082 0.227819 -0.023960
v -0.290427 0.453032 -0.023960
v -0.203473 0.653025 -0.023960
v 0.019130 0.724327 -0.023960
v 0.249993 0.660416 -0.023960
v 0.399989 0.468683 -0.023960
v 0.577376 0.468683 -0.023960
v 0.577376 0.767805 -0.023960
v 0.046955 0.863455 -0.023960
v -0.433902 0.752153 -0.023960
v -0.608680 0.465204 -0.023960
v -0.515204 0.217384 -0.023960
v -0.234776 0.068693 -0.023960
v -0.234776 0.051302 -0.023960
v -0.554768 -0.131302 -0.023960
v -0.666070 -0.411293 -0.023960
v -0.508682 -0.744329 -0.023960
v -0.066085 -0.863455 -0.023960
v 0.324774 -0.792587 -0.023960
v 0.666069 -0.579985 0.023960
v 0.566941 -0.454771 0.023960
v 0.036520 -0.658243 0.023960
v -0.246515 -0.581289 0.023960
v -0.340861 -0.350426 0.023960
v -0.224342 -0.111301 0.023960
v 0.121736 -0.030434 0.023960
v 0.278253 -0.030434 0.023960
v 0.278253 0.157387 0.023960
v 0.179125 0.157387 0.023960
v -0.186082 0.227819 0.023960
v -0.290427 0.453032 0.023960
v -0.203473 0.653025 0.023960
v 0.019130 0.724327 0.023960
v 0.249993 0.660416 0.023960
v 0.399989 0.468683 0.023960
v 0.577376 0.468683 0.023960
v 0.577376 0.767805 0.023960
v 0.046955 0.863455 0.023960
v -0.433902 0.752153 0.023960
v -0.608680 0.465204 0.023960
v -0.515204 0.217384 0.023960
v -0.234776 0.068693 0.023960
v -0.234776 0.051302 0.023960
v -0.554768 -0.131302 0.023960
v -0.666070 -0.411293 0.023960
v -0.508682 -0.744329 0.023960
v -0.066085 -0.863455 0.023960
v 0.324774 -0.792587 0.023960
vt 0.388106 0.960931
vt 0.368626 0.973066
vt 0.382448 0.953784
vt 0.352173 0.965398
vt 0.346316 0.977111
vt 0.336018 0.961006
vt 0.321054 0.970312
vt 0.312070 0.951303
vt 0.330633 0.947828
vt 0.318423 0.935321
vt 0.337283 0.934180
vt 0.336688 0.924899
vt 0.357037 0.929564
vt 0.383044 0.901075
vt 0.372919 0.901075
vt 0.383044 0.884002
vt 0.364357 0.890132
vt 0.352768 0.878543
vt 0.351180 0.886484
vt 0.325322 0.884895
vt 0.338474 0.890553
vt 0.333511 0.901969
vt 0.315346 0.901274
vt 0.320681 0.915419
vt 0.339467 0.914823
vt 0.336688 0.923906
vt 0.365970 0.918844
vt 0.365970 0.929564
vt 0.360312 0.918844
vt 0.738358 0.144645
vt 0.732700 0.144645
vt 0.738358 0.001950
vt 0.732700 0.001950
vt 0.702424 0.144645
vt 0.702424 0.001950
vt 0.686269 0.144645
vt 0.686269 0.001950
vt 0.744738 0.001950
vt 0.757915 0.001950
vt 0.744738 0.144645
vt 0.757915 0.144645
vt 0.771564 0.001950
vt 0.771564 0.144645
vt 0.777870 0.001950
vt 0.797623 0.001950
vt 0.777870 0.144645
vt 0.797623 0.144645
vt 0.806557 0.001950
vt 0.806557 0.144645
vt 0.812951 0.001950
vt 0.823671 0.001950
vt 0.812951 0.144645
vt 0.823671 0.144645
vt 0.856995 0.144645
vt 0.851337 0.144645
vt 0.856995 0.001950
vt 0.851337 0.001950
vt 0.830492 0.144645
vt 0.830492 0.001950
vt 0.863624 0.001950
vt 0.876478 0.001950
vt 0.863624 0.144645
vt 0.876478 0.144645
vt 0.887894 0.001950
vt 0.887894 0.144645
vt 0.894807 0.001950
vt 0.907513 0.001950
vt 0.894807 0.144645
vt 0.907513 0.144645
vt 0.920690 0.001950
vt 0.920690 0.144645
vt 0.929251 0.001950
vt 0.929251 0.144645
vt 0.939376 0.001950
vt 0.939376 0.144645
vt 0.947429 0.001950
vt 0.964502 0.001950
vt 0.947429 0.144645
vt 0.964502 0.144645
vt 0.998008 0.291332
vt 0.967733 0.291332
vt 0.998008 0.148637
vt 0.967733 0.148637
vt 0.940286 0.291332
vt 0.940286 0.148637
vt 0.934151 0.291332
vt 0.917772 0.291332
vt 0.934151 0.148637
vt 0.917772 0.148637
vt 0.903627 0.291332
vt 0.903627 0.148637
vt 0.881486 0.148637
vt 0.897492 0.148637
vt 0.881486 0.291332
vt 0.897492 0.291332
vt 0.875350 0.291332
vt 0.874358 0.291332
vt 0.875350 0.148637
vt 0.874358 0.148637
vt 0.868222 0.291332
vt 0.849958 0.291332
vt 0.868222 0.148637
vt 0.849958 0.148637
vt 0.843823 0.291332
vt 0.827841 0.291332
vt 0.843823 0.148637
vt 0.827841 0.148637
vt 0.808832 0.291332
vt 0.808832 0.148637
vt 0.735644 0.148637
vt 0.760907 0.148637
vt 0.735644 0.291332
vt 0.760907 0.291332
vt 0.783216 0.148637
vt 0.783216 0.291332
vt 0.802697 0.148637
vt 0.802697 0.291332
vt 0.471911 0.894722
vt 0.466253 0.901869
vt 0.452431 0.882587
vt 0.435978 0.890256
vt 0.430121 0.878542
vt 0.419823 0.894648
vt 0.404859 0.885342
vt 0.395875 0.904351
vt 0.414438 0.907825
vt 0.402228 0.920332
vt 0.421088 0.921474
vt 0.420493 0.930755
vt 0.440842 0.926090
vt 0.449775 0.926090
vt 0.449775 0.936810
vt 0.444117 0.936810
vt 0.423272 0.940830
vt 0.420493 0.931748
vt 0.404486 0.940235
vt 0.417316 0.953685
vt 0.399151 0.954380
vt 0.409127 0.970758
vt 0.422279 0.965100
vt 0.436573 0.977111
vt 0.434985 0.969170
vt 0.466849 0.954578
vt 0.466849 0.971652
vt 0.456724 0.954578
vt 0.448162 0.965522
vn 0.000000 0.000000 -1.000000
vn 0.000000 0.000000 -1.000000
vn 0.000000 0.000000 -1.000000
vn -0.000000 0.000000 -1.000000
vn -0.000000 0.000000 -1.000000
vn -0.000000 0.000000 -1.000000
vn -0.000000 0.000000 -1.000000
vn -0.000000 0.000000 -1.000000
vn 0.000000 0.000000 -1.000000
vn 0.000000 0.000000 -1.000000
vn 0.000000 0.000000 -1.000000
vn 0.000000 0.000000 -1.000000
vn -0.000000 0.000000 -1.000000
vn 0.000000 0.000000 -1.000000
vn 0.000000 0.000000 -1.000000
vn 0.000000 0.000000 -1.000000
vn 0.000000 0.000000 -1.000000
vn 0.000000 0.000000 -1.000000
vn 0.000000 0.000000 -1.000000
vn 0.000000 0.000000 -1.000000
vn 0.000000 0.000000 -1.000000
vn 0.000000 0.000000 -1.000000
vn 0.000000 0.000000 -1.000000
vn 0.000000 0.000000 -1.000000
vn 0.000000 0.000000 -1.000000
vn 0.000000 0.000000 -1.000000
vn 0.000000 0.000000 -1.000000
vn 0.000000 0.000000 -1.000000
vn -0.000000 0.000000 -1.000000
vn 0.784045 0.620704 0.000000
vn 0.784045 0.620704 0.000000
vn 0.784045 0.620704 0.000000
vn 0.784045 0.620704 0.000000
vn -0.358157 0.933661 0.000000
vn -0.358157 0.933661 0.000000
vn -0.358157 0.933661 0.000000
vn -0.358157 0.933661 0.000000
vn 0.262363 0.964969 0.000000
vn 0.262363 0.964969 0.000000
vn 0.262363 0.964969 0.000000
vn 0.262363 0.964969 0.000000
vn 0.925685 0.378295 0.000000
vn 0.925685 0.378295 0.000000
vn 0.925686 0.378294 0.000000
vn 0.925686 0.378294 0.000000
vn 0.898957 -0.438038 0.000000
vn 0.898957 -0.438038 0.000000
vn 0.898957 -0.438038 0.000000
vn 0.898957 -0.438038 0.000000
vn 0.227540 -0.973769 0.000000
vn 0.158857 -0.987302 0.000000
vn 0.227540 -0.973769 0.000000
vn 0.158857 -0.987302 0.000000
vn 0.000000 -1.000000 0.000000
vn 0.000000 -1.000000 0.000000
vn 1.000000 0.000000 0.000000
vn 1.000000 0.000000 0.000000
vn 1.000000 0.000000 0.000000
vn 1.000000 0.000000 0.000000
vn 0.000000 1.000000 0.000000
vn 0.149969 0.988691 0.000000
vn 0.000000 1.000000 0.000000
vn 0.149969 0.988691 0.000000
vn 0.189367 0.981906 0.000000
vn 0.189367 0.981906 0.000000
vn 0.907344 0.420389 0.000000
vn 0.907344 0.420389 0.000000
vn 0.907344 0.420389 0.000000
vn 0.907344 0.420389 0.000000
vn 0.917069 -0.398728 0.000000
vn 0.917069 -0.398728 0.000000
vn 0.917069 -0.398728 0.000000
vn 0.917069 -0.398728 0.000000
vn 0.305045 -0.952338 0.000000
vn 0.305045 -0.952338 0.000000
vn 0.305045 -0.952338 0.000000
vn 0.305045 -0.952338 0.000000
vn -0.266802 -0.963752 0.000000
vn -0.266802 -0.963752 0.000000
vn -0.266802 -0.963752 0.000000
vn -0.266802 -0.963752 0.000000
vn -0.787617 -0.616166 0.000000
vn -0.787616 -0.616166 0.000000
vn -0.787615 -0.616167 0.000000
vn -0.787615 -0.616167 0.000000
vn 0.000000 -1.000000 0.000000
vn 0.000000 -1.000000 0.000000
vn 0.000000 -1.000000 0.000000
vn 0.000000 -1.000000 0.000000
vn 1.000000 0.000000 0.000000
vn 1.000000 0.000000 0.000000
vn 1.000000 0.000000 0.000000
vn 1.000000 0.000000 0.000000
vn 0.177466 0.984127 0.000000
vn -0.015475 0.999880 0.000000
vn 0.177466 0.984127 0.000000
vn -0.015475 0.999880 0.000000
vn -0.225503 0.974243 0.000000
vn -0.225503 0.974243 0.000000
vn -0.854049 0.520193 0.000000
vn -0.854049 0.520193 0.000000
vn -0.854049 0.520193 0.000000
vn -0.854049 0.520193 0.000000
vn -0.935653 -0.352922 0.000000
vn -0.935653 -0.352922 0.000000
vn -0.935653 -0.352922 0.000000
vn -0.935653 -0.352922 0.000000
vn -0.468454 -0.883488 0.000000
vn -0.468453 -0.883488 0.000000
vn -0.468452 -0.883489 0.000000
vn -0.468452 -0.883489 0.000000
vn -1.000000 0.000000 0.000000
vn -1.000000 0.000000 0.000000
vn -1.000000 0.000000 0.000000
vn -1.000000 0.000000 0.000000
vn -0.495630 0.868534 0.000000
vn -0.495630 0.868534 0.000000
vn -0.495631 0.868533 0.000000
vn -0.495631 0.868533 0.000000
vn -0.929270 0.369401 0.000000
vn -0.929270 0.369401 0.000000
vn -0.929270 0.369401 0.000000
vn -0.929270 0.369401 0.000000
vn -0.904122 -0.427274 0.000000
vn -0.904122 -0.427274 0.000000
vn -0.904123 -0.427273 0.000000
vn -0.904123 -0.427272 0.000000
vn -0.259902 -0.965635 0.000000
vn -0.057804 -0.998328 0.000000
vn -0.259902 -0.965635 0.000000
vn -0.057804 -0.998328 0.000000
vn 0.361056 -0.932544 0.000000
vn 0.361055 -0.932544 0.000000
vn 0.528735 -0.848787 0.000000
vn 0.528733 -0.848788 0.000000
vn 0.000001 0.000000 1.000000
vn 0.000000 0.000000 1.000000
vn 0.000000 0.000000 1.000000
vn 0.000000 0.000000 1.000000
vn 0.000000 0.000000 1.000000
vn 0.000000 0.000000 1.000000
vn 0.000000 0.000000 1.000000
vn 0.000000 0.000000 1.000000
vn 0.000000 0.000000 1.000000
vn 0.000000 0.000000 1.000000
vn 0.000000 0.000000 1.000000
vn 0.000000 0.000000 1.000000
vn -0.000000 0.000000 1.000000
vn 0.000000 0.000000 1.000000
vn 0.000000 0.000000 1.000000
vn -0.000000 0.000000 1.000000
vn -0.000000 0.000000 1.000000
vn 0.000000 0.000000 1.000000
vn -0.000000 0.000000 1.000000
vn -0.000000 0.000000 1.000000
vn 0.000000 0.000000 1.000000
vn 0.000000 0.000000 1.000000
vn 0.000000 0.000000 1.000000
vn 0.000000 0.000000 1.000000
vn 0.000000 0.000000 1.000000
vn 0.000000 0.000000 1.000000
vn -0.000000 0.000000 1.000000
vn -0.000000 0.000000 1.000000
vn -0.000000 0.000000 1.000000
s 1
g polySurface2 typeMesh1
usemtl typeBlinnSG
f 1/1/1 29/2/2 2/3/3
f 2/3/3 29/2/2 3/4/4
f 29/2/2 28/5/5 3/4/4
f 3/4/4 28/5/5 4/6/6
f 28/5/5 27/7/7 4/6/6
f 27/7/7 26/8/8 4/6/6
f 4/6/6 26/8/8 5/9/9
f 26/8/8 25/10/10 5/9/9
f 5/9/9 25/10/10 6/11/11
f 25/10/10 24/12/12 6/11/11
f 6/11/11 24/12/12 7/13/13
f 17/14/14 16/15/15 18/16/16
f 16/15/15 15/17/17 18/16/16
f 18/16/16 15/17/17 19/18/18
f 15/17/17 14/19/19 19/18/18
f 19/18/18 14/19/19 20/20/20
f 14/19/19 13/21/21 20/20/20
f 13/21/21 12/22/22 20/20/20
f 20/20/20 12/22/22 21/23/23
f 21/23/23 12/22/22 22/24/24
f 12/22/22 11/25/25 22/24/24
f 22/24/24 11/25/25 23/26/26
f 9/27/27 8/28/28 10/29/29
f 8/28/28 7/13/13 10/29/29
f 10/29/29 7/13/13 11/25/25
f 24/12/12 23/26/26 7/13/13
f 23/26/26 11/25/25 7/13/13
s 4
f 1/30/30 2/31/31 30/32/32
f 30/32/32 2/31/31 31/33/33
s 5
f 2/31/34 3/34/35 31/33/36
f 31/33/36 3/34/35 32/35/37
s 6
f 3/34/38 4/36/39 32/35/40
f 32/35/40 4/36/39 33/37/41
s 7
f 4/38/42 5/39/43 33/40/44
f 33/40/44 5/39/43 34/41/45
s 8
f 5/39/46 6/42/47 34/41/48
f 34/41/48 6/42/47 35/43/49
s 9
f 6/44/50 7/45/51 35/46/52
f 35/46/52 7/45/51 36/47/53
f 7/45/51 8/48/54 36/47/53
f 36/47/53 8/48/54 37/49/55
s 10
f 8/50/56 9/51/57 37/52/58
f 37/52/58 9/51/57 38/53/59
s 11
f 9/54/60 10/55/61 38/56/62
f 38/56/62 10/55/61 39/57/63
f 10/55/61 11/58/64 39/57/63
f 39/57/63 11/58/64 40/59/65
s 12
f 11/60/66 12/61/67 40/62/68
f 40/62/68 12/61/67 41/63/69
s 13
f 12/61/70 13/64/71 41/63/72
f 41/63/72 13/64/71 42/65/73
s 14
f 13/66/74 14/67/75 42/68/76
f 42/68/76 14/67/75 43/69/77
s 15
f 14/67/78 15/70/79 43/69/80
f 43/69/80 15/70/79 44/71/81
s 16
f 15/70/82 16/72/83 44/71/84
f 44/71/84 16/72/83 45/73/85
s 17
f 16/72/86 17/74/87 45/73/88
f 45/73/88 17/74/87 46/75/89
s 18
f 17/76/90 18/77/91 46/78/92
f 46/78/92 18/77/91 47/79/93
s 19
f 18/80/94 19/81/95 47/82/96
f 47/82/96 19/81/95 48/83/97
f 19/81/95 20/84/98 48/83/97
f 48/83/97 20/84/98 49/85/99
s 20
f 20/86/100 21/87/101 49/88/102
f 49/88/102 21/87/101 50/89/103
s 21
f 21/87/104 22/90/105 50/89/106
f 50/89/106 22/90/105 51/91/107
s 22
f 22/92/108 23/93/109 51/94/110
f 51/94/110 23/93/109 52/95/111
s 23
f 23/96/112 24/97/113 52/98/114
f 52/98/114 24/97/113 53/99/115
s 24
f 24/100/116 25/101/117 53/102/118
f 53/102/118 25/101/117 54/103/119
s 25
f 25/104/120 26/105/121 54/106/122
f 54/106/122 26/105/121 55/107/123
s 26
f 26/105/124 27/108/125 55/107/126
f 55/107/126 27/108/125 56/109/127
s 27
f 27/110/128 28/111/129 56/112/130
f 56/112/130 28/111/129 57/113/131
f 28/111/129 29/114/132 57/113/131
f 57/113/131 29/114/132 58/115/133
f 29/114/132 1/116/134 58/115/133
f 58/115/133 1/116/134 30/117/135
s 28
f 30/118/136 31/119/137 58/120/138
f 31/119/137 32/121/139 58/120/138
f 58/120/138 32/121/139 57/122/140
f 32/121/139 33/123/141 57/122/140
f 57/122/140 33/123/141 56/124/142
f 56/124/142 33/123/141 55/125/143
f 33/123/141 34/126/144 55/125/143
f 55/125/143 34/126/144 54/127/145
f 34/126/144 35/128/146 54/127/145
f 54/127/145 35/128/146 53/129/147
f 35/128/146 36/130/148 53/129/147
f 37/131/149 38/132/150 36/130/148
f 38/132/150 39/133/151 36/130/148
f 39/133/151 40/134/152 36/130/148
f 36/130/148 40/134/152 53/129/147
f 53/129/147 40/134/152 52/135/153
f 52/135/153 40/134/152 51/136/154
f 40/134/152 41/137/155 51/136/154
f 51/136/154 41/137/155 50/138/156
f 50/138/156 41/137/155 49/139/157
f 41/137/155 42/140/158 49/139/157
f 49/139/157 42/140/158 48/141/159
f 42/140/158 43/142/160 48/141/159
f 46/143/161 47/144/162 45/145/163
f 45/145/163 47/144/162 44/146/164
f 47/144/162 48/141/159 44/146/164
f 43/142/160 44/146/164 48/141/159
