# This file uses centimeters as units for non-parametric coordinates.

mtllib 2.mtl
g shellDeformer1Set tweakSet1 vectorAdjust1Set
v 0.133909 0.612158 -0.023960
v 0.799979 0.612158 -0.023960
v 0.799979 0.846933 -0.023960
v -0.226081 0.846933 -0.023960
v -0.526942 0.785196 -0.023960
v -0.799979 0.506073 -0.023960
v -0.688677 0.413902 -0.023960
v -0.530421 0.567810 -0.023960
v -0.439988 0.601070 -0.023960
v -0.318253 0.612158 -0.023960
v -0.165213 0.612158 -0.023960
v -0.165213 -0.405207 -0.023960
v -0.068694 -0.742590 -0.023960
v 0.229559 -0.846933 -0.023960
v 0.633027 -0.673025 -0.023960
v 0.561724 -0.570419 -0.023960
v 0.347817 -0.662592 -0.023960
v 0.254232 -0.645201 -0.023960
v 0.187386 -0.593027 -0.023960
v 0.147279 -0.506073 -0.023960
v 0.137252 -0.449554 -0.023960
v 0.133909 -0.384338 -0.023960
v 0.133909 0.612158 0.023960
v 0.799979 0.612158 0.023960
v 0.799979 0.846933 0.023960
v -0.226081 0.846933 0.023960
v -0.526942 0.785196 0.023960
v -0.799979 0.506073 0.023960
v -0.688677 0.413902 0.023960
v -0.530421 0.567810 0.023960
v -0.439988 0.601070 0.023960
v -0.318253 0.612158 0.023960
v -0.165213 0.612158 0.023960
v -0.165213 -0.405207 0.023960
v -0.068694 -0.742590 0.023960
v 0.229559 -0.846933 0.023960
v 0.633027 -0.673025 0.023960
v 0.561724 -0.570419 0.023960
v 0.347817 -0.662592 0.023960
v 0.254232 -0.645201 0.023960
v 0.187386 -0.593027 0.023960
v 0.147279 -0.506073 0.023960
v 0.137252 -0.449554 0.023960
v 0.133909 -0.384338 0.023960
vt 0.561473 0.965398
vt 0.538444 0.975324
vt 0.557404 0.959542
vt 0.545194 0.964803
vt 0.539853 0.963810
vt 0.521421 0.969369
vt 0.536037 0.960832
vt 0.515911 0.950112
vt 0.533748 0.955869
vt 0.533176 0.952643
vt 0.532985 0.948920
vt 0.515911 0.892042
vt 0.532985 0.892042
vt 0.479680 0.898098
vt 0.495265 0.882166
vt 0.486033 0.903358
vt 0.495066 0.894574
vt 0.500228 0.892675
vt 0.512437 0.878642
vt 0.507176 0.892042
vt 0.571003 0.878642
vt 0.571003 0.892042
vt 0.691491 0.148637
vt 0.729509 0.148637
vt 0.691491 0.291332
vt 0.729509 0.291332
vt 0.671955 0.148637
vt 0.685356 0.148637
vt 0.671955 0.291332
vt 0.685356 0.291332
vt 0.665820 0.291332
vt 0.607255 0.291332
vt 0.665820 0.148637
vt 0.607255 0.148637
vt 0.590082 0.291332
vt 0.590082 0.148637
vt 0.574498 0.291332
vt 0.574498 0.148637
vt 0.532131 0.148637
vt 0.538484 0.148637
vt 0.532131 0.291332
vt 0.538484 0.291332
vt 0.547517 0.148637
vt 0.547517 0.291332
vt 0.552679 0.148637
vt 0.552679 0.291332
vt 0.559627 0.148637
vt 0.559627 0.291332
vt 0.568362 0.148637
vt 0.568362 0.291332
vt 0.525996 0.291332
vt 0.467927 0.291332
vt 0.525996 0.148637
vt 0.467927 0.148637
vt 0.448670 0.291332
vt 0.448670 0.148637
vt 0.402481 0.148637
vt 0.419505 0.148637
vt 0.402481 0.291332
vt 0.419505 0.291332
vt 0.442534 0.148637
vt 0.442534 0.291332
vt 0.396346 0.291332
vt 0.392276 0.291332
vt 0.396346 0.148637
vt 0.392276 0.148637
vt 0.380067 0.291332
vt 0.380067 0.148637
vt 0.374725 0.291332
vt 0.374725 0.148637
vt 0.296822 0.148637
vt 0.299800 0.148637
vt 0.296822 0.291332
vt 0.299800 0.291332
vt 0.304764 0.148637
vt 0.304764 0.291332
vt 0.307990 0.148637
vt 0.307990 0.291332
vt 0.311712 0.148637
vt 0.311712 0.291332
vt 0.368590 0.148637
vt 0.368590 0.291332
vt 0.660870 0.888568
vt 0.656800 0.894425
vt 0.637841 0.878642
vt 0.644591 0.889164
vt 0.639249 0.890156
vt 0.620817 0.884597
vt 0.635434 0.893134
vt 0.615308 0.903855
vt 0.633144 0.898097
vt 0.632572 0.901323
vt 0.632381 0.905046
vt 0.579077 0.955869
vt 0.585430 0.950608
vt 0.594661 0.971801
vt 0.594463 0.959393
vt 0.599624 0.961291
vt 0.611834 0.975324
vt 0.606573 0.961924
vt 0.615308 0.961924
vt 0.670399 0.975324
vt 0.632381 0.961924
vt 0.670399 0.961924
vn -0.000000 0.000000 -1.000000
vn -0.000000 0.000000 -1.000000
vn -0.000000 0.000000 -1.000000
vn 0.000000 0.000000 -1.000000
vn -0.000000 0.000000 -1.000000
vn -0.000000 0.000000 -1.000000
vn -0.000000 0.000000 -1.000000
vn -0.000000 0.000000 -1.000000
vn 0.000000 0.000000 -1.000000
vn 0.000000 0.000000 -1.000000
vn -0.000000 0.000000 -1.000000
vn -0.000000 0.000000 -1.000000
vn 0.000000 0.000000 -1.000000
vn 0.000000 0.000000 -1.000000
vn -0.000000 0.000000 -1.000000
vn 0.000000 0.000000 -1.000000
vn -0.000001 0.000000 -1.000000
vn 0.000000 0.000000 -1.000000
vn -0.000000 0.000000 -1.000000
vn 0.000000 0.000000 -1.000000
vn 0.000000 0.000000 -1.000000
vn 0.000000 0.000000 -1.000000
vn 0.000000 -1.000000 0.000000
vn 0.000000 -1.000000 0.000000
vn 0.000000 -1.000000 0.000000
vn 0.000000 -1.000000 0.000000
vn 1.000000 0.000000 0.000000
vn 1.000000 0.000000 0.000000
vn 1.000000 0.000000 0.000000
vn 1.000000 0.000000 0.000000
vn 0.000000 1.000000 0.000000
vn -0.046476 0.998919 0.000000
vn 0.000000 1.000000 0.000000
vn -0.046476 0.998919 0.000000
vn -0.201013 0.979589 0.000000
vn -0.201013 0.979589 0.000000
vn -0.714858 0.699270 0.000000
vn -0.714858 0.699270 0.000000
vn -0.714859 0.699268 0.000000
vn -0.714860 0.699268 0.000000
vn -0.637811 -0.770193 0.000000
vn -0.637811 -0.770193 0.000000
vn -0.637811 -0.770193 0.000000
vn -0.637811 -0.770193 0.000000
vn 0.697188 -0.716888 0.000000
vn 0.601338 -0.798995 0.000000
vn 0.697188 -0.716888 0.000000
vn 0.601338 -0.798995 0.000000
vn 0.204600 -0.978846 0.000000
vn 0.204600 -0.978846 0.000000
vn 0.040318 -0.999187 0.000000
vn 0.040318 -0.999187 0.000000
vn 0.000000 -1.000000 0.000000
vn 0.000000 -1.000000 0.000000
vn -1.000000 0.000000 0.000000
vn -0.997472 -0.071065 0.000000
vn -1.000000 0.000000 0.000000
vn -0.997472 -0.071065 0.000000
vn -0.961430 -0.275049 0.000000
vn -0.961431 -0.275048 0.000000
vn -0.330224 -0.943903 0.000000
vn -0.330224 -0.943903 0.000000
vn -0.330224 -0.943903 0.000000
vn -0.330224 -0.943903 0.000000
vn 0.395829 -0.918324 0.000000
vn 0.395829 -0.918324 0.000000
vn 0.395829 -0.918324 0.000000
vn 0.395829 -0.918324 0.000000
vn 0.821189 0.570657 0.000000
vn 0.821189 0.570657 0.000000
vn 0.821189 0.570657 0.000000
vn 0.821189 0.570657 0.000000
vn -0.395725 0.918369 0.000000
vn -0.395725 0.918369 0.000000
vn -0.395725 0.918369 0.000000
vn -0.395725 0.918369 0.000000
vn 0.182706 0.983168 0.000000
vn 0.397823 0.917462 0.000000
vn 0.182706 0.983168 0.000000
vn 0.397823 0.917462 0.000000
vn 0.792810 0.609468 0.000000
vn 0.792810 0.609468 0.000000
vn 0.944025 0.329874 0.000000
vn 0.944025 0.329874 0.000000
vn 0.994023 0.109169 0.000000
vn 0.994023 0.109169 0.000000
vn 0.999995 0.003148 0.000000
vn 0.999995 0.003148 0.000000
vn 1.000000 0.000000 0.000000
vn 1.000000 0.000000 0.000000
vn -0.000001 0.000000 1.000000
vn -0.000000 0.000000 1.000000
vn 0.000000 0.000000 1.000000
vn 0.000001 0.000000 1.000000
vn -0.000000 0.000000 1.000000
vn 0.000000 0.000000 1.000000
vn 0.000000 0.000000 1.000000
vn 0.000000 0.000000 1.000000
vn 0.000000 0.000000 1.000000
vn 0.000000 0.000000 1.000000
vn 0.000000 0.000000 1.000000
vn 0.000001 0.000000 1.000000
vn 0.000001 0.000000 1.000000
vn 0.000000 0.000000 1.000000
vn -0.000000 0.000000 1.000000
vn -0.000000 0.000000 1.000000
vn 0.000000 0.000000 1.000000
vn 0.000000 0.000000 1.000000
vn 0.000000 0.000000 1.000000
vn 0.000000 0.000000 1.000000
vn 0.000000 0.000000 1.000000
vn 0.000000 0.000000 1.000000
s 1
g polySurface3 typeMesh1
usemtl typeBlinnSG
f 15/1/1 14/2/2 16/3/3
f 16/3/3 14/2/2 17/4/4
f 17/4/4 14/2/2 18/5/5
f 14/2/2 13/6/6 18/5/5
f 18/5/5 13/6/6 19/7/7
f 13/6/6 12/8/8 19/7/7
f 19/7/7 12/8/8 20/9/9
f 20/9/9 12/8/8 21/10/10
f 21/10/10 12/8/8 22/11/11
f 12/8/8 11/12/12 22/11/11
f 22/11/11 11/12/12 1/13/13
f 6/14/14 5/15/15 7/16/16
f 7/16/16 5/15/15 8/17/17
f 8/17/17 5/15/15 9/18/18
f 5/15/15 4/19/19 9/18/18
f 9/18/18 4/19/19 10/20/20
f 10/20/20 4/19/19 11/12/12
f 4/19/19 3/21/21 11/12/12
f 11/12/12 3/21/21 1/13/13
f 3/21/21 2/22/22 1/13/13
s 3
f 1/23/23 2/24/24 23/25/25
f 23/25/25 2/24/24 24/26/26
s 4
f 2/27/27 3/28/28 24/29/29
f 24/29/29 3/28/28 25/30/30
s 5
f 3/31/31 4/32/32 25/33/33
f 25/33/33 4/32/32 26/34/34
f 4/32/32 5/35/35 26/34/34
f 26/34/34 5/35/35 27/36/36
s 6
f 5/35/37 6/37/38 27/36/39
f 27/36/39 6/37/38 28/38/40
s 7
f 6/39/41 7/40/42 28/41/43
f 28/41/43 7/40/42 29/42/44
s 8
f 7/40/45 8/43/46 29/42/47
f 29/42/47 8/43/46 30/44/48
f 8/43/46 9/45/49 30/44/48
f 30/44/48 9/45/49 31/46/50
f 9/45/49 10/47/51 31/46/50
f 31/46/50 10/47/51 32/48/52
f 10/47/51 11/49/53 32/48/52
f 32/48/52 11/49/53 33/50/54
s 9
f 11/51/55 12/52/56 33/53/57
f 33/53/57 12/52/56 34/54/58
f 12/52/56 13/55/59 34/54/58
f 34/54/58 13/55/59 35/56/60
s 10
f 13/57/61 14/58/62 35/59/63
f 35/59/63 14/58/62 36/60/64
s 11
f 14/58/65 15/61/66 36/60/67
f 36/60/67 15/61/66 37/62/68
s 12
f 15/63/69 16/64/70 37/65/71
f 37/65/71 16/64/70 38/66/72
s 13
f 16/64/73 17/67/74 38/66/75
f 38/66/75 17/67/74 39/68/76
s 14
f 17/67/77 18/69/78 39/68/79
f 39/68/79 18/69/78 40/70/80
f 18/71/78 19/72/81 40/73/80
f 40/73/80 19/72/81 41/74/82
f 19/72/81 20/75/83 41/74/82
f 41/74/82 20/75/83 42/76/84
f 20/75/83 21/77/85 42/76/84
f 42/76/84 21/77/85 43/78/86
f 21/77/85 22/79/87 43/78/86
f 43/78/86 22/79/87 44/80/88
f 22/79/87 1/81/89 44/80/88
f 44/80/88 1/81/89 23/82/90
s 15
f 37/83/91 38/84/92 36/85/93
f 38/84/92 39/86/94 36/85/93
f 39/86/94 40/87/95 36/85/93
f 36/85/93 40/87/95 35/88/96
f 40/87/95 41/89/97 35/88/96
f 35/88/96 41/89/97 34/90/98
f 41/89/97 42/91/99 34/90/98
f 42/91/99 43/92/100 34/90/98
f 43/92/100 44/93/101 34/90/98
f 28/94/102 29/95/103 27/96/104
f 29/95/103 30/97/105 27/96/104
f 30/97/105 31/98/106 27/96/104
f 27/96/104 31/98/106 26/99/107
f 31/98/106 32/100/108 26/99/107
f 32/100/108 33/101/109 26/99/107
f 26/99/107 33/101/109 25/102/110
f 34/90/98 44/93/101 33/101/109
f 44/93/101 23/103/111 33/101/109
f 33/101/109 23/103/111 25/102/110
f 23/103/111 24/104/112 25/102/110
