# This file uses centimeters as units for non-parametric coordinates.

mtllib 6.mtl
g shellDeformer1Set tweakSet1 vectorAdjust1Set
v 0.266079 0.612158 -0.023960
v 0.892150 0.612158 -0.023960
v 0.892150 0.846933 -0.023960
v 0.191299 0.846933 -0.023960
v -0.368686 0.773891 -0.023960
v -0.743458 0.491291 -0.023960
v -0.892150 -0.067825 -0.023960
v -0.688677 -0.631289 -0.023960
v -0.144344 -0.846933 -0.023960
v 0.422597 -0.638245 -0.023960
v 0.636505 -0.074781 -0.023960
v 0.543898 0.320425 -0.023960
v 0.266079 0.598244 -0.023960
v 0.041738 0.605200 -0.023960
v 0.245211 0.301296 -0.023960
v 0.313035 -0.085215 -0.023960
v 0.199560 -0.553463 -0.023960
v -0.140866 -0.709547 -0.023960
v -0.453901 -0.542595 -0.023960
v -0.566942 -0.071302 -0.023960
v -0.414772 0.436075 -0.023960
v 0.266079 0.612158 0.023960
v 0.892150 0.612158 0.023960
v 0.892150 0.846933 0.023960
v 0.191299 0.846933 0.023960
v -0.368686 0.773891 0.023960
v -0.743458 0.491291 0.023960
v -0.892150 -0.067825 0.023960
v -0.688677 -0.631289 0.023960
v -0.144344 -0.846933 0.023960
v 0.422597 -0.638245 0.023960
v 0.636505 -0.074781 0.023960
v 0.543898 0.320425 0.023960
v 0.266079 0.598244 0.023960
v 0.041738 0.605200 0.023960
v 0.245211 0.301296 0.023960
v 0.313035 -0.085215 0.023960
v 0.199560 -0.553463 0.023960
v -0.140866 -0.709547 0.023960
v -0.453901 -0.542595 0.023960
v -0.566942 -0.071302 0.023960
v -0.414772 0.436075 0.023960
vt 0.208776 0.874175
vt 0.222176 0.874175
vt 0.208776 0.914178
vt 0.222176 0.909910
vt 0.212945 0.946141
vt 0.222971 0.909910
vt 0.222574 0.922715
vt 0.232227 0.948771
vt 0.229075 0.967532
vt 0.239920 0.911101
vt 0.238828 0.894052
vt 0.261187 0.957457
vt 0.260989 0.976019
vt 0.293150 0.964405
vt 0.288087 0.951005
vt 0.305458 0.933336
vt 0.297617 0.933137
vt 0.293547 0.900976
vt 0.288708 0.913707
vt 0.261981 0.907230
vt 0.261386 0.888767
vt 0.847867 0.442010
vt 0.883601 0.442010
vt 0.847867 0.584705
vt 0.883601 0.584705
vt 0.828331 0.442010
vt 0.841731 0.442010
vt 0.828331 0.584705
vt 0.841731 0.584705
vt 0.822195 0.584705
vt 0.782192 0.584705
vt 0.822195 0.442010
vt 0.782192 0.442010
vt 0.750229 0.584705
vt 0.750229 0.442010
vt 0.744094 0.584705
vt 0.727964 0.584705
vt 0.744094 0.442010
vt 0.727964 0.442010
vt 0.696050 0.584705
vt 0.696050 0.442010
vt 0.663889 0.584705
vt 0.663889 0.442010
vt 0.594324 0.442010
vt 0.625394 0.442010
vt 0.594324 0.584705
vt 0.625394 0.584705
vt 0.657754 0.442010
vt 0.657754 0.584705
vt 0.516819 0.442010
vt 0.548980 0.442010
vt 0.516819 0.584705
vt 0.548980 0.584705
vt 0.571537 0.442010
vt 0.571537 0.584705
vt 0.587395 0.442010
vt 0.587395 0.584705
vt 0.588189 0.442010
vt 0.588189 0.584705
vt 0.510683 0.584705
vt 0.493337 0.584705
vt 0.510683 0.442010
vt 0.493337 0.442010
vt 0.471276 0.584705
vt 0.471276 0.442010
vt 0.444549 0.584705
vt 0.444549 0.442010
vt 0.438414 0.584705
vt 0.418983 0.584705
vt 0.438414 0.442010
vt 0.418983 0.442010
vt 0.401115 0.584705
vt 0.401115 0.442010
vt 0.339120 0.442010
vt 0.366020 0.442010
vt 0.339120 0.584705
vt 0.366020 0.584705
vt 0.394980 0.442010
vt 0.394980 0.584705
vt 0.306928 0.442010
vt 0.332984 0.442010
vt 0.306928 0.584705
vt 0.332984 0.584705
vt 0.188763 0.874175
vt 0.202164 0.874175
vt 0.188763 0.909910
vt 0.202164 0.914178
vt 0.197995 0.946141
vt 0.187969 0.909910
vt 0.188366 0.922715
vt 0.178713 0.948771
vt 0.181865 0.967532
vt 0.171020 0.911101
vt 0.172112 0.894052
vt 0.148959 0.907230
vt 0.149554 0.888767
vt 0.117393 0.900976
vt 0.122232 0.913706
vt 0.105481 0.933336
vt 0.113323 0.933137
vt 0.117790 0.964405
vt 0.122852 0.951005
vt 0.149753 0.957457
vt 0.149951 0.976019
vn 0.000000 0.000000 -1.000000
vn 0.000000 0.000000 -1.000000
vn 0.000000 0.000000 -1.000000
vn 0.000000 0.000000 -1.000000
vn 0.000000 0.000000 -1.000000
vn 0.000000 0.000000 -1.000000
vn 0.000000 0.000000 -1.000000
vn 0.000000 0.000000 -1.000000
vn 0.000000 0.000000 -1.000000
vn 0.000000 0.000000 -1.000000
vn 0.000000 0.000000 -1.000000
vn 0.000000 0.000000 -1.000000
vn 0.000000 0.000000 -1.000000
vn 0.000000 0.000000 -1.000000
vn 0.000000 0.000000 -1.000000
vn 0.000000 0.000000 -1.000000
vn 0.000000 0.000000 -1.000000
vn 0.000000 0.000000 -1.000000
vn 0.000000 0.000000 -1.000000
vn 0.000000 0.000000 -1.000000
vn 0.000000 0.000000 -1.000000
vn 0.000000 -1.000000 0.000000
vn 0.000000 -1.000000 0.000000
vn 0.000000 -1.000000 0.000000
vn 0.000000 -1.000000 0.000000
vn 1.000000 0.000000 0.000000
vn 1.000000 0.000000 0.000000
vn 1.000000 0.000000 0.000000
vn 1.000000 0.000000 0.000000
vn 0.000000 1.000000 0.000000
vn -0.057834 0.998326 0.000000
vn 0.000000 1.000000 0.000000
vn -0.057834 0.998326 0.000000
vn -0.355597 0.934639 0.000000
vn -0.355597 0.934639 0.000000
vn -0.602072 0.798442 0.000000
vn -0.602072 0.798442 0.000000
vn -0.966410 0.257007 0.000000
vn -0.966410 0.257007 0.000000
vn -0.966409 0.257008 0.000000
vn -0.966409 0.257008 0.000000
vn -0.940554 -0.339644 0.000000
vn -0.940554 -0.339644 0.000000
vn -0.940553 -0.339646 0.000000
vn -0.940553 -0.339646 0.000000
vn -0.368314 -0.929702 0.000000
vn -0.368313 -0.929702 0.000000
vn -0.368313 -0.929702 0.000000
vn -0.368314 -0.929702 0.000000
vn 0.345437 -0.938442 0.000000
vn 0.345437 -0.938442 0.000000
vn 0.345436 -0.938442 0.000000
vn 0.345436 -0.938442 0.000000
vn 0.934899 -0.354914 0.000000
vn 0.934899 -0.354915 0.000000
vn 0.934898 -0.354916 0.000000
vn 0.934898 -0.354916 0.000000
vn 0.973627 0.228144 0.000000
vn 0.973627 0.228144 0.000000
vn 0.973627 0.228145 0.000000
vn 0.973627 0.228145 0.000000
vn 0.707106 0.707107 0.000000
vn 0.707106 0.707107 0.000000
vn 0.707106 0.707107 0.000000
vn 0.707106 0.707107 0.000000
vn 1.000000 0.000000 0.000000
vn 1.000000 0.000000 0.000000
vn 1.000000 0.000000 0.000000
vn 1.000000 0.000000 0.000000
vn -0.830950 -0.556348 0.000000
vn -0.930722 -0.365726 0.000000
vn -0.830950 -0.556348 0.000000
vn -0.930723 -0.365726 0.000000
vn -0.998577 0.053333 0.000000
vn -0.998577 0.053333 0.000000
vn -0.971869 0.235524 0.000000
vn -0.971869 0.235524 0.000000
vn -0.416777 0.909009 0.000000
vn -0.416777 0.909009 0.000000
vn -0.416778 0.909008 0.000000
vn -0.416779 0.909008 0.000000
vn 0.470588 0.882353 0.000000
vn 0.470588 0.882353 0.000000
vn 0.470589 0.882352 0.000000
vn 0.470589 0.882352 0.000000
vn 0.972420 0.233237 0.000000
vn 0.972420 0.233237 0.000000
vn 0.972420 0.233238 0.000000
vn 0.972420 0.233238 0.000000
vn 0.957848 -0.287274 0.000000
vn 0.957849 -0.287274 0.000000
vn 0.957849 -0.287273 0.000000
vn 0.957849 -0.287273 0.000000
vn 0.347399 -0.937717 0.000000
vn 0.347399 -0.937717 0.000000
vn 0.347399 -0.937717 0.000000
vn 0.347399 -0.937717 0.000000
vn 0.000000 0.000000 1.000000
vn 0.000000 0.000000 1.000000
vn 0.000000 0.000000 1.000000
vn 0.000000 0.000000 1.000000
vn -0.000000 0.000000 1.000000
vn 0.000000 0.000000 1.000000
vn -0.000000 0.000000 1.000000
vn -0.000000 0.000000 1.000000
vn 0.000000 0.000000 1.000000
vn 0.000000 0.000000 1.000000
vn 0.000000 0.000000 1.000000
vn 0.000000 0.000000 1.000000
vn 0.000000 0.000000 1.000000
vn 0.000000 0.000000 1.000000
vn 0.000000 0.000000 1.000000
vn 0.000000 0.000000 1.000000
vn -0.000000 0.000000 1.000000
vn -0.000000 0.000000 1.000000
vn -0.000000 0.000000 1.000000
vn 0.000000 0.000000 1.000000
vn 0.000000 0.000000 1.000000
s 1
g polySurface7 typeMesh1
usemtl typeBlinnSG
f 3/1/1 2/2/2 4/3/3
f 2/2/2 1/4/4 4/3/3
f 4/3/3 1/4/4 5/5/5
f 1/4/4 13/6/6 5/5/5
f 5/5/5 13/6/6 14/7/7
f 14/7/7 21/8/8 5/5/5
f 5/5/5 21/8/8 6/9/9
f 14/7/7 13/6/6 15/10/10
f 13/6/6 12/11/11 15/10/10
f 21/8/8 20/12/12 6/9/9
f 6/9/9 20/12/12 7/13/13
f 7/13/13 20/12/12 8/14/14
f 20/12/12 19/15/15 8/14/14
f 8/14/14 19/15/15 9/16/16
f 19/15/15 18/17/17 9/16/16
f 9/16/16 18/17/17 10/18/18
f 18/17/17 17/19/19 10/18/18
f 15/10/10 12/11/11 16/20/20
f 12/11/11 11/21/21 16/20/20
f 11/21/21 10/18/18 16/20/20
f 10/18/18 17/19/19 16/20/20
s 2
f 1/22/22 2/23/23 22/24/24
f 22/24/24 2/23/23 23/25/25
s 3
f 2/26/26 3/27/27 23/28/28
f 23/28/28 3/27/27 24/29/29
s 4
f 3/30/30 4/31/31 24/32/32
f 24/32/32 4/31/31 25/33/33
f 4/31/31 5/34/34 25/33/33
f 25/33/33 5/34/34 26/35/35
f 5/36/34 6/37/36 26/38/35
f 26/38/35 6/37/36 27/39/37
s 5
f 6/37/38 7/40/39 27/39/40
f 27/39/40 7/40/39 28/41/41
s 6
f 7/40/42 8/42/43 28/41/44
f 28/41/44 8/42/43 29/43/45
s 7
f 8/44/46 9/45/47 29/46/48
f 29/46/48 9/45/47 30/47/49
s 8
f 9/45/50 10/48/51 30/47/52
f 30/47/52 10/48/51 31/49/53
s 9
f 10/50/54 11/51/55 31/52/56
f 31/52/56 11/51/55 32/53/57
s 10
f 11/51/58 12/54/59 32/53/60
f 32/53/60 12/54/59 33/55/61
s 11
f 12/54/62 13/56/63 33/55/64
f 33/55/64 13/56/63 34/57/65
s 12
f 13/56/66 1/58/67 34/57/68
f 34/57/68 1/58/67 22/59/69
s 13
f 14/60/70 15/61/71 35/62/72
f 35/62/72 15/61/71 36/63/73
f 15/61/71 16/64/74 36/63/73
f 36/63/73 16/64/74 37/65/75
f 16/64/74 17/66/76 37/65/75
f 37/65/75 17/66/76 38/67/77
s 14
f 17/68/78 18/69/79 38/70/80
f 38/70/80 18/69/79 39/71/81
s 15
f 18/69/82 19/72/83 39/71/84
f 39/71/84 19/72/83 40/73/85
s 16
f 19/74/86 20/75/87 40/76/88
f 40/76/88 20/75/87 41/77/89
s 17
f 20/75/90 21/78/91 41/77/92
f 41/77/92 21/78/91 42/79/93
s 18
f 21/80/94 14/81/95 42/82/96
f 42/82/96 14/81/95 35/83/97
s 19
f 23/84/98 24/85/99 22/86/100
f 24/85/99 25/87/101 22/86/100
f 25/87/101 26/88/102 22/86/100
f 22/86/100 26/88/102 34/89/103
f 26/88/102 35/90/104 34/89/103
f 35/90/104 26/88/102 42/91/105
f 26/88/102 27/92/106 42/91/105
f 35/90/104 36/93/107 34/89/103
f 34/89/103 36/93/107 33/94/108
f 36/93/107 37/95/109 33/94/108
f 33/94/108 37/95/109 32/96/110
f 32/96/110 37/95/109 31/97/111
f 37/95/109 38/98/112 31/97/111
f 31/97/111 38/98/112 30/99/113
f 38/98/112 39/100/114 30/99/113
f 30/99/113 39/100/114 29/101/115
f 39/100/114 40/102/116 29/101/115
f 42/91/105 27/92/106 41/103/117
f 27/92/106 28/104/118 41/103/117
f 28/104/118 29/101/115 41/103/117
f 40/102/116 41/103/117 29/101/115
