# This file uses centimeters as units for non-parametric coordinates.

mtllib 7.mtl
g shellDeformer1Set tweakSet1 vectorAdjust1Set
v -0.540855 0.610418 -0.023960
v -0.478248 0.610418 -0.023960
v -0.478248 0.370424 -0.023960
v -0.586071 -0.732155 -0.023960
v -0.586071 -0.817369 -0.023960
v -0.236516 -0.817369 -0.023960
v -0.236516 0.610418 -0.023960
v 0.297384 0.610418 -0.023960
v 0.297384 -0.405207 -0.023960
v 0.371294 -0.744328 -0.023960
v 0.594767 -0.845194 -0.023960
v 0.973887 -0.678244 -0.023960
v 0.906063 -0.573898 -0.023960
v 0.855738 -0.611940 -0.023960
v 0.809109 -0.639112 -0.023960
v 0.726937 -0.660852 -0.023960
v 0.596506 -0.433031 -0.023960
v 0.596506 0.610418 -0.023960
v 1.017364 0.610418 -0.023960
v 1.017364 0.845194 -0.023960
v -0.448683 0.845194 -0.023960
v -0.756502 0.778240 -0.023960
v -1.017364 0.504333 -0.023960
v -0.909541 0.410423 -0.023960
v -0.740850 0.570419 -0.023960
v -0.652591 0.600418 -0.023960
v -0.540855 0.610418 0.023960
v -0.478248 0.610418 0.023960
v -0.478248 0.370424 0.023960
v -0.586071 -0.732155 0.023960
v -0.586071 -0.817369 0.023960
v -0.236516 -0.817369 0.023960
v -0.236516 0.610418 0.023960
v 0.297384 0.610418 0.023960
v 0.297384 -0.405207 0.023960
v 0.371294 -0.744328 0.023960
v 0.594767 -0.845194 0.023960
v 0.973887 -0.678244 0.023960
v 0.906063 -0.573898 0.023960
v 0.855738 -0.611940 0.023960
v 0.809109 -0.639112 0.023960
v 0.726937 -0.660852 0.023960
v 0.596506 -0.433031 0.023960
v 0.596506 0.610418 0.023960
v 1.017364 0.610418 0.023960
v 1.017364 0.845194 0.023960
v -0.448683 0.845194 0.023960
v -0.756502 0.778240 0.023960
v -1.017364 0.504333 0.023960
v -0.909541 0.410423 0.023960
v -0.740850 0.570419 0.023960
v -0.652591 0.600418 0.023960
vt 0.088947 0.857995
vt 0.098476 0.879634
vt 0.082991 0.861866
vt 0.085162 0.864739
vt 0.086713 0.867400
vt 0.087954 0.872090
vt 0.021448 0.971652
vt 0.005814 0.956762
vt 0.026808 0.965497
vt 0.017676 0.955869
vt 0.015963 0.950831
vt 0.001992 0.939193
vt 0.015393 0.944453
vt 0.015393 0.940880
vt 0.001992 0.855513
vt 0.015393 0.855513
vt 0.015393 0.879535
vt 0.096888 0.927082
vt 0.096888 0.947034
vt 0.015393 0.927082
vt 0.092024 0.947034
vt 0.029091 0.940880
vt 0.092719 0.892390
vt 0.074951 0.879535
vt 0.073362 0.896609
vt 0.015393 0.896609
vt 0.297219 0.442010
vt 0.300792 0.442010
vt 0.297219 0.584705
vt 0.300792 0.584705
vt 0.263885 0.584705
vt 0.250187 0.584705
vt 0.263885 0.442010
vt 0.250187 0.442010
vt 0.187254 0.584705
vt 0.187254 0.442010
vt 0.182390 0.584705
vt 0.182390 0.442010
vt 0.156303 0.442010
vt 0.176255 0.442010
vt 0.156303 0.584705
vt 0.176255 0.584705
vt 0.068672 0.442010
vt 0.150167 0.442010
vt 0.068672 0.584705
vt 0.150167 0.584705
vt 0.032063 0.442010
vt 0.062537 0.442010
vt 0.032063 0.584705
vt 0.062537 0.584705
vt 0.079318 0.731392
vt 0.021348 0.731392
vt 0.079318 0.588697
vt 0.021348 0.588697
vt 0.001992 0.731392
vt 0.001992 0.588697
vt 0.085992 0.588697
vt 0.098747 0.588697
vt 0.085992 0.731392
vt 0.098747 0.731392
vt 0.120387 0.588697
vt 0.120387 0.731392
vt 0.141015 0.731392
vt 0.137144 0.731392
vt 0.141015 0.588697
vt 0.137144 0.588697
vt 0.134272 0.731392
vt 0.134272 0.588697
vt 0.131610 0.731392
vt 0.131610 0.588697
vt 0.126920 0.731392
vt 0.126920 0.588697
vt 0.148358 0.588697
vt 0.161362 0.588697
vt 0.148358 0.731392
vt 0.161362 0.731392
vt 0.220920 0.588697
vt 0.220920 0.731392
vt 0.228265 0.588697
vt 0.252287 0.588697
vt 0.228265 0.731392
vt 0.252287 0.731392
vt 0.259449 0.588697
vt 0.272849 0.588697
vt 0.259449 0.731392
vt 0.272849 0.731392
vt 0.397025 0.731392
vt 0.313346 0.731392
vt 0.397025 0.588697
vt 0.313346 0.588697
vt 0.295777 0.731392
vt 0.295777 0.588697
vt 0.280887 0.731392
vt 0.280887 0.588697
vt 0.270021 0.442010
vt 0.276175 0.442010
vt 0.270021 0.584705
vt 0.276175 0.584705
vt 0.285803 0.442010
vt 0.285803 0.584705
vt 0.290841 0.442010
vt 0.290841 0.584705
vt 0.051354 0.737865
vt 0.057310 0.741737
vt 0.041825 0.759505
vt 0.055139 0.744609
vt 0.053588 0.747271
vt 0.052347 0.751961
vt 0.118853 0.851522
vt 0.113493 0.845368
vt 0.134487 0.836632
vt 0.122625 0.835739
vt 0.124338 0.830702
vt 0.138309 0.819063
vt 0.124908 0.824324
vt 0.124908 0.820750
vt 0.043413 0.826905
vt 0.043413 0.806953
vt 0.048277 0.826905
vt 0.124908 0.806953
vt 0.111210 0.820750
vt 0.138309 0.735384
vt 0.124908 0.776479
vt 0.124908 0.735384
vt 0.124908 0.759405
vt 0.066939 0.776479
vt 0.065350 0.759405
vt 0.047582 0.772260
vn 0.000000 0.000000 -1.000000
vn 0.000001 0.000000 -1.000000
vn 0.000000 0.000000 -1.000000
vn 0.000009 0.000000 -1.000000
vn -0.000002 0.000000 -1.000000
vn 0.000000 0.000000 -1.000000
vn -0.000000 0.000000 -1.000000
vn -0.000000 0.000000 -1.000000
vn -0.000000 0.000000 -1.000000
vn 0.000000 0.000000 -1.000000
vn 0.000000 0.000000 -1.000000
vn -0.000000 0.000000 -1.000000
vn -0.000000 0.000000 -1.000000
vn 0.000000 0.000000 -1.000000
vn 0.000000 0.000000 -1.000000
vn 0.000000 0.000000 -1.000000
vn 0.000000 0.000000 -1.000000
vn 0.000000 0.000000 -1.000000
vn 0.000000 0.000000 -1.000000
vn -0.000000 0.000000 -1.000000
vn -0.000000 0.000000 -1.000000
vn -0.000001 0.000000 -1.000000
vn 0.000000 0.000000 -1.000000
vn 0.000000 0.000000 -1.000000
vn 0.000000 0.000000 -1.000000
vn 0.000000 0.000000 -1.000000
vn 0.057265 -0.998359 0.000000
vn 0.000000 -1.000000 0.000000
vn 0.057265 -0.998359 0.000000
vn 0.000000 -1.000000 0.000000
vn -1.000000 0.000000 0.000000
vn -0.996791 0.080053 0.000000
vn -1.000000 0.000000 0.000000
vn -0.996791 0.080053 0.000000
vn -0.995905 0.090405 0.000000
vn -0.995905 0.090404 0.000000
vn -1.000000 0.000000 0.000000
vn -1.000000 0.000000 0.000000
vn 0.000000 -1.000000 0.000000
vn 0.000000 -1.000000 0.000000
vn 0.000000 -1.000000 0.000000
vn 0.000000 -1.000000 0.000000
vn 1.000000 0.000000 0.000000
vn 1.000000 0.000000 0.000000
vn 1.000000 0.000000 0.000000
vn 1.000000 0.000000 0.000000
vn 0.000000 -1.000000 0.000000
vn 0.000000 -1.000000 0.000000
vn 0.000000 -1.000000 0.000000
vn 0.000000 -1.000000 0.000000
vn -1.000000 0.000000 0.000000
vn -0.998515 -0.054476 0.000000
vn -1.000000 0.000000 0.000000
vn -0.998515 -0.054476 0.000000
vn -0.977064 -0.212948 0.000000
vn -0.977063 -0.212949 0.000000
vn -0.411394 -0.911458 0.000000
vn -0.411394 -0.911457 0.000000
vn -0.411394 -0.911457 0.000000
vn -0.411394 -0.911458 0.000000
vn 0.403017 -0.915193 0.000000
vn 0.403017 -0.915193 0.000000
vn 0.403017 -0.915193 0.000000
vn 0.403017 -0.915193 0.000000
vn 0.838444 0.544988 0.000000
vn 0.838444 0.544988 0.000000
vn 0.838444 0.544988 0.000000
vn 0.838444 0.544988 0.000000
vn -0.603026 0.797721 0.000000
vn -0.558123 0.829758 0.000000
vn -0.603026 0.797721 0.000000
vn -0.558123 0.829758 0.000000
vn -0.355012 0.934862 0.000000
vn -0.355012 0.934862 0.000000
vn -0.255765 0.966739 0.000000
vn -0.255766 0.966739 0.000000
vn 0.867837 0.496850 0.000000
vn 0.994778 0.102063 0.000000
vn 0.867837 0.496850 0.000000
vn 0.994778 0.102064 0.000000
vn 1.000000 0.000000 0.000000
vn 1.000000 0.000000 0.000000
vn 0.000000 -1.000000 0.000000
vn 0.000000 -1.000000 0.000000
vn 0.000000 -1.000000 0.000000
vn 0.000000 -1.000000 0.000000
vn 1.000000 0.000000 0.000000
vn 1.000000 0.000000 0.000000
vn 1.000000 0.000000 0.000000
vn 1.000000 0.000000 0.000000
vn 0.000000 1.000000 0.000000
vn -0.037718 0.999288 0.000000
vn 0.000000 1.000000 0.000000
vn -0.037718 0.999288 0.000000
vn -0.212541 0.977152 0.000000
vn -0.212541 0.977152 0.000000
vn -0.724140 0.689653 0.000000
vn -0.724140 0.689653 0.000000
vn -0.724139 0.689654 0.000000
vn -0.724139 0.689655 0.000000
vn -0.656779 -0.754083 0.000000
vn -0.656779 -0.754083 0.000000
vn -0.656779 -0.754083 0.000000
vn -0.656779 -0.754083 0.000000
vn 0.688161 -0.725558 0.000000
vn 0.594544 -0.804063 0.000000
vn 0.688161 -0.725558 0.000000
vn 0.594544 -0.804063 0.000000
vn 0.196116 -0.980581 0.000000
vn 0.196116 -0.980581 0.000000
vn -0.000001 0.000000 1.000000
vn -0.000001 0.000000 1.000000
vn -0.000000 0.000000 1.000000
vn 0.000000 0.000000 1.000000
vn 0.000001 0.000000 1.000000
vn 0.000000 0.000000 1.000000
vn 0.000000 0.000000 1.000000
vn 0.000000 0.000000 1.000000
vn 0.000000 0.000000 1.000000
vn 0.000000 0.000000 1.000000
vn 0.000000 0.000000 1.000000
vn 0.000000 0.000000 1.000000
vn 0.000000 0.000000 1.000000
vn 0.000000 0.000000 1.000000
vn 0.000000 0.000000 1.000000
vn -0.000000 0.000000 1.000000
vn -0.000000 0.000000 1.000000
vn -0.000000 0.000000 1.000000
vn 0.000000 0.000000 1.000000
vn 0.000000 0.000000 1.000000
vn 0.000000 0.000000 1.000000
vn 0.000000 0.000000 1.000000
vn 0.000000 0.000000 1.000000
vn 0.000001 0.000000 1.000000
vn 0.000001 0.000000 1.000000
vn -0.000000 0.000000 1.000000
s 1
g polySurface8 typeMesh1
usemtl typeBlinnSG
f 12/1/1 11/2/2 13/3/3
f 13/3/3 11/2/2 14/4/4
f 14/4/4 11/2/2 15/5/5
f 15/5/5 11/2/2 16/6/6
f 23/7/7 22/8/8 24/9/9
f 24/9/9 22/8/8 25/10/10
f 25/10/10 22/8/8 26/11/11
f 22/8/8 21/12/12 26/11/11
f 26/11/11 21/12/12 1/13/13
f 1/13/13 21/12/12 2/14/14
f 20/15/15 19/16/16 21/12/12
f 19/16/16 18/17/17 21/12/12
f 6/18/18 5/19/19 7/20/20
f 5/19/19 4/21/21 7/20/20
f 4/21/21 3/22/22 7/20/20
f 3/22/22 2/14/14 7/20/20
f 2/14/14 21/12/12 7/20/20
f 11/2/2 10/23/23 16/6/6
f 16/6/6 10/23/23 17/24/24
f 10/23/23 9/25/25 17/24/24
f 17/24/24 9/25/25 18/17/17
f 9/25/25 8/26/26 18/17/17
f 18/17/17 8/26/26 21/12/12
f 21/12/12 8/26/26 7/20/20
s 5
f 1/27/27 2/28/28 27/29/29
f 27/29/29 2/28/28 28/30/30
s 6
f 2/31/31 3/32/32 28/33/33
f 28/33/33 3/32/32 29/34/34
f 3/32/32 4/35/35 29/34/34
f 29/34/34 4/35/35 30/36/36
f 4/35/35 5/37/37 30/36/36
f 30/36/36 5/37/37 31/38/38
s 7
f 5/39/39 6/40/40 31/41/41
f 31/41/41 6/40/40 32/42/42
s 8
f 6/43/43 7/44/44 32/45/45
f 32/45/45 7/44/44 33/46/46
s 9
f 7/47/47 8/48/48 33/49/49
f 33/49/49 8/48/48 34/50/50
s 10
f 8/51/51 9/52/52 34/53/53
f 34/53/53 9/52/52 35/54/54
f 9/52/52 10/55/55 35/54/54
f 35/54/54 10/55/55 36/56/56
s 11
f 10/57/57 11/58/58 36/59/59
f 36/59/59 11/58/58 37/60/60
s 12
f 11/58/61 12/61/62 37/60/63
f 37/60/63 12/61/62 38/62/64
s 13
f 12/63/65 13/64/66 38/65/67
f 38/65/67 13/64/66 39/66/68
s 14
f 13/64/69 14/67/70 39/66/71
f 39/66/71 14/67/70 40/68/72
f 14/67/70 15/69/73 40/68/72
f 40/68/72 15/69/73 41/70/74
f 15/69/73 16/71/75 41/70/74
f 41/70/74 16/71/75 42/72/76
s 15
f 16/73/77 17/74/78 42/75/79
f 42/75/79 17/74/78 43/76/80
f 17/74/78 18/77/81 43/76/80
f 43/76/80 18/77/81 44/78/82
s 16
f 18/79/83 19/80/84 44/81/85
f 44/81/85 19/80/84 45/82/86
s 17
f 19/83/87 20/84/88 45/85/89
f 45/85/89 20/84/88 46/86/90
s 18
f 20/87/91 21/88/92 46/89/93
f 46/89/93 21/88/92 47/90/94
f 21/88/92 22/91/95 47/90/94
f 47/90/94 22/91/95 48/92/96
s 19
f 22/91/97 23/93/98 48/92/99
f 48/92/99 23/93/98 49/94/100
s 20
f 23/95/101 24/96/102 49/97/103
f 49/97/103 24/96/102 50/98/104
s 5
f 24/96/105 25/99/106 50/98/107
f 50/98/107 25/99/106 51/100/108
f 25/99/106 26/101/109 51/100/108
f 51/100/108 26/101/109 52/102/110
f 26/101/109 1/27/27 52/102/110
f 52/102/110 1/27/27 27/29/29
s 22
f 38/103/111 39/104/112 37/105/113
f 39/104/112 40/106/114 37/105/113
f 40/106/114 41/107/115 37/105/113
f 41/107/115 42/108/116 37/105/113
f 49/109/117 50/110/118 48/111/119
f 50/110/118 51/112/120 48/111/119
f 51/112/120 52/113/121 48/111/119
f 48/111/119 52/113/121 47/114/122
f 52/113/121 27/115/123 47/114/122
f 27/115/123 28/116/124 47/114/122
f 31/117/125 32/118/126 30/119/127
f 32/118/126 33/120/128 30/119/127
f 30/119/127 33/120/128 29/121/129
f 29/121/129 33/120/128 28/116/124
f 28/116/124 33/120/128 47/114/122
f 47/114/122 33/120/128 46/122/130
f 33/120/128 34/123/131 46/122/130
f 45/124/132 46/122/130 44/125/133
f 46/122/130 34/123/131 44/125/133
f 34/123/131 35/126/134 44/125/133
f 44/125/133 35/126/134 43/127/135
f 35/126/134 36/128/136 43/127/135
f 43/127/135 36/128/136 42/108/116
f 36/128/136 37/105/113 42/108/116
