# This file uses centimeters as units for non-parametric coordinates.

mtllib smallobj.mtl
g default
v -0.108392 -0.132498 0.038382
v 0.063986 -0.142444 0.165318
v -0.098448 0.185077 0.028252
v 0.059104 0.174311 0.123883
v -0.001441 0.175702 -0.160081
v 0.177414 0.122364 -0.036658
v -0.026153 -0.136949 -0.159268
v 0.179595 -0.167692 -0.011721
v -0.032183 0.256634 0.105052
v 0.125548 0.189921 -0.127824
v 0.078868 -0.315378 -0.015213
v -0.004279 -0.308217 0.090949
v -0.084186 0.206929 -0.108468
v -0.069153 -0.185425 -0.093344
v 0.036283 -0.333535 0.048678
v 0.147741 -0.181853 0.125739
v 0.137422 0.177363 0.095607
v 0.051868 0.289145 0.022394
v -0.121037 0.005179 0.012180
v -0.108801 -0.000369 -0.151965
v 0.001828 -0.006685 -0.214366
v 0.168689 -0.008301 -0.134718
v 0.207705 -0.009927 -0.054562
v 0.165465 -0.002605 0.128435
v 0.035686 0.003745 0.167330
v -0.109928 0.008737 0.141799
vt 0.375000 0.000000
vt 0.625000 0.000000
vt 0.375000 0.250000
vt 0.625000 0.250000
vt 0.375000 0.500000
vt 0.625000 0.500000
vt 0.375000 0.750000
vt 0.625000 0.750000
vt 0.375000 1.000000
vt 0.625000 1.000000
vt 0.875000 0.000000
vt 0.875000 0.250000
vt 0.125000 0.000000
vt 0.125000 0.250000
vt 0.500000 0.250000
vt 0.500000 0.500000
vt 0.500000 0.750000
vt 0.500000 0.000000
vt 0.500000 1.000000
vt 0.250000 0.250000
vt 0.375000 0.375000
vt 0.250000 0.000000
vt 0.375000 0.875000
vt 0.500000 0.875000
vt 0.625000 0.875000
vt 0.750000 0.000000
vt 0.625000 0.375000
vt 0.750000 0.250000
vt 0.500000 0.375000
vt 0.375000 0.125000
vt 0.250000 0.125000
vt 0.125000 0.125000
vt 0.375000 0.625000
vt 0.500000 0.625000
vt 0.625000 0.625000
vt 0.875000 0.125000
vt 0.750000 0.125000
vt 0.625000 0.125000
vt 0.500000 0.125000
vn -0.943896 -0.317331 0.091444
vn -0.559741 -0.615658 0.554667
vn -0.645422 -0.002430 0.763822
vn -0.997546 -0.015241 0.068337
vn -0.918184 0.390664 0.065730
vn -0.465778 0.645833 0.604938
vn 0.212172 0.976954 -0.023346
vn -0.685298 0.569680 -0.453687
vn 0.116985 -0.136783 -0.983669
vn 0.575341 -0.166195 -0.800851
vn 0.447173 -0.747794 -0.490755
vn 0.085511 -0.478648 -0.873833
vn -0.753703 -0.529977 -0.388659
vn -0.074679 -0.990254 0.117563
vn -0.030721 -0.203699 0.978552
vn 0.755245 -0.343831 0.558020
vn 0.806345 0.070620 0.587214
vn -0.031989 0.028437 0.999084
vn -0.874505 0.002501 -0.485010
vn 0.121541 0.326811 0.937242
vn 0.759345 0.450630 0.469390
vn 0.991029 -0.046412 -0.125330
vn 0.928848 -0.352911 -0.112672
vn 0.934311 0.356171 -0.014312
vn 0.530931 0.559952 -0.636055
vn -0.012679 0.491550 -0.870757
s 1
g pCube63 group37
usemtl phong22SG
f 1/1/1 12/18/2 26/39/3 19/30/4
f 3/3/5 9/15/6 18/29/7 13/21/8
f 21/33/9 22/34/10 11/17/11 7/7/12
f 14/23/13 15/24/14 12/19/2 1/9/1
f 2/2/15 16/26/16 24/37/17 25/38/18
f 14/22/13 1/1/1 19/30/4 20/31/19
f 9/15/6 4/4/20 17/27/21 18/29/7
f 11/17/11 22/34/10 23/35/22 8/8/23
f 12/19/2 15/24/14 16/25/16 2/10/15
f 26/39/3 12/18/2 2/2/15 25/38/18
f 7/13/12 14/22/13 20/31/19 21/32/9
f 7/7/12 11/17/11 15/24/14 14/23/13
f 16/25/16 15/24/14 11/17/11 8/8/23
f 24/37/17 16/26/16 8/11/23 23/36/22
f 18/29/7 17/27/21 6/6/24 10/16/25
f 13/21/8 18/29/7 10/16/25 5/5/26
f 20/31/19 19/30/4 3/3/5 13/20/8
f 21/32/9 20/31/19 13/20/8 5/14/26
f 5/5/26 10/16/25 22/34/10 21/33/9
f 23/35/22 22/34/10 10/16/25 6/6/24
f 17/28/21 24/37/17 23/36/22 6/12/24
f 25/38/18 24/37/17 17/28/21 4/4/20
f 9/15/6 26/39/3 25/38/18 4/4/20
f 19/30/4 26/39/3 9/15/6 3/3/5
