# This file uses centimeters as units for non-parametric coordinates.

mtllib 0.mtl
g default
v -0.052369 3.431045 0.113274
v -0.094402 3.391482 0.113274
v -0.117817 3.334275 0.113274
v 0.000000 3.445160 0.113274
v -0.117817 3.334275 0.062896
v -0.094402 3.391482 0.062896
v -0.052369 3.431045 0.062896
v 0.000000 3.445160 0.062896
v 0.094402 3.391482 0.113274
v 0.052369 3.431045 0.113274
v 0.117817 3.334275 0.113274
v 0.117817 3.334275 0.062896
v 0.052369 3.431045 0.062896
v 0.094402 3.391482 0.062896
v -0.607937 1.306909 0.113274
v -0.608922 1.268719 0.113274
v 0.607937 1.306909 0.113274
v 0.608922 1.268719 0.113274
v -0.607937 1.306909 0.062896
v -0.608922 1.268719 0.062896
v 0.607937 1.306909 0.062896
v 0.608922 1.268719 0.062896
v -0.343716 0.745461 0.062896
v 0.343716 0.745461 0.062896
v 0.343716 0.745461 0.113274
v -0.343716 0.745461 0.113274
v 0.643459 1.180032 0.113274
v 0.643459 1.180032 0.062896
v -0.643459 1.180032 0.062896
v -0.643459 1.180032 0.113274
v 0.301847 0.825658 0.113274
v 0.305350 0.818948 0.101564
v 0.308853 0.812238 0.113274
v -0.301847 0.825658 0.113274
v -0.305350 0.818948 0.101564
v -0.308853 0.812238 0.113274
v -0.592120 1.240472 0.113274
v -0.594884 1.233904 0.101564
v -0.599079 1.228144 0.113274
v -0.592120 1.240472 0.062896
v -0.594884 1.233904 0.074607
v -0.599079 1.228144 0.062896
v 0.592120 1.240472 0.113274
v 0.594884 1.233904 0.101564
v 0.599079 1.228144 0.113274
v 0.592120 1.240472 0.062896
v 0.594884 1.233904 0.074607
v 0.599079 1.228144 0.062896
vt 0.490243 0.958397
vt 0.490243 0.980149
vt 0.471088 0.980149
vt 0.471088 0.958397
vt 0.490243 0.995192
vt 0.471088 0.995192
vt 0.471088 0.187530
vt 0.490243 0.187530
vt 0.490243 0.173009
vt 0.471088 0.173009
vt 0.490243 0.162269
vt 0.471088 0.162269
vt 0.485791 0.159771
vt 0.475541 0.159771
vt 0.485791 0.001992
vt 0.490243 0.004544
vt 0.496747 0.980149
vt 0.496747 0.958397
vt 0.515903 0.958397
vt 0.515903 0.980149
vt 0.496747 0.187530
vt 0.515903 0.187530
vt 0.496747 0.995192
vt 0.515903 0.995192
vt 0.496747 0.173009
vt 0.515903 0.173009
vt 0.496747 0.162269
vt 0.515903 0.162269
vt 0.501200 0.159771
vt 0.511450 0.159771
vt 0.496747 0.004544
vt 0.501200 0.001992
vt 0.760674 0.004544
vt 0.765126 0.001992
vt 0.765126 0.160132
vt 0.760674 0.162323
vt 0.771670 0.001992
vt 0.776123 0.004544
vt 0.776123 0.162323
vt 0.771670 0.160132
vt 0.522407 0.377347
vt 0.522407 0.115964
vt 0.541562 0.115964
vt 0.541562 0.377347
vt 0.522407 0.001992
vt 0.541562 0.001992
vt 0.541562 0.491318
vt 0.522407 0.491318
vt 0.782667 0.041817
vt 0.782667 0.021904
vt 0.801823 0.021904
vt 0.801823 0.041817
vt 0.782667 0.001992
vt 0.801823 0.001992
vt 0.738680 0.001992
vt 0.743132 0.003324
vt 0.743132 0.235531
vt 0.738680 0.236863
vt 0.749677 0.001992
vt 0.754129 0.003324
vt 0.754129 0.232867
vt 0.749677 0.234199
vt 0.269128 0.977598
vt 0.253146 0.992641
vt 0.233234 0.998008
vt 0.213321 0.992641
vt 0.197339 0.977598
vt 0.188436 0.955846
vt 0.002077 0.184979
vt 0.464390 0.184979
vt 0.278032 0.955846
vt 0.001703 0.170458
vt 0.464765 0.170458
vt 0.008091 0.159717
vt 0.458376 0.159717
vt 0.118462 0.001992
vt 0.348005 0.001992
vt 0.573457 0.129220
vt 0.573457 0.364091
vt 0.548066 0.377347
vt 0.548066 0.115964
vt 0.731597 0.474444
vt 0.713304 0.491318
vt 0.731597 0.018867
vt 0.713304 0.001992
vt 0.827482 0.020286
vt 0.808327 0.020286
vt 0.808327 0.001992
vt 0.827482 0.001992
vt 0.812779 0.022476
vt 0.823029 0.022476
vt 0.853141 0.020286
vt 0.833986 0.020286
vt 0.833986 0.001992
vt 0.853141 0.001992
vt 0.848689 0.022476
vt 0.838439 0.022476
vn 0.000000 -1.000000 0.000000
vn 0.000000 -1.000000 0.000000
vn 0.000000 -1.000000 0.000000
vn 0.000000 -1.000000 0.000000
vn -0.970971 0.239199 0.000000
vn -0.828339 0.560227 0.000000
vn -0.828339 0.560227 0.000000
vn -0.970971 0.239199 0.000000
vn -0.494296 0.869293 0.000000
vn -0.494296 0.869293 0.000000
vn -0.260252 0.965541 0.000000
vn -0.260252 0.965541 0.000000
vn 0.260252 0.965541 0.000000
vn 0.494296 0.869293 0.000000
vn 0.494296 0.869293 0.000000
vn 0.260252 0.965541 0.000000
vn 0.828339 0.560227 0.000000
vn 0.828339 0.560227 0.000000
vn 0.970971 0.239199 0.000000
vn 0.970971 0.239199 0.000000
vn 0.972880 0.231311 0.000000
vn 0.972880 0.231311 0.000000
vn -0.972880 0.231311 0.000000
vn -0.972880 0.231311 0.000000
vn 0.000000 0.000000 1.000000
vn 0.000000 0.000000 1.000000
vn 0.000000 0.000000 1.000000
vn 0.000000 0.000000 1.000000
vn 0.823178 -0.567783 0.000000
vn 0.823178 -0.567783 0.000000
vn 0.823178 -0.567783 0.000000
vn 0.823178 -0.567783 0.000000
vn -0.823178 -0.567783 0.000000
vn -0.823178 -0.567783 0.000000
vn -0.823178 -0.567783 0.000000
vn -0.823178 -0.567783 0.000000
vn 0.000000 0.000000 1.000000
vn 0.000000 0.000000 1.000000
vn 0.000000 0.000000 1.000000
vn 0.000000 0.000000 1.000000
vn 0.999668 0.025776 0.000000
vn 0.999668 0.025776 0.000000
vn -0.999668 0.025776 0.000000
vn -0.999668 0.025776 0.000000
vn 0.014516 -0.010143 0.999843
vn -0.014516 -0.010143 0.999843
vn -0.010772 -0.023302 0.999671
vn 0.010772 -0.023302 0.999671
vn 0.859456 -0.511210 0.000000
vn 0.859456 -0.511210 0.000000
vn 0.859456 -0.511210 0.000000
vn 0.859456 -0.511210 0.000000
vn -0.859456 -0.511210 0.000000
vn -0.859456 -0.511210 0.000000
vn -0.859456 -0.511210 0.000000
vn -0.859456 -0.511210 0.000000
vn -0.037840 0.082332 0.995886
vn 0.037840 0.082332 0.995886
vn -0.000000 0.000000 1.000000
vn -0.000000 0.000000 1.000000
vn 0.737241 0.675629 0.000000
vn 0.737241 0.675629 0.000000
vn 0.735034 0.678030 0.000000
vn 0.735034 0.678030 0.000000
vn -0.160658 0.112104 0.980623
vn -0.000000 0.000000 1.000000
vn -0.737241 0.675629 0.000000
vn -0.737241 0.675629 0.000000
vn -0.735034 0.678030 0.000000
vn -0.735034 0.678030 0.000000
vn 0.160658 0.112104 0.980623
vn -0.000000 0.000000 1.000000
vn 0.355105 -0.767698 0.533423
vn 0.720035 -0.503129 0.477924
vn -0.350661 0.763228 0.542697
vn -0.711162 0.496235 0.497995
vn 0.350661 0.763228 0.542697
vn -0.355105 -0.767698 0.533423
vn 0.711162 0.496235 0.497995
vn -0.720035 -0.503129 0.477924
vn -0.808347 0.588706 0.000000
vn -0.808347 0.588706 0.000000
vn -0.921743 0.387801 0.000000
vn -0.921743 0.387801 0.000000
vn -0.921743 0.387801 0.000000
vn -0.921743 0.387801 0.000000
vn 0.921743 0.387801 0.000000
vn 0.921743 0.387801 0.000000
vn 0.921743 0.387801 0.000000
vn 0.921743 0.387801 0.000000
vn 0.808347 0.588706 0.000000
vn 0.808347 0.588706 0.000000
vn 0.000000 0.000000 1.000000
vn 0.000000 0.000000 1.000000
vn 0.000000 0.000000 1.000000
s off
g pCube12
usemtl phong14SG
f 23/41/1 24/42/2 25/43/3 26/44/4
s 1
f 3/1/5 2/2/6 6/3/7 5/4/8
f 2/2/6 1/5/9 7/6/10 6/3/7
f 1/49/9 4/50/11 8/51/12 7/52/10
s 2
f 4/50/13 10/53/14 13/54/15 8/51/16
f 10/23/14 9/17/17 14/20/18 13/24/15
f 9/17/17 11/18/19 12/19/20 14/20/18
f 17/21/21 21/22/22 12/19/20 11/18/19
s 1
f 19/7/23 15/8/24 3/1/5 5/4/8
s 3
f 9/63/25 2/67/26 3/68/27 11/71/28
s off
f 28/45/29 27/46/30 25/43/31 24/42/32
f 30/47/33 29/48/34 23/41/35 26/44/36
s 3
f 15/69/37 16/72/38 18/73/39 17/70/40
s 2
f 17/21/21 18/25/41 22/26/42 21/22/22
s 1
f 16/9/43 15/8/24 19/7/23 20/10/44
s 3
f 43/75/45 37/74/46 34/76/47 31/77/48
f 16/72/38 37/74/46 43/75/45 18/73/39
s off
f 18/25/49 43/27/50 46/28/51 22/26/52
f 37/11/53 16/9/54 20/10/55 40/12/56
s 5
f 33/78/57 36/79/58 26/80/59 25/81/60
s 6
f 48/86/61 45/87/62 27/88/63 28/89/64
s 5
f 45/84/65 33/78/57 25/81/60 27/85/66
s 7
f 39/92/67 42/93/68 29/94/69 30/95/70
s 5
f 36/79/58 39/82/71 30/83/72 26/80/59
s 3
f 31/31/48 32/32/73 44/29/74 43/27/45
s 5
f 32/33/75 33/34/57 45/35/65 44/36/76
f 33/55/57 32/56/75 35/57/77 36/58/58
s 3
f 32/59/73 31/60/48 34/61/47 35/62/78
s 5
f 36/37/58 35/38/77 38/39/79 39/40/71
s 3
f 35/15/78 34/16/47 37/11/46 38/13/80
s 7
f 39/92/67 38/96/81 41/97/82 42/93/68
s off
f 38/13/83 37/11/84 40/12/85 41/14/86
f 43/27/87 44/29/88 47/30/89 46/28/90
s 6
f 44/90/91 45/87/62 48/86/61 47/91/92
s 3
f 11/71/28 3/68/27 15/69/37 17/70/40
f 1/66/93 10/64/94 4/65/95
f 9/63/25 10/64/94 1/66/93 2/67/26
