# This file uses centimeters as units for non-parametric coordinates.

mtllib 15.mtl
g default
v 0.293385 -1.904611 0.900247
v 0.263042 -1.831356 0.900247
v 0.214773 -1.768451 0.900247
v 0.151867 -1.720182 0.900247
v 0.078612 -1.689838 0.900247
v 0.000000 -1.679488 0.900246
v -0.078612 -1.689838 0.900247
v -0.151867 -1.720182 0.900246
v -0.214773 -1.768450 0.900247
v -0.263041 -1.831356 0.900247
v -0.293385 -1.904611 0.900247
v -0.303735 -1.983223 0.900247
v -0.293385 -2.061835 0.900247
v -0.263041 -2.135090 0.900247
v -0.214773 -2.197996 0.900247
v -0.151867 -2.246265 0.900246
v -0.078612 -2.276609 0.900246
v 0.000000 -2.286958 0.900247
v 0.078612 -2.276609 0.900247
v 0.151867 -2.246265 0.900247
v 0.214773 -2.197996 0.900247
v 0.263042 -2.135090 0.900247
v 0.293385 -2.061835 0.900247
v 0.303735 -1.983223 0.900246
v 0.000000 -1.983223 0.985552
v 0.092842 -1.929621 0.985552
v 0.154427 -1.894065 0.974637
v 0.210242 -1.861840 0.942904
v 0.234494 -1.920391 0.942904
v 0.172241 -1.937071 0.974637
v 0.103552 -1.955477 0.985552
v 0.075805 -1.907418 0.985552
v 0.126089 -1.857134 0.974637
v 0.171662 -1.811561 0.942903
v 0.053602 -1.890381 0.985552
v 0.089159 -1.828796 0.974637
v 0.121383 -1.772982 0.942903
v 0.027747 -1.879671 0.985552
v 0.046152 -1.810982 0.974637
v 0.062833 -1.748729 0.942903
v 0.000000 -1.876018 0.985551
v 0.000000 -1.804906 0.974637
v 0.000000 -1.740457 0.942903
v -0.027746 -1.879671 0.985552
v -0.046152 -1.810982 0.974637
v -0.062832 -1.748729 0.942904
v -0.053602 -1.890381 0.985552
v -0.089158 -1.828796 0.974637
v -0.121383 -1.772982 0.942903
v -0.075805 -1.907418 0.985552
v -0.126089 -1.857134 0.974637
v -0.171661 -1.811561 0.942903
v -0.092842 -1.929621 0.985552
v -0.154427 -1.894065 0.974637
v -0.210241 -1.861840 0.942903
v -0.103552 -1.955477 0.985552
v -0.172241 -1.937071 0.974637
v -0.234494 -1.920391 0.942903
v -0.107205 -1.983223 0.985552
v -0.178317 -1.983223 0.974637
v -0.242766 -1.983223 0.942903
v -0.103552 -2.010970 0.985552
v -0.172241 -2.029375 0.974637
v -0.234494 -2.046056 0.942903
v -0.092842 -2.036825 0.985552
v -0.154427 -2.072382 0.974637
v -0.210241 -2.104606 0.942903
v -0.075805 -2.059029 0.985552
v -0.126089 -2.109312 0.974637
v -0.171662 -2.154885 0.942903
v -0.053602 -2.076065 0.985552
v -0.089158 -2.137650 0.974637
v -0.121383 -2.193465 0.942903
v -0.027746 -2.086775 0.985552
v -0.046152 -2.155465 0.974637
v -0.062832 -2.217718 0.942904
v 0.000000 -2.090428 0.985552
v 0.000000 -2.161540 0.974637
v 0.000000 -2.225990 0.942903
v 0.027747 -2.086775 0.985552
v 0.046152 -2.155465 0.974637
v 0.062833 -2.217718 0.942903
v 0.053603 -2.076065 0.985552
v 0.089159 -2.137650 0.974637
v 0.121383 -2.193465 0.942903
v 0.075805 -2.059029 0.985552
v 0.126089 -2.109313 0.974637
v 0.171662 -2.154885 0.942903
v 0.092842 -2.036825 0.985552
v 0.154427 -2.072382 0.974637
v 0.210242 -2.104606 0.942904
v 0.103552 -2.010970 0.985552
v 0.172241 -2.029375 0.974637
v 0.234494 -2.046056 0.942904
v 0.107205 -1.983223 0.985551
v 0.178317 -1.983223 0.974637
v 0.242766 -1.983223 0.942903
v 0.306143 -1.901192 0.867216
v 0.274480 -1.824752 0.867216
v 0.224112 -1.759111 0.867216
v 0.158471 -1.708743 0.867216
v 0.082031 -1.677080 0.867216
v 0.000000 -1.666281 0.867216
v -0.082031 -1.677080 0.867216
v -0.158471 -1.708743 0.867216
v -0.224112 -1.759111 0.867216
v -0.274480 -1.824752 0.867216
v -0.306143 -1.901192 0.867216
v -0.316942 -1.983223 0.867216
v -0.306143 -2.065254 0.867216
v -0.274480 -2.141694 0.867216
v -0.224112 -2.207335 0.867216
v -0.158471 -2.257703 0.867216
v -0.082031 -2.289366 0.867216
v -0.000000 -2.300165 0.867216
v 0.082031 -2.289366 0.867216
v 0.158471 -2.257703 0.867216
v 0.224112 -2.207335 0.867216
v 0.274480 -2.141694 0.867216
v 0.306143 -2.065254 0.867216
v 0.316942 -1.983223 0.867216
vt 0.644637 0.882245
vt 0.650926 0.884190
vt 0.635316 0.921875
vt 0.629678 0.918359
vt 0.610485 0.954235
vt 0.605881 0.949371
vt 0.578125 0.979066
vt 0.574869 0.973167
vt 0.540440 0.994676
vt 0.538755 0.988126
vt 0.500000 1.000000
vt 0.500000 0.993228
vt 0.459560 0.994676
vt 0.461245 0.988126
vt 0.421875 0.979066
vt 0.425131 0.973167
vt 0.389515 0.954235
vt 0.394119 0.949371
vt 0.364684 0.921875
vt 0.370323 0.918359
vt 0.349074 0.884190
vt 0.355364 0.882245
vt 0.343750 0.843750
vt 0.350261 0.843490
vt 0.349074 0.803310
vt 0.355363 0.804734
vt 0.364684 0.765625
vt 0.370323 0.768620
vt 0.389515 0.733265
vt 0.394119 0.737608
vt 0.421875 0.708434
vt 0.425131 0.713812
vt 0.459560 0.692824
vt 0.461245 0.698853
vt 0.500000 0.687500
vt 0.500000 0.693751
vt 0.540440 0.692824
vt 0.538755 0.698853
vt 0.578125 0.708434
vt 0.574869 0.713812
vt 0.610485 0.733265
vt 0.605881 0.737608
vt 0.635316 0.765625
vt 0.629677 0.768620
vt 0.650926 0.803310
vt 0.644637 0.804734
vt 0.656250 0.843750
vt 0.649739 0.843490
vt 0.629678 0.918359
vt 0.629678 0.918359
vt 0.644637 0.882245
vt 0.644637 0.882245
vt 0.576465 0.885179
vt 0.585285 0.863884
vt 0.500000 0.837500
vt 0.562433 0.903465
vt 0.544147 0.917496
vt 0.522852 0.926317
vt 0.500000 0.929325
vt 0.477148 0.926317
vt 0.455853 0.917496
vt 0.437567 0.903465
vt 0.423535 0.885178
vt 0.414715 0.863884
vt 0.411706 0.841032
vt 0.414715 0.818180
vt 0.423536 0.796885
vt 0.437567 0.778599
vt 0.455853 0.764567
vt 0.477148 0.755747
vt 0.500000 0.752738
vt 0.522852 0.755747
vt 0.544147 0.764567
vt 0.562433 0.778599
vt 0.576465 0.796885
vt 0.585285 0.818180
vt 0.588294 0.841032
vt 0.605881 0.949371
vt 0.574869 0.973167
vt 0.538755 0.988126
vt 0.500000 0.993228
vt 0.461245 0.988126
vt 0.425131 0.973167
vt 0.394119 0.949371
vt 0.370323 0.918359
vt 0.355364 0.882245
vt 0.350261 0.843490
vt 0.355363 0.804734
vt 0.370323 0.768620
vt 0.394119 0.737608
vt 0.425131 0.713812
vt 0.461245 0.698853
vt 0.500000 0.693751
vt 0.538755 0.698853
vt 0.574869 0.713812
vt 0.605881 0.737608
vt 0.629677 0.768620
vt 0.644637 0.804734
vt 0.649739 0.843490
vt 0.605881 0.949371
vt 0.574869 0.973167
vt 0.538755 0.988126
vt 0.500000 0.993228
vt 0.461245 0.988126
vt 0.425131 0.973167
vt 0.394119 0.949371
vt 0.370323 0.918359
vt 0.355364 0.882245
vt 0.350261 0.843490
vt 0.355363 0.804734
vt 0.370323 0.768620
vt 0.394119 0.737608
vt 0.425131 0.713812
vt 0.461245 0.698853
vt 0.500000 0.693751
vt 0.538755 0.698853
vt 0.574869 0.713812
vt 0.605881 0.737608
vt 0.629677 0.768620
vt 0.644637 0.804734
vt 0.649739 0.843490
vn 0.896882 0.240320 0.371279
vn 0.896882 0.240320 0.371279
vn 0.804121 0.464263 0.371280
vn 0.804121 0.464262 0.371280
vn 0.656563 0.656564 0.371280
vn 0.656564 0.656564 0.371279
vn 0.464263 0.804122 0.371278
vn 0.464263 0.804122 0.371278
vn 0.240321 0.896883 0.371278
vn 0.240321 0.896883 0.371278
vn -0.000000 0.928522 0.371278
vn 0.000000 0.928522 0.371278
vn -0.240321 0.896882 0.371279
vn -0.240321 0.896882 0.371279
vn -0.464262 0.804123 0.371279
vn -0.464262 0.804123 0.371279
vn -0.656564 0.656564 0.371279
vn -0.656564 0.656564 0.371279
vn -0.804122 0.464262 0.371280
vn -0.804122 0.464261 0.371280
vn -0.896882 0.240320 0.371279
vn -0.896882 0.240321 0.371279
vn -0.928522 0.000000 0.371277
vn -0.928522 0.000000 0.371277
vn -0.896882 -0.240320 0.371279
vn -0.896882 -0.240321 0.371279
vn -0.804122 -0.464262 0.371279
vn -0.804122 -0.464262 0.371279
vn -0.656564 -0.656564 0.371278
vn -0.656564 -0.656564 0.371278
vn -0.464264 -0.804123 0.371276
vn -0.464264 -0.804123 0.371276
vn -0.240321 -0.896884 0.371274
vn -0.240321 -0.896884 0.371274
vn -0.000000 -0.928524 0.371273
vn -0.000000 -0.928524 0.371273
vn 0.240321 -0.896885 0.371273
vn 0.240321 -0.896885 0.371273
vn 0.464262 -0.804124 0.371275
vn 0.464262 -0.804124 0.371276
vn 0.656564 -0.656564 0.371278
vn 0.656564 -0.656564 0.371278
vn 0.804123 -0.464261 0.371279
vn 0.804123 -0.464262 0.371279
vn 0.896883 -0.240320 0.371279
vn 0.896883 -0.240320 0.371279
vn 0.928522 0.000000 0.371278
vn 0.928522 0.000000 0.371278
vn 0.452249 0.261108 0.852815
vn 0.292656 0.168966 0.941171
vn 0.326417 0.087462 0.941171
vn 0.504418 0.135158 0.852816
vn 0.089306 0.051562 0.994669
vn 0.099609 0.026688 0.994669
vn -0.000000 -0.000000 1.000000
vn 0.072919 0.072918 0.994669
vn 0.051561 0.089306 0.994669
vn 0.026687 0.099609 0.994669
vn 0.000000 0.103122 0.994669
vn -0.026689 0.099608 0.994669
vn -0.051560 0.089307 0.994669
vn -0.072918 0.072918 0.994669
vn -0.089307 0.051560 0.994669
vn -0.099608 0.026691 0.994669
vn -0.103122 0.000000 0.994669
vn -0.099608 -0.026691 0.994669
vn -0.089306 -0.051561 0.994669
vn -0.072918 -0.072918 0.994669
vn -0.051561 -0.089306 0.994669
vn -0.026691 -0.099608 0.994669
vn 0.000000 -0.103122 0.994669
vn 0.026691 -0.099608 0.994669
vn 0.051561 -0.089305 0.994669
vn 0.072918 -0.072919 0.994669
vn 0.089306 -0.051562 0.994669
vn 0.099609 -0.026688 0.994669
vn 0.103123 -0.000000 0.994669
vn 0.553740 0.148374 0.819364
vn 0.496470 0.286639 0.819363
vn 0.405366 0.405367 0.819363
vn 0.369260 0.369261 0.852815
vn 0.286638 0.496469 0.819364
vn 0.261108 0.452249 0.852815
vn 0.148375 0.553739 0.819364
vn 0.135159 0.504418 0.852815
vn 0.000000 0.573274 0.819364
vn 0.000000 0.522213 0.852815
vn -0.148376 0.553739 0.819364
vn -0.135160 0.504418 0.852815
vn -0.286638 0.496469 0.819364
vn -0.261107 0.452250 0.852815
vn -0.405365 0.405366 0.819364
vn -0.369260 0.369261 0.852815
vn -0.496470 0.286637 0.819364
vn -0.452250 0.261107 0.852815
vn -0.553739 0.148375 0.819364
vn -0.504418 0.135159 0.852816
vn -0.573273 0.000000 0.819364
vn -0.522212 0.000000 0.852816
vn -0.553739 -0.148375 0.819364
vn -0.504418 -0.135159 0.852816
vn -0.496469 -0.286637 0.819364
vn -0.452249 -0.261107 0.852815
vn -0.405365 -0.405366 0.819364
vn -0.369260 -0.369261 0.852815
vn -0.286638 -0.496469 0.819364
vn -0.261108 -0.452249 0.852815
vn -0.148376 -0.553739 0.819364
vn -0.135160 -0.504418 0.852815
vn -0.000000 -0.573274 0.819364
vn 0.000000 -0.522213 0.852815
vn 0.148375 -0.553739 0.819365
vn 0.135159 -0.504418 0.852816
vn 0.286638 -0.496468 0.819364
vn 0.261107 -0.452249 0.852815
vn 0.405366 -0.405366 0.819364
vn 0.369260 -0.369261 0.852815
vn 0.496470 -0.286638 0.819363
vn 0.452249 -0.261107 0.852815
vn 0.553740 -0.148374 0.819364
vn 0.504419 -0.135158 0.852816
vn 0.573273 0.000000 0.819364
vn 0.522213 -0.000000 0.852815
vn 0.238954 0.238954 0.941170
vn 0.168966 0.292657 0.941171
vn 0.087463 0.326417 0.941171
vn 0.000000 0.337932 0.941171
vn -0.087464 0.326416 0.941171
vn -0.168966 0.292658 0.941171
vn -0.238953 0.238954 0.941171
vn -0.292658 0.168965 0.941171
vn -0.326417 0.087464 0.941171
vn -0.337931 0.000000 0.941171
vn -0.326417 -0.087464 0.941171
vn -0.292657 -0.168966 0.941171
vn -0.238954 -0.238954 0.941171
vn -0.168967 -0.292658 0.941170
vn -0.087464 -0.326417 0.941171
vn 0.000000 -0.337932 0.941171
vn 0.087463 -0.326418 0.941170
vn 0.168966 -0.292657 0.941171
vn 0.238954 -0.238954 0.941170
vn 0.292656 -0.168967 0.941171
vn 0.326417 -0.087462 0.941171
vn 0.337932 -0.000000 0.941171
s 1
g polySurface1 pCylinder19
usemtl phong6SG
f 1/1/1 98/2/2 99/3/3 2/4/4
f 2/4/4 99/3/3 100/5/5 3/6/6
f 3/6/6 100/5/5 101/7/7 4/8/8
f 4/8/8 101/7/7 102/9/9 5/10/10
f 5/10/10 102/9/9 103/11/11 6/12/12
f 6/12/12 103/11/11 104/13/13 7/14/14
f 7/14/14 104/13/13 105/15/15 8/16/16
f 8/16/16 105/15/15 106/17/17 9/18/18
f 9/18/18 106/17/17 107/19/19 10/20/20
f 10/20/20 107/19/19 108/21/21 11/22/22
f 11/22/22 108/21/21 109/23/23 12/24/24
f 12/24/24 109/23/23 110/25/25 13/26/26
f 13/26/26 110/25/25 111/27/27 14/28/28
f 14/28/28 111/27/27 112/29/29 15/30/30
f 15/30/30 112/29/29 113/31/31 16/32/32
f 16/32/32 113/31/31 114/33/33 17/34/34
f 17/34/34 114/33/33 115/35/35 18/36/36
f 18/36/36 115/35/35 116/37/37 19/38/38
f 19/38/38 116/37/37 117/39/39 20/40/40
f 20/40/40 117/39/39 118/41/41 21/42/42
f 21/42/42 118/41/41 119/43/43 22/44/44
f 22/44/44 119/43/43 120/45/45 23/46/46
f 23/46/46 120/45/45 121/47/47 24/48/48
f 98/2/2 1/1/1 24/48/48 121/47/47
s 2
f 28/49/49 27/50/50 30/51/51 29/52/52
f 27/50/50 26/53/53 31/54/54 30/51/51
f 31/54/54 26/53/53 25/55/55
f 26/53/53 32/56/56 25/55/55
f 32/56/56 35/57/57 25/55/55
f 35/57/57 38/58/58 25/55/55
f 38/58/58 41/59/59 25/55/55
f 41/59/59 44/60/60 25/55/55
f 44/60/60 47/61/61 25/55/55
f 47/61/61 50/62/62 25/55/55
f 50/62/62 53/63/63 25/55/55
f 53/63/63 56/64/64 25/55/55
f 56/64/64 59/65/65 25/55/55
f 59/65/65 62/66/66 25/55/55
f 62/66/66 65/67/67 25/55/55
f 65/67/67 68/68/68 25/55/55
f 68/68/68 71/69/69 25/55/55
f 71/69/69 74/70/70 25/55/55
f 74/70/70 77/71/71 25/55/55
f 77/71/71 80/72/72 25/55/55
f 80/72/72 83/73/73 25/55/55
f 83/73/73 86/74/74 25/55/55
f 86/74/74 89/75/75 25/55/55
f 89/75/75 92/76/76 25/55/55
f 92/76/76 95/77/77 25/55/55
f 95/77/77 31/54/54 25/55/55
f 1/1/78 2/4/79 28/49/49 29/52/52
f 2/4/79 3/6/80 34/78/81 28/49/49
f 3/6/80 4/8/82 37/79/83 34/78/81
f 4/8/82 5/10/84 40/80/85 37/79/83
f 5/10/84 6/12/86 43/81/87 40/80/85
f 6/12/86 7/14/88 46/82/89 43/81/87
f 7/14/88 8/16/90 49/83/91 46/82/89
f 8/16/90 9/18/92 52/84/93 49/83/91
f 9/18/92 10/20/94 55/85/95 52/84/93
f 10/20/94 11/22/96 58/86/97 55/85/95
f 11/22/96 12/24/98 61/87/99 58/86/97
f 12/24/98 13/26/100 64/88/101 61/87/99
f 13/26/100 14/28/102 67/89/103 64/88/101
f 14/28/102 15/30/104 70/90/105 67/89/103
f 15/30/104 16/32/106 73/91/107 70/90/105
f 16/32/106 17/34/108 76/92/109 73/91/107
f 17/34/108 18/36/110 79/93/111 76/92/109
f 18/36/110 19/38/112 82/94/113 79/93/111
f 19/38/112 20/40/114 85/95/115 82/94/113
f 20/40/114 21/42/116 88/96/117 85/95/115
f 21/42/116 22/44/118 91/97/119 88/96/117
f 22/44/118 23/46/120 94/98/121 91/97/119
f 23/46/120 24/48/122 97/99/123 94/98/121
f 24/48/122 1/1/78 29/52/52 97/99/123
f 26/53/53 27/50/50 33/100/124 32/56/56
f 27/50/50 28/49/49 34/78/81 33/100/124
f 32/56/56 33/100/124 36/101/125 35/57/57
f 33/100/124 34/78/81 37/79/83 36/101/125
f 35/57/57 36/101/125 39/102/126 38/58/58
f 36/101/125 37/79/83 40/80/85 39/102/126
f 38/58/58 39/102/126 42/103/127 41/59/59
f 39/102/126 40/80/85 43/81/87 42/103/127
f 41/59/59 42/103/127 45/104/128 44/60/60
f 42/103/127 43/81/87 46/82/89 45/104/128
f 44/60/60 45/104/128 48/105/129 47/61/61
f 45/104/128 46/82/89 49/83/91 48/105/129
f 47/61/61 48/105/129 51/106/130 50/62/62
f 48/105/129 49/83/91 52/84/93 51/106/130
f 50/62/62 51/106/130 54/107/131 53/63/63
f 51/106/130 52/84/93 55/85/95 54/107/131
f 53/63/63 54/107/131 57/108/132 56/64/64
f 54/107/131 55/85/95 58/86/97 57/108/132
f 56/64/64 57/108/132 60/109/133 59/65/65
f 57/108/132 58/86/97 61/87/99 60/109/133
f 59/65/65 60/109/133 63/110/134 62/66/66
f 60/109/133 61/87/99 64/88/101 63/110/134
f 62/66/66 63/110/134 66/111/135 65/67/67
f 63/110/134 64/88/101 67/89/103 66/111/135
f 65/67/67 66/111/135 69/112/136 68/68/68
f 66/111/135 67/89/103 70/90/105 69/112/136
f 68/68/68 69/112/136 72/113/137 71/69/69
f 69/112/136 70/90/105 73/91/107 72/113/137
f 71/69/69 72/113/137 75/114/138 74/70/70
f 72/113/137 73/91/107 76/92/109 75/114/138
f 74/70/70 75/114/138 78/115/139 77/71/71
f 75/114/138 76/92/109 79/93/111 78/115/139
f 77/71/71 78/115/139 81/116/140 80/72/72
f 78/115/139 79/93/111 82/94/113 81/116/140
f 80/72/72 81/116/140 84/117/141 83/73/73
f 81/116/140 82/94/113 85/95/115 84/117/141
f 83/73/73 84/117/141 87/118/142 86/74/74
f 84/117/141 85/95/115 88/96/117 87/118/142
f 86/74/74 87/118/142 90/119/143 89/75/75
f 87/118/142 88/96/117 91/97/119 90/119/143
f 89/75/75 90/119/143 93/120/144 92/76/76
f 90/119/143 91/97/119 94/98/121 93/120/144
f 92/76/76 93/120/144 96/121/145 95/77/77
f 93/120/144 94/98/121 97/99/123 96/121/145
f 29/52/52 30/51/51 96/121/145 97/99/123
f 30/51/51 31/54/54 95/77/77 96/121/145
