# This file uses centimeters as units for non-parametric coordinates.

mtllib 18.mtl
g default
v 0.737233 -1.690336 0.530164
v 0.681033 -1.634136 0.530164
v 0.604263 -1.613566 0.530164
v 0.527493 -1.634136 0.530164
v 0.471293 -1.690336 0.530164
v 0.450722 -1.767106 0.530164
v 0.471293 -1.843877 0.530164
v 0.527493 -1.900077 0.530164
v 0.604263 -1.920647 0.530164
v 0.681033 -1.900077 0.530164
v 0.737233 -1.843877 0.530164
v 0.757803 -1.767106 0.530164
v 0.682571 -1.721895 0.837245
v 0.676498 -1.725402 0.810698
v 0.645968 -1.694871 0.810698
v 0.649474 -1.688799 0.837245
v 0.604263 -1.683697 0.810698
v 0.604263 -1.676684 0.837245
v 0.562558 -1.694871 0.810698
v 0.559052 -1.688799 0.837245
v 0.532028 -1.725402 0.810698
v 0.525955 -1.721895 0.837245
v 0.520853 -1.767106 0.810698
v 0.513841 -1.767106 0.837245
v 0.532028 -1.808812 0.810698
v 0.525955 -1.812318 0.837245
v 0.562558 -1.839342 0.810698
v 0.559052 -1.845415 0.837245
v 0.604263 -1.850516 0.810698
v 0.604263 -1.857529 0.837245
v 0.645968 -1.839342 0.810698
v 0.649474 -1.845415 0.837245
v 0.676498 -1.808812 0.810698
v 0.682571 -1.812318 0.837245
v 0.687673 -1.767106 0.810698
v 0.694685 -1.767106 0.837245
v 0.737233 -1.690336 0.794572
v 0.726027 -1.696806 0.824746
v 0.698973 -1.712426 0.837245
v 0.681033 -1.634136 0.794572
v 0.674563 -1.645342 0.824746
v 0.658944 -1.672396 0.837245
v 0.604263 -1.613566 0.794572
v 0.604263 -1.626505 0.824746
v 0.604263 -1.657744 0.837245
v 0.527493 -1.634136 0.794572
v 0.533962 -1.645342 0.824746
v 0.549582 -1.672396 0.837245
v 0.471293 -1.690336 0.794572
v 0.482499 -1.696806 0.824746
v 0.509552 -1.712426 0.837245
v 0.450722 -1.767106 0.794572
v 0.463662 -1.767106 0.824746
v 0.494901 -1.767106 0.837245
v 0.471293 -1.843877 0.794572
v 0.482499 -1.837407 0.824746
v 0.509552 -1.821788 0.837245
v 0.527493 -1.900077 0.794572
v 0.533962 -1.888871 0.824746
v 0.549582 -1.861817 0.837245
v 0.604263 -1.920647 0.794572
v 0.604263 -1.907707 0.824746
v 0.604263 -1.876469 0.837245
v 0.681033 -1.900077 0.794572
v 0.674563 -1.888871 0.824746
v 0.658944 -1.861817 0.837245
v 0.737233 -1.843877 0.794572
v 0.726027 -1.837407 0.824746
v 0.698973 -1.821788 0.837245
v 0.757803 -1.767106 0.794572
v 0.744864 -1.767106 0.824746
v 0.713625 -1.767106 0.837245
vt 0.635316 0.921875
vt 0.635316 0.921875
vt 0.578125 0.979066
vt 0.578125 0.979066
vt 0.500000 1.000000
vt 0.500000 1.000000
vt 0.421875 0.979066
vt 0.421875 0.979066
vt 0.364684 0.921875
vt 0.364684 0.921875
vt 0.343750 0.843750
vt 0.343750 0.843750
vt 0.364684 0.765625
vt 0.364684 0.765625
vt 0.421875 0.708434
vt 0.421875 0.708434
vt 0.500000 0.687500
vt 0.500000 0.687500
vt 0.578125 0.708434
vt 0.578125 0.708434
vt 0.635316 0.765625
vt 0.635316 0.765625
vt 0.656250 0.843750
vt 0.656250 0.843750
vt 0.375000 0.312500
vt 0.395833 0.312500
vt 0.395833 0.636198
vt 0.375000 0.636198
vt 0.416667 0.312500
vt 0.416667 0.636198
vt 0.437500 0.312500
vt 0.437500 0.636198
vt 0.458333 0.312500
vt 0.458333 0.636198
vt 0.479167 0.312500
vt 0.479167 0.636198
vt 0.500000 0.312500
vt 0.500000 0.636198
vt 0.520833 0.312500
vt 0.520833 0.636198
vt 0.541667 0.312500
vt 0.541667 0.636198
vt 0.562500 0.312500
vt 0.562500 0.636198
vt 0.583333 0.312500
vt 0.583333 0.636198
vt 0.604167 0.312500
vt 0.604167 0.636198
vt 0.625000 0.312500
vt 0.625000 0.636198
vt 0.635316 0.921875
vt 0.578125 0.979066
vt 0.500000 1.000000
vt 0.421875 0.979066
vt 0.364683 0.921875
vt 0.343750 0.843750
vt 0.364684 0.765625
vt 0.421875 0.708434
vt 0.500000 0.687500
vt 0.578125 0.708434
vt 0.635316 0.765625
vt 0.656250 0.843750
vt 0.625000 0.688440
vt 0.604167 0.688440
vt 0.635316 0.921875
vt 0.656250 0.843750
vt 0.578125 0.979066
vt 0.375000 0.688440
vt 0.395833 0.688440
vt 0.500000 1.000000
vt 0.416667 0.688440
vt 0.421875 0.979066
vt 0.437500 0.688440
vt 0.364684 0.921875
vt 0.458333 0.688440
vt 0.343750 0.843750
vt 0.479167 0.688440
vt 0.364684 0.765625
vt 0.500000 0.688440
vt 0.421875 0.708434
vt 0.520833 0.688440
vt 0.500000 0.687500
vt 0.541667 0.688440
vt 0.578125 0.708434
vt 0.562500 0.688440
vt 0.635316 0.765625
vt 0.583333 0.688440
vn -0.837305 -0.483419 0.255394
vn -0.837305 -0.483419 0.255394
vn -0.483417 -0.837306 0.255395
vn -0.483419 -0.837305 0.255395
vn 0.000000 -0.966836 0.255398
vn 0.000000 -0.966836 0.255398
vn 0.483417 -0.837306 0.255396
vn 0.483418 -0.837305 0.255396
vn 0.837305 -0.483419 0.255394
vn 0.837306 -0.483418 0.255394
vn 0.966837 0.000000 0.255393
vn 0.966837 -0.000000 0.255393
vn 0.837307 0.483417 0.255393
vn 0.837306 0.483418 0.255393
vn 0.483418 0.837305 0.255395
vn 0.483418 0.837305 0.255395
vn 0.000000 0.966836 0.255398
vn 0.000000 0.966836 0.255398
vn -0.483418 0.837306 0.255394
vn -0.483419 0.837305 0.255394
vn -0.837306 0.483418 0.255392
vn -0.837306 0.483419 0.255392
vn -0.966837 0.000000 0.255394
vn -0.966837 -0.000000 0.255394
vn 0.707106 0.707107 -0.000000
vn 0.499999 0.866026 -0.000000
vn 0.499605 0.865342 0.039731
vn 0.865342 0.499605 0.039731
vn 0.258818 0.965926 -0.000000
vn 0.000000 0.999210 0.039731
vn -0.258818 0.965926 -0.000000
vn -0.499999 0.866026 -0.000000
vn -0.499605 0.865342 0.039731
vn -0.707106 0.707107 -0.000000
vn -0.865341 0.499606 0.039731
vn -0.965926 0.258819 -0.000000
vn -1.000000 0.000000 0.000000
vn -0.999210 0.000000 0.039731
vn -0.965926 -0.258819 0.000000
vn -0.865342 -0.499605 0.039731
vn -0.707107 -0.707106 0.000000
vn -0.500000 -0.866025 0.000000
vn -0.499605 -0.865342 0.039731
vn -0.258818 -0.965926 0.000000
vn 0.000000 -0.999210 0.039732
vn 0.258818 -0.965926 0.000000
vn 0.500000 -0.866025 0.000000
vn 0.499605 -0.865342 0.039732
vn 0.707107 -0.707106 0.000000
vn 0.865342 -0.499605 0.039731
vn 0.965926 -0.258818 0.000000
vn 0.965926 -0.258818 0.000000
vn 0.999210 0.000000 0.039731
vn 0.965926 0.258818 -0.000000
vn 0.965926 0.258818 -0.000000
vn 0.246118 0.142096 0.958767
vn 0.142097 0.246117 0.958767
vn 0.000000 0.000000 1.000000
vn 0.000000 0.000000 1.000000
vn 0.000000 0.284192 0.958767
vn 0.000000 0.000000 1.000000
vn -0.142096 0.246118 0.958767
vn 0.000000 0.000000 1.000000
vn -0.246118 0.142096 0.958767
vn 0.000000 0.000000 1.000000
vn -0.284192 0.000000 0.958767
vn 0.000000 -0.000000 1.000000
vn -0.246118 -0.142096 0.958767
vn 0.000000 -0.000000 1.000000
vn -0.142096 -0.246118 0.958767
vn 0.000000 -0.000000 1.000000
vn -0.000000 -0.284194 0.958767
vn 0.000000 0.000000 1.000000
vn 0.142096 -0.246118 0.958767
vn 0.000000 -0.000000 1.000000
vn 0.246118 -0.142096 0.958767
vn 0.000000 -0.000000 1.000000
vn 0.284192 0.000000 0.958767
vn 0.000000 0.000000 1.000000
vn 0.795929 0.459530 0.394117
vn 0.919061 0.000000 0.394116
vn 0.321699 0.185733 0.928447
vn 0.371466 -0.000000 0.928447
vn 0.185733 0.321699 0.928447
vn 0.459530 0.795930 0.394116
vn -0.000000 0.371466 0.928447
vn 0.000000 0.919062 0.394114
vn -0.185733 0.321699 0.928447
vn -0.459531 0.795930 0.394115
vn -0.321699 0.185733 0.928447
vn -0.795930 0.459530 0.394116
vn -0.371466 0.000000 0.928446
vn -0.919061 0.000000 0.394116
vn -0.321699 -0.185733 0.928447
vn -0.795930 -0.459530 0.394116
vn -0.185733 -0.321700 0.928446
vn -0.459530 -0.795929 0.394118
vn -0.000000 -0.371467 0.928446
vn 0.000000 -0.919059 0.394119
vn 0.185733 -0.321700 0.928446
vn 0.459529 -0.795929 0.394119
vn 0.321699 -0.185733 0.928447
vn 0.795929 -0.459530 0.394117
s 1
g polySurface4 pCylinder21
usemtl initialShadingGroup
f 14/1/1 13/2/2 16/3/3 15/4/4
f 15/4/4 16/3/3 18/5/5 17/6/6
f 17/6/6 18/5/5 20/7/7 19/8/8
f 19/8/8 20/7/7 22/9/9 21/10/10
f 21/10/10 22/9/9 24/11/11 23/12/12
f 23/12/12 24/11/11 26/13/13 25/14/14
f 25/14/14 26/13/13 28/15/15 27/16/16
f 27/16/16 28/15/15 30/17/17 29/18/18
f 29/18/18 30/17/17 32/19/19 31/20/20
f 31/20/20 32/19/19 34/21/21 33/22/22
f 33/22/22 34/21/21 36/23/23 35/24/24
f 13/2/2 14/1/1 35/24/24 36/23/23
s 2
f 1/25/25 2/26/26 40/27/27 37/28/28
f 2/26/26 3/29/29 43/30/30 40/27/27
f 3/29/31 4/31/32 46/32/33 43/30/30
f 4/31/32 5/33/34 49/34/35 46/32/33
f 5/33/36 6/35/37 52/36/38 49/34/35
f 6/35/37 7/37/39 55/38/40 52/36/38
f 7/37/41 8/39/42 58/40/43 55/38/40
f 8/39/42 9/41/44 61/42/45 58/40/43
f 9/41/46 10/43/47 64/44/48 61/42/45
f 10/43/47 11/45/49 67/46/50 64/44/48
f 11/45/51 12/47/52 70/48/53 67/46/50
f 12/47/54 1/49/55 37/50/28 70/48/53
s 9
f 39/51/56 42/52/57 16/3/58 13/2/59
f 42/52/57 45/53/60 18/5/61 16/3/58
f 45/53/60 48/54/62 20/7/63 18/5/61
f 48/54/62 51/55/64 22/9/65 20/7/63
f 51/55/64 54/56/66 24/11/67 22/9/65
f 54/56/66 57/57/68 26/13/69 24/11/67
f 57/57/68 60/58/70 28/15/71 26/13/69
f 60/58/70 63/59/72 30/17/73 28/15/71
f 63/59/72 66/60/74 32/19/75 30/17/73
f 66/60/74 69/61/76 34/21/77 32/19/75
f 69/61/76 72/62/78 36/23/79 34/21/77
f 72/62/78 39/51/56 13/2/59 36/23/79
s 2
f 37/50/28 38/63/80 71/64/81 70/48/53
s 9
f 38/65/82 39/51/56 72/62/78 71/66/83
f 39/51/56 38/65/82 41/67/84 42/52/57
s 2
f 38/68/80 37/28/28 40/27/27 41/69/85
s 9
f 42/52/57 41/67/84 44/70/86 45/53/60
s 2
f 41/69/85 40/27/27 43/30/30 44/71/87
s 9
f 45/53/60 44/70/86 47/72/88 48/54/62
s 2
f 44/71/87 43/30/30 46/32/33 47/73/89
s 9
f 48/54/62 47/72/88 50/74/90 51/55/64
s 2
f 47/73/89 46/32/33 49/34/35 50/75/91
s 9
f 51/55/64 50/74/90 53/76/92 54/56/66
s 2
f 50/75/91 49/34/35 52/36/38 53/77/93
s 9
f 54/56/66 53/76/92 56/78/94 57/57/68
s 2
f 53/77/93 52/36/38 55/38/40 56/79/95
s 9
f 57/57/68 56/78/94 59/80/96 60/58/70
s 2
f 56/79/95 55/38/40 58/40/43 59/81/97
s 9
f 60/58/70 59/80/96 62/82/98 63/59/72
s 2
f 59/81/97 58/40/43 61/42/45 62/83/99
s 9
f 63/59/72 62/82/98 65/84/100 66/60/74
s 2
f 62/83/99 61/42/45 64/44/48 65/85/101
s 9
f 66/60/74 65/84/100 68/86/102 69/61/76
s 2
f 65/85/101 64/44/48 67/46/50 68/87/103
s 9
f 69/61/76 68/86/102 71/66/83 72/62/78
s 2
f 68/87/103 67/46/50 70/48/53 71/64/81
