# This file uses centimeters as units for non-parametric coordinates.

mtllib 24.mtl
g default
v 4.413466 -0.399878 -0.236612
v 4.395227 -0.317141 -0.236612
v 4.356195 -0.241944 -0.236612
v 4.299032 -0.179412 -0.236612
v 4.227631 -0.133805 -0.236612
v 4.146860 -0.108232 -0.236612
v 4.062222 -0.104436 -0.236612
v 3.979485 -0.122675 -0.236612
v 3.904288 -0.161706 -0.236612
v 3.841756 -0.218870 -0.236612
v 3.796149 -0.290270 -0.236612
v 3.770576 -0.371042 -0.236612
v 3.766780 -0.455680 -0.236612
v 3.785019 -0.538416 -0.236612
v 3.824050 -0.613613 -0.236612
v 3.881213 -0.676146 -0.236611
v 3.952614 -0.721753 -0.236612
v 4.033386 -0.747325 -0.236612
v 4.118024 -0.751122 -0.236612
v 4.200761 -0.732883 -0.236612
v 4.275957 -0.693852 -0.236612
v 4.338490 -0.636688 -0.236612
v 4.384097 -0.565287 -0.236612
v 4.409670 -0.484516 -0.236612
v 4.327860 -0.407265 0.109987
v 4.318350 -0.408085 0.086114
v 4.305476 -0.349687 0.086114
v 4.314450 -0.346432 0.109987
v 4.277926 -0.296610 0.086114
v 4.285753 -0.291144 0.109987
v 4.237579 -0.252473 0.086114
v 4.243723 -0.245167 0.109987
v 4.187181 -0.220282 0.086114
v 4.191226 -0.211635 0.109987
v 4.130170 -0.202231 0.086114
v 4.131839 -0.192832 0.109987
v 4.070430 -0.199552 0.086114
v 4.069608 -0.190041 0.109987
v 4.012031 -0.212426 0.086114
v 4.008777 -0.203451 0.109987
v 3.958954 -0.239975 0.086114
v 3.953488 -0.232149 0.109987
v 3.914817 -0.280323 0.086114
v 3.907511 -0.274179 0.109987
v 3.882626 -0.330720 0.086114
v 3.873979 -0.326676 0.109987
v 3.864575 -0.387732 0.086114
v 3.855177 -0.386063 0.109987
v 3.861896 -0.447472 0.086114
v 3.852385 -0.448293 0.109987
v 3.874770 -0.505871 0.086114
v 3.865796 -0.509125 0.109987
v 3.902319 -0.558947 0.086114
v 3.894493 -0.564413 0.109987
v 3.942668 -0.603085 0.086114
v 3.936523 -0.610390 0.109987
v 3.993065 -0.635276 0.086114
v 3.989020 -0.643923 0.109987
v 4.050076 -0.653326 0.086114
v 4.048407 -0.662725 0.109987
v 4.109816 -0.656006 0.086114
v 4.110637 -0.665517 0.109987
v 4.168215 -0.643132 0.086114
v 4.171469 -0.652106 0.109987
v 4.221291 -0.615582 0.086114
v 4.226758 -0.623408 0.109987
v 4.265429 -0.575234 0.086114
v 4.272734 -0.581379 0.109987
v 4.297620 -0.524837 0.086114
v 4.306267 -0.528882 0.109987
v 4.315670 -0.467826 0.086114
v 4.325069 -0.469495 0.109987
v 4.413466 -0.399878 0.050362
v 4.395916 -0.401392 0.092523
v 4.353548 -0.405048 0.109987
v 4.395227 -0.317141 0.050362
v 4.378667 -0.323146 0.092523
v 4.338689 -0.337643 0.109987
v 4.356195 -0.241944 0.050362
v 4.341754 -0.252030 0.092523
v 4.306890 -0.276381 0.109987
v 4.299032 -0.179412 0.050361
v 4.287693 -0.192892 0.092523
v 4.260319 -0.225436 0.109987
v 4.227631 -0.133805 0.050362
v 4.220168 -0.149760 0.092523
v 4.202150 -0.188280 0.109987
v 4.146860 -0.108232 0.050361
v 4.143781 -0.125575 0.092523
v 4.136346 -0.167446 0.109987
v 4.062222 -0.104436 0.050361
v 4.063736 -0.121985 0.092523
v 4.067392 -0.164353 0.109987
v 3.979485 -0.122675 0.050361
v 3.985490 -0.139234 0.092523
v 3.999987 -0.179213 0.109987
v 3.904288 -0.161706 0.050361
v 3.914374 -0.176147 0.092523
v 3.938725 -0.211011 0.109987
v 3.841756 -0.218870 0.050362
v 3.855236 -0.230208 0.092523
v 3.887780 -0.257582 0.109987
v 3.796149 -0.290270 0.050362
v 3.812105 -0.297733 0.092523
v 3.850624 -0.315751 0.109987
v 3.770576 -0.371042 0.050362
v 3.787920 -0.374121 0.092523
v 3.829790 -0.381555 0.109987
v 3.766780 -0.455680 0.050362
v 3.784329 -0.454165 0.092523
v 3.826698 -0.450510 0.109987
v 3.785019 -0.538416 0.050361
v 3.801578 -0.532411 0.092523
v 3.841557 -0.517914 0.109987
v 3.824050 -0.613613 0.050362
v 3.838491 -0.603527 0.092523
v 3.873355 -0.579177 0.109987
v 3.881214 -0.676146 0.050361
v 3.892552 -0.662666 0.092523
v 3.919926 -0.630122 0.109987
v 3.952614 -0.721753 0.050361
v 3.960078 -0.705797 0.092523
v 3.978096 -0.667277 0.109987
v 4.033386 -0.747325 0.050361
v 4.036466 -0.729982 0.092523
v 4.043900 -0.688111 0.109987
v 4.118024 -0.751122 0.050362
v 4.116510 -0.733572 0.092523
v 4.112854 -0.691204 0.109987
v 4.200761 -0.732883 0.050361
v 4.194756 -0.716323 0.092523
v 4.180258 -0.676345 0.109987
v 4.275957 -0.693852 0.050361
v 4.265871 -0.679410 0.092523
v 4.241521 -0.644546 0.109987
v 4.338490 -0.636688 0.050361
v 4.325010 -0.625349 0.092523
v 4.292466 -0.597976 0.109987
v 4.384097 -0.565287 0.050362
v 4.368142 -0.557824 0.092523
v 4.329621 -0.539806 0.109987
v 4.409670 -0.484516 0.050361
v 4.392326 -0.481436 0.092523
v 4.350455 -0.474002 0.109987
vt 0.650926 0.884190
vt 0.650926 0.884190
vt 0.635316 0.921875
vt 0.635316 0.921875
vt 0.610485 0.954235
vt 0.610485 0.954235
vt 0.578125 0.979066
vt 0.578125 0.979066
vt 0.540440 0.994676
vt 0.540440 0.994676
vt 0.500000 1.000000
vt 0.500000 1.000000
vt 0.459560 0.994676
vt 0.459560 0.994676
vt 0.421875 0.979066
vt 0.421875 0.979066
vt 0.389515 0.954235
vt 0.389515 0.954235
vt 0.364684 0.921875
vt 0.364684 0.921875
vt 0.349074 0.884190
vt 0.349074 0.884190
vt 0.343750 0.843750
vt 0.343750 0.843750
vt 0.349074 0.803310
vt 0.349074 0.803310
vt 0.364684 0.765625
vt 0.364684 0.765625
vt 0.389515 0.733265
vt 0.389515 0.733265
vt 0.421875 0.708434
vt 0.421875 0.708434
vt 0.459560 0.692824
vt 0.459560 0.692824
vt 0.500000 0.687500
vt 0.500000 0.687500
vt 0.540440 0.692824
vt 0.540440 0.692824
vt 0.578125 0.708434
vt 0.578125 0.708434
vt 0.610485 0.733265
vt 0.610485 0.733265
vt 0.635316 0.765625
vt 0.635316 0.765625
vt 0.650926 0.803310
vt 0.650926 0.803310
vt 0.656250 0.843750
vt 0.656250 0.843750
vt 0.375000 0.312500
vt 0.385417 0.312500
vt 0.385417 0.623767
vt 0.375000 0.623766
vt 0.395833 0.312500
vt 0.395833 0.623767
vt 0.406250 0.312500
vt 0.406250 0.623766
vt 0.416667 0.312500
vt 0.416667 0.623767
vt 0.427083 0.312500
vt 0.427083 0.623766
vt 0.437500 0.312500
vt 0.437500 0.623766
vt 0.447917 0.312500
vt 0.447917 0.623766
vt 0.458333 0.312500
vt 0.458333 0.623767
vt 0.468750 0.312500
vt 0.468750 0.623766
vt 0.479167 0.312500
vt 0.479167 0.623767
vt 0.489583 0.312500
vt 0.489583 0.623767
vt 0.500000 0.312500
vt 0.500000 0.623767
vt 0.510417 0.312500
vt 0.510417 0.623766
vt 0.520833 0.312500
vt 0.520833 0.623767
vt 0.531250 0.312500
vt 0.531250 0.623767
vt 0.541667 0.312500
vt 0.541667 0.623767
vt 0.552083 0.312500
vt 0.552083 0.623766
vt 0.562500 0.312500
vt 0.562500 0.623767
vt 0.572917 0.312500
vt 0.572917 0.623766
vt 0.583333 0.312500
vt 0.583333 0.623766
vt 0.593750 0.312500
vt 0.593750 0.623767
vt 0.604167 0.312500
vt 0.604167 0.623767
vt 0.614583 0.312500
vt 0.614583 0.623766
vt 0.625000 0.312500
vt 0.625000 0.623767
vt 0.650926 0.884190
vt 0.635316 0.921875
vt 0.610485 0.954235
vt 0.578125 0.979066
vt 0.540440 0.994676
vt 0.500000 1.000000
vt 0.459560 0.994676
vt 0.421875 0.979066
vt 0.389515 0.954235
vt 0.364684 0.921875
vt 0.349074 0.884190
vt 0.343750 0.843750
vt 0.349074 0.803310
vt 0.364684 0.765625
vt 0.389515 0.733265
vt 0.421875 0.708434
vt 0.459560 0.692824
vt 0.500000 0.687500
vt 0.540440 0.692824
vt 0.578125 0.708434
vt 0.610485 0.733265
vt 0.635316 0.765625
vt 0.650926 0.803310
vt 0.656250 0.843750
vt 0.625000 0.688440
vt 0.614583 0.688440
vt 0.650926 0.884190
vt 0.656250 0.843750
vt 0.635316 0.921875
vt 0.375000 0.688440
vt 0.385417 0.688440
vt 0.610485 0.954235
vt 0.395833 0.688440
vt 0.578125 0.979066
vt 0.406250 0.688440
vt 0.540440 0.994676
vt 0.416667 0.688440
vt 0.500000 1.000000
vt 0.427083 0.688440
vt 0.459560 0.994676
vt 0.437500 0.688440
vt 0.421875 0.979066
vt 0.447917 0.688440
vt 0.389515 0.954235
vt 0.458333 0.688440
vt 0.364684 0.921875
vt 0.468750 0.688440
vt 0.349074 0.884190
vt 0.479167 0.688440
vt 0.343750 0.843750
vt 0.489583 0.688440
vt 0.349074 0.803310
vt 0.500000 0.688440
vt 0.364684 0.765625
vt 0.510417 0.688440
vt 0.389515 0.733265
vt 0.520833 0.688440
vt 0.421875 0.708434
vt 0.531250 0.688440
vt 0.459560 0.692824
vt 0.541667 0.688440
vt 0.500000 0.687500
vt 0.552083 0.688440
vt 0.540440 0.692824
vt 0.562500 0.688440
vt 0.578125 0.708434
vt 0.572917 0.688440
vt 0.610485 0.733265
vt 0.583333 0.688440
vt 0.635316 0.765625
vt 0.593750 0.688440
vt 0.650926 0.803310
vt 0.604167 0.688440
vn -0.925085 -0.079827 0.371275
vn -0.925085 -0.079827 0.371275
vn -0.872900 -0.316536 0.371283
vn -0.872900 -0.316536 0.371283
vn -0.761233 -0.531669 0.371284
vn -0.761232 -0.531670 0.371284
vn -0.597690 -0.710577 0.371278
vn -0.597691 -0.710576 0.371278
vn -0.393412 -0.841058 0.371278
vn -0.393413 -0.841058 0.371278
vn -0.162324 -0.914222 0.371281
vn -0.162324 -0.914222 0.371281
vn 0.079826 -0.925083 0.371281
vn 0.079825 -0.925083 0.371281
vn 0.316534 -0.872903 0.371277
vn 0.316535 -0.872903 0.371277
vn 0.531674 -0.761235 0.371274
vn 0.531674 -0.761235 0.371274
vn 0.710578 -0.597689 0.371277
vn 0.710578 -0.597689 0.371277
vn 0.841058 -0.393412 0.371280
vn 0.841058 -0.393412 0.371280
vn 0.914222 -0.162324 0.371280
vn 0.914222 -0.162325 0.371280
vn 0.925083 0.079825 0.371281
vn 0.925083 0.079826 0.371281
vn 0.872901 0.316536 0.371280
vn 0.872901 0.316536 0.371280
vn 0.761233 0.531672 0.371280
vn 0.761233 0.531672 0.371280
vn 0.597689 0.710575 0.371282
vn 0.597690 0.710575 0.371282
vn 0.393413 0.841056 0.371282
vn 0.393412 0.841057 0.371282
vn 0.162324 0.914222 0.371281
vn 0.162324 0.914222 0.371281
vn -0.079825 0.925083 0.371281
vn -0.079825 0.925083 0.371281
vn -0.316534 0.872900 0.371284
vn -0.316534 0.872900 0.371284
vn -0.531672 0.761230 0.371287
vn -0.531670 0.761231 0.371287
vn -0.710576 0.597688 0.371283
vn -0.710576 0.597687 0.371283
vn -0.841058 0.393413 0.371277
vn -0.841059 0.393413 0.371278
vn -0.914224 0.162326 0.371274
vn -0.914224 0.162326 0.371274
vn 0.996297 0.085972 0.000000
vn 0.940099 0.340902 0.000000
vn 0.938858 0.340452 0.051350
vn 0.994983 0.085859 0.051351
vn 0.819835 0.572600 -0.000000
vn 0.818753 0.571844 0.051351
vn 0.643699 0.765278 -0.000000
vn 0.642850 0.764269 0.051350
vn 0.423697 0.905804 -0.000000
vn 0.423138 0.904609 0.051351
vn 0.174820 0.984600 -0.000000
vn 0.174590 0.983301 0.051350
vn -0.085970 0.996298 0.000000
vn -0.085857 0.994983 0.051351
vn -0.340901 0.940099 0.000000
vn -0.340451 0.938859 0.051350
vn -0.572600 0.819835 0.000000
vn -0.571845 0.818753 0.051350
vn -0.765278 0.643700 -0.000000
vn -0.764269 0.642850 0.051351
vn -0.905804 0.423696 -0.000000
vn -0.904609 0.423137 0.051351
vn -0.984601 0.174819 0.000000
vn -0.983302 0.174588 0.051351
vn -0.996298 -0.085969 -0.000000
vn -0.994983 -0.085855 0.051351
vn -0.940099 -0.340901 -0.000000
vn -0.938859 -0.340451 0.051350
vn -0.819834 -0.572601 0.000000
vn -0.818753 -0.571845 0.051351
vn -0.643700 -0.765278 0.000000
vn -0.642851 -0.764268 0.051351
vn -0.423696 -0.905804 0.000000
vn -0.423137 -0.904609 0.051351
vn -0.174820 -0.984600 0.000000
vn -0.174589 -0.983301 0.051350
vn 0.085970 -0.996298 -0.000000
vn 0.085856 -0.994983 0.051350
vn 0.340901 -0.940099 -0.000000
vn 0.340451 -0.938859 0.051351
vn 0.572600 -0.819835 -0.000000
vn 0.571845 -0.818753 0.051351
vn 0.765278 -0.643699 0.000000
vn 0.764269 -0.642850 0.051351
vn 0.905804 -0.423696 0.000000
vn 0.904609 -0.423137 0.051351
vn 0.984601 -0.174819 -0.000000
vn 0.983302 -0.174588 0.051351
vn 0.269937 0.023292 0.962596
vn 0.254710 0.092364 0.962596
vn 0.000000 0.000000 1.000000
vn 0.000000 -0.000000 1.000000
vn 0.222125 0.155140 0.962596
vn 0.000000 0.000000 1.000000
vn 0.174404 0.207344 0.962596
vn 0.000000 0.000000 1.000000
vn 0.114795 0.245417 0.962597
vn -0.000001 0.000000 1.000000
vn 0.047366 0.266766 0.962597
vn 0.000000 0.000000 1.000000
vn -0.023292 0.269935 0.962597
vn 0.000000 0.000000 1.000000
vn -0.092363 0.254708 0.962597
vn -0.000000 0.000000 1.000000
vn -0.155138 0.222125 0.962597
vn 0.000002 -0.000001 1.000000
vn -0.207343 0.174403 0.962597
vn 0.000002 -0.000001 1.000000
vn -0.245417 0.114795 0.962597
vn -0.000000 -0.000001 1.000000
vn -0.266767 0.047366 0.962596
vn -0.000002 0.000000 1.000000
vn -0.269935 -0.023292 0.962597
vn -0.000002 -0.000000 1.000000
vn -0.254708 -0.092363 0.962597
vn -0.000001 -0.000001 1.000000
vn -0.222124 -0.155140 0.962597
vn -0.000000 -0.000000 1.000000
vn -0.174403 -0.207344 0.962597
vn 0.000001 0.000000 1.000000
vn -0.114796 -0.245418 0.962596
vn 0.000001 0.000001 1.000000
vn -0.047366 -0.266766 0.962597
vn -0.000000 0.000001 1.000000
vn 0.023293 -0.269935 0.962597
vn -0.000000 -0.000000 1.000000
vn 0.092364 -0.254709 0.962597
vn 0.000001 0.000000 1.000000
vn 0.155140 -0.222126 0.962596
vn 0.000000 0.000000 1.000000
vn 0.207343 -0.174404 0.962597
vn -0.000000 -0.000001 1.000000
vn 0.245416 -0.114795 0.962597
vn 0.000000 0.000000 1.000000
vn 0.266766 -0.047365 0.962597
vn 0.000000 -0.000000 1.000000
vn 0.728142 0.062831 0.682541
vn 0.719593 -0.127765 0.682541
vn 0.687070 0.249147 0.682540
vn 0.599174 0.418484 0.682541
vn 0.470447 0.559302 0.682541
vn 0.309658 0.662004 0.682541
vn 0.127767 0.719594 0.682540
vn -0.062831 0.728142 0.682541
vn -0.249147 0.687069 0.682540
vn -0.418483 0.599176 0.682539
vn -0.559302 0.470446 0.682540
vn -0.662005 0.309657 0.682541
vn -0.719593 0.127767 0.682541
vn -0.728142 -0.062830 0.682540
vn -0.687069 -0.249147 0.682540
vn -0.599174 -0.418485 0.682540
vn -0.470447 -0.559302 0.682540
vn -0.309658 -0.662005 0.682540
vn -0.127767 -0.719594 0.682540
vn 0.062831 -0.728142 0.682540
vn 0.249148 -0.687069 0.682540
vn 0.418483 -0.599174 0.682541
vn 0.559301 -0.470447 0.682541
vn 0.662004 -0.309656 0.682542
s 1
g polySurface16 pCylinder28
usemtl initialShadingGroup
f 26/1/1 25/2/2 28/3/3 27/4/4
f 27/4/4 28/3/3 30/5/5 29/6/6
f 29/6/6 30/5/5 32/7/7 31/8/8
f 31/8/8 32/7/7 34/9/9 33/10/10
f 33/10/10 34/9/9 36/11/11 35/12/12
f 35/12/12 36/11/11 38/13/13 37/14/14
f 37/14/14 38/13/13 40/15/15 39/16/16
f 39/16/16 40/15/15 42/17/17 41/18/18
f 41/18/18 42/17/17 44/19/19 43/20/20
f 43/20/20 44/19/19 46/21/21 45/22/22
f 45/22/22 46/21/21 48/23/23 47/24/24
f 47/24/24 48/23/23 50/25/25 49/26/26
f 49/26/26 50/25/25 52/27/27 51/28/28
f 51/28/28 52/27/27 54/29/29 53/30/30
f 53/30/30 54/29/29 56/31/31 55/32/32
f 55/32/32 56/31/31 58/33/33 57/34/34
f 57/34/34 58/33/33 60/35/35 59/36/36
f 59/36/36 60/35/35 62/37/37 61/38/38
f 61/38/38 62/37/37 64/39/39 63/40/40
f 63/40/40 64/39/39 66/41/41 65/42/42
f 65/42/42 66/41/41 68/43/43 67/44/44
f 67/44/44 68/43/43 70/45/45 69/46/46
f 69/46/46 70/45/45 72/47/47 71/48/48
f 25/2/2 26/1/1 71/48/48 72/47/47
s 2
f 1/49/49 2/50/50 76/51/51 73/52/52
f 2/50/50 3/53/53 79/54/54 76/51/51
f 3/53/53 4/55/55 82/56/56 79/54/54
f 4/55/55 5/57/57 85/58/58 82/56/56
f 5/57/57 6/59/59 88/60/60 85/58/58
f 6/59/59 7/61/61 91/62/62 88/60/60
f 7/61/61 8/63/63 94/64/64 91/62/62
f 8/63/63 9/65/65 97/66/66 94/64/64
f 9/65/65 10/67/67 100/68/68 97/66/66
f 10/67/67 11/69/69 103/70/70 100/68/68
f 11/69/69 12/71/71 106/72/72 103/70/70
f 12/71/71 13/73/73 109/74/74 106/72/72
f 13/73/73 14/75/75 112/76/76 109/74/74
f 14/75/75 15/77/77 115/78/78 112/76/76
f 15/77/77 16/79/79 118/80/80 115/78/78
f 16/79/79 17/81/81 121/82/82 118/80/80
f 17/81/81 18/83/83 124/84/84 121/82/82
f 18/83/83 19/85/85 127/86/86 124/84/84
f 19/85/85 20/87/87 130/88/88 127/86/86
f 20/87/87 21/89/89 133/90/90 130/88/88
f 21/89/89 22/91/91 136/92/92 133/90/90
f 22/91/91 23/93/93 139/94/94 136/92/92
f 23/93/93 24/95/95 142/96/96 139/94/94
f 24/95/95 1/97/49 73/98/52 142/96/96
f 75/99/97 78/100/98 28/3/99 25/2/100
f 78/100/98 81/101/101 30/5/102 28/3/99
f 81/101/101 84/102/103 32/7/104 30/5/102
f 84/102/103 87/103/105 34/9/106 32/7/104
f 87/103/105 90/104/107 36/11/108 34/9/106
f 90/104/107 93/105/109 38/13/110 36/11/108
f 93/105/109 96/106/111 40/15/112 38/13/110
f 96/106/111 99/107/113 42/17/114 40/15/112
f 99/107/113 102/108/115 44/19/116 42/17/114
f 102/108/115 105/109/117 46/21/118 44/19/116
f 105/109/117 108/110/119 48/23/120 46/21/118
f 108/110/119 111/111/121 50/25/122 48/23/120
f 111/111/121 114/112/123 52/27/124 50/25/122
f 114/112/123 117/113/125 54/29/126 52/27/124
f 117/113/125 120/114/127 56/31/128 54/29/126
f 120/114/127 123/115/129 58/33/130 56/31/128
f 123/115/129 126/116/131 60/35/132 58/33/130
f 126/116/131 129/117/133 62/37/134 60/35/132
f 129/117/133 132/118/135 64/39/136 62/37/134
f 132/118/135 135/119/137 66/41/138 64/39/136
f 135/119/137 138/120/139 68/43/140 66/41/138
f 138/120/139 141/121/141 70/45/142 68/43/140
f 141/121/141 144/122/143 72/47/144 70/45/142
f 144/122/143 75/99/97 25/2/100 72/47/144
f 73/98/52 74/123/145 143/124/146 142/96/96
f 74/125/145 75/99/97 144/122/143 143/126/146
f 75/99/97 74/125/145 77/127/147 78/100/98
f 74/128/145 73/52/52 76/51/51 77/129/147
f 78/100/98 77/127/147 80/130/148 81/101/101
f 77/129/147 76/51/51 79/54/54 80/131/148
f 81/101/101 80/130/148 83/132/149 84/102/103
f 80/131/148 79/54/54 82/56/56 83/133/149
f 84/102/103 83/132/149 86/134/150 87/103/105
f 83/133/149 82/56/56 85/58/58 86/135/150
f 87/103/105 86/134/150 89/136/151 90/104/107
f 86/135/150 85/58/58 88/60/60 89/137/151
f 90/104/107 89/136/151 92/138/152 93/105/109
f 89/137/151 88/60/60 91/62/62 92/139/152
f 93/105/109 92/138/152 95/140/153 96/106/111
f 92/139/152 91/62/62 94/64/64 95/141/153
f 96/106/111 95/140/153 98/142/154 99/107/113
f 95/141/153 94/64/64 97/66/66 98/143/154
f 99/107/113 98/142/154 101/144/155 102/108/115
f 98/143/154 97/66/66 100/68/68 101/145/155
f 102/108/115 101/144/155 104/146/156 105/109/117
f 101/145/155 100/68/68 103/70/70 104/147/156
f 105/109/117 104/146/156 107/148/157 108/110/119
f 104/147/156 103/70/70 106/72/72 107/149/157
f 108/110/119 107/148/157 110/150/158 111/111/121
f 107/149/157 106/72/72 109/74/74 110/151/158
f 111/111/121 110/150/158 113/152/159 114/112/123
f 110/151/158 109/74/74 112/76/76 113/153/159
f 114/112/123 113/152/159 116/154/160 117/113/125
f 113/153/159 112/76/76 115/78/78 116/155/160
f 117/113/125 116/154/160 119/156/161 120/114/127
f 116/155/160 115/78/78 118/80/80 119/157/161
f 120/114/127 119/156/161 122/158/162 123/115/129
f 119/157/161 118/80/80 121/82/82 122/159/162
f 123/115/129 122/158/162 125/160/163 126/116/131
f 122/159/162 121/82/82 124/84/84 125/161/163
f 126/116/131 125/160/163 128/162/164 129/117/133
f 125/161/163 124/84/84 127/86/86 128/163/164
f 129/117/133 128/162/164 131/164/165 132/118/135
f 128/163/164 127/86/86 130/88/88 131/165/165
f 132/118/135 131/164/165 134/166/166 135/119/137
f 131/165/165 130/88/88 133/90/90 134/167/166
f 135/119/137 134/166/166 137/168/167 138/120/139
f 134/167/166 133/90/90 136/92/92 137/169/167
f 138/120/139 137/168/167 140/170/168 141/121/141
f 137/169/167 136/92/92 139/94/94 140/171/168
f 141/121/141 140/170/168 143/126/146 144/122/143
f 140/171/168 139/94/94 142/96/96 143/124/146
