# This file uses centimeters as units for non-parametric coordinates.

mtllib 27.mtl
g default
v 5.411369 0.238287 0.086859
v 5.384932 0.267697 0.086859
v 5.347332 0.279949 0.086859
v 5.308642 0.271760 0.086859
v 5.279231 0.245322 0.086859
v 5.266980 0.207722 0.086859
v 5.275169 0.169033 0.086859
v 5.301607 0.139622 0.086859
v 5.339207 0.127370 0.086859
v 5.377896 0.135560 0.086859
v 5.407307 0.161997 0.086859
v 5.419559 0.199598 0.086859
v 5.343269 0.203660 0.107828
v 5.349346 0.213000 0.107828
v 5.370772 0.245932 0.099077
v 5.388223 0.226518 0.099077
v 5.353203 0.208710 0.107828
v 5.343862 0.214787 0.107828
v 5.345950 0.254020 0.099077
v 5.338218 0.213593 0.107828
v 5.320412 0.248614 0.099077
v 5.333929 0.209737 0.107828
v 5.300997 0.231162 0.099077
v 5.332142 0.204252 0.107828
v 5.292909 0.206341 0.099077
v 5.333337 0.198609 0.107828
v 5.298316 0.180802 0.099077
v 5.337193 0.194319 0.107828
v 5.315767 0.161387 0.099077
v 5.342677 0.192532 0.107828
v 5.340588 0.153300 0.099077
v 5.348320 0.193727 0.107828
v 5.366127 0.158706 0.099077
v 5.352610 0.197583 0.107828
v 5.385542 0.176157 0.099077
v 5.354397 0.203067 0.107828
v 5.393630 0.200978 0.099077
v 5.417620 0.241465 0.060312
v 5.388756 0.273575 0.060312
v 5.347704 0.286952 0.060312
v 5.305465 0.278010 0.060312
v 5.273354 0.249146 0.060312
v 5.259977 0.208095 0.060312
v 5.268919 0.165854 0.060312
v 5.297783 0.133744 0.060312
v 5.338834 0.120368 0.060312
v 5.381075 0.129309 0.060312
v 5.413184 0.158173 0.060312
v 5.426562 0.199225 0.060312
vt 0.623940 0.914782
vt 0.635316 0.921875
vt 0.578125 0.979066
vt 0.571557 0.967165
vt 0.500000 1.000000
vt 0.500000 0.986339
vt 0.421875 0.979066
vt 0.428443 0.967165
vt 0.364684 0.921875
vt 0.376060 0.914782
vt 0.343750 0.843750
vt 0.356886 0.843225
vt 0.364684 0.765625
vt 0.376060 0.771668
vt 0.421875 0.708434
vt 0.428443 0.719284
vt 0.500000 0.687500
vt 0.500000 0.700110
vt 0.578125 0.708434
vt 0.571557 0.719284
vt 0.635316 0.765625
vt 0.623940 0.771668
vt 0.656250 0.843750
vt 0.643114 0.843225
vt 0.525050 0.882891
vt 0.571557 0.967165
vt 0.500000 0.986339
vt 0.500000 0.889604
vt 0.543387 0.864554
vt 0.623940 0.914782
vt 0.550099 0.839504
vt 0.643114 0.843225
vt 0.428443 0.967165
vt 0.474950 0.882891
vt 0.376060 0.914781
vt 0.456613 0.864554
vt 0.356886 0.843225
vt 0.449901 0.839504
vt 0.376060 0.771668
vt 0.456613 0.814454
vt 0.428443 0.719284
vt 0.474950 0.796116
vt 0.500000 0.700111
vt 0.500000 0.789404
vt 0.571557 0.719284
vt 0.525050 0.796116
vt 0.623940 0.771668
vt 0.543387 0.814455
vt 0.500000 0.837500
vn 0.861823 0.438221 0.255388
vn 0.861823 0.438222 0.255389
vn 0.527254 0.810421 0.255383
vn 0.527260 0.810418 0.255383
vn 0.051403 0.965471 0.255387
vn 0.051410 0.965471 0.255387
vn -0.438212 0.861829 0.255386
vn -0.438217 0.861826 0.255385
vn -0.810418 0.527259 0.255384
vn -0.810419 0.527258 0.255384
vn -0.965472 0.051407 0.255386
vn -0.965472 0.051407 0.255386
vn -0.861826 -0.438217 0.255387
vn -0.861826 -0.438215 0.255387
vn -0.527254 -0.810419 0.255389
vn -0.527255 -0.810419 0.255389
vn -0.051407 -0.965471 0.255390
vn -0.051407 -0.965471 0.255390
vn 0.438217 -0.861826 0.255386
vn 0.438218 -0.861826 0.255386
vn 0.810417 -0.527260 0.255383
vn 0.810420 -0.527256 0.255383
vn 0.965470 -0.051410 0.255392
vn 0.965470 -0.051410 0.255392
vn 0.114550 0.176072 0.977690
vn 0.195580 0.300615 0.933477
vn 0.019066 0.358131 0.933477
vn 0.011171 0.209758 0.977690
vn 0.187240 0.095208 0.977690
vn 0.319683 0.162552 0.933477
vn 0.209755 -0.011170 0.977690
vn 0.358131 -0.019067 0.933477
vn -0.162550 0.319685 0.933477
vn -0.095205 0.187241 0.977690
vn -0.300615 0.195580 0.933477
vn -0.176072 0.114550 0.977690
vn -0.358129 0.019066 0.933477
vn -0.209758 0.011163 0.977690
vn -0.319681 -0.162551 0.933478
vn -0.187239 -0.095208 0.977690
vn -0.195579 -0.300615 0.933477
vn -0.114552 -0.176071 0.977690
vn -0.019069 -0.358131 0.933477
vn -0.011169 -0.209758 0.977690
vn 0.162550 -0.319684 0.933477
vn 0.095208 -0.187239 0.977690
vn 0.300615 -0.195581 0.933477
vn 0.176069 -0.114550 0.977690
vn -0.000000 -0.000000 1.000000
vn 0.379502 0.192967 0.904844
vn 0.232173 0.356864 0.904845
vn 0.022640 0.425141 0.904844
vn -0.192967 0.379502 0.904844
vn -0.356864 0.232175 0.904844
vn -0.425140 0.022635 0.904845
vn -0.379498 -0.192965 0.904846
vn -0.232174 -0.356862 0.904845
vn -0.022637 -0.425140 0.904844
vn 0.192967 -0.379501 0.904844
vn 0.356865 -0.232178 0.904843
vn 0.425143 -0.022635 0.904843
s 1
g polySurface19 pCylinder26
usemtl initialShadingGroup
f 1/1/1 38/2/2 39/3/3 2/4/4
f 2/4/4 39/3/3 40/5/5 3/6/6
f 3/6/6 40/5/5 41/7/7 4/8/8
f 4/8/8 41/7/7 42/9/9 5/10/10
f 5/10/10 42/9/9 43/11/11 6/12/12
f 6/12/12 43/11/11 44/13/13 7/14/14
f 7/14/14 44/13/13 45/15/15 8/16/16
f 8/16/16 45/15/15 46/17/17 9/18/18
f 9/18/18 46/17/17 47/19/19 10/20/20
f 10/20/20 47/19/19 48/21/21 11/22/22
f 11/22/22 48/21/21 49/23/23 12/24/24
f 38/2/2 1/1/1 12/24/24 49/23/23
s 2
f 14/25/25 15/26/26 19/27/27 18/28/28
f 15/26/26 14/25/25 17/29/29 16/30/30
f 16/30/30 17/29/29 36/31/31 37/32/32
f 18/28/28 19/27/27 21/33/33 20/34/34
f 20/34/34 21/33/33 23/35/35 22/36/36
f 22/36/36 23/35/35 25/37/37 24/38/38
f 24/38/38 25/37/37 27/39/39 26/40/40
f 26/40/40 27/39/39 29/41/41 28/42/42
f 28/42/42 29/41/41 31/43/43 30/44/44
f 30/44/44 31/43/43 33/45/45 32/46/46
f 32/46/46 33/45/45 35/47/47 34/48/48
f 34/48/48 35/47/47 37/32/32 36/31/31
f 17/29/29 14/25/25 13/49/49
f 14/25/25 18/28/28 13/49/49
f 18/28/28 20/34/34 13/49/49
f 20/34/34 22/36/36 13/49/49
f 22/36/36 24/38/38 13/49/49
f 24/38/38 26/40/40 13/49/49
f 26/40/40 28/42/42 13/49/49
f 28/42/42 30/44/44 13/49/49
f 30/44/44 32/46/46 13/49/49
f 32/46/46 34/48/48 13/49/49
f 34/48/48 36/31/31 13/49/49
f 36/31/31 17/29/29 13/49/49
f 1/1/50 2/4/51 15/26/26 16/30/30
f 2/4/51 3/6/52 19/27/27 15/26/26
f 3/6/52 4/8/53 21/33/33 19/27/27
f 4/8/53 5/10/54 23/35/35 21/33/33
f 5/10/54 6/12/55 25/37/37 23/35/35
f 6/12/55 7/14/56 27/39/39 25/37/37
f 7/14/56 8/16/57 29/41/41 27/39/39
f 8/16/57 9/18/58 31/43/43 29/41/41
f 9/18/58 10/20/59 33/45/45 31/43/43
f 10/20/59 11/22/60 35/47/47 33/45/45
f 11/22/60 12/24/61 37/32/32 35/47/47
f 12/24/61 1/1/50 16/30/30 37/32/32
