# This file uses centimeters as units for non-parametric coordinates.

mtllib 31.mtl
g default
v 0.802404 0.859687 0.270223
v 1.133240 0.948334 0.270223
v 1.099023 1.030939 0.270223
v 1.044593 1.101875 0.270223
v 0.973657 1.156306 0.270223
v 0.891051 1.190522 0.270223
v 0.802404 1.202193 0.270223
v 0.713757 1.190522 0.270223
v 0.631151 1.156305 0.270223
v 0.560216 1.101875 0.270223
v 0.505785 1.030940 0.270223
v 0.471569 0.948334 0.270223
v 0.459898 0.859687 0.270223
v 0.471569 0.771039 0.270223
v 0.505785 0.688434 0.270223
v 0.560216 0.617498 0.270223
v 0.631151 0.563067 0.270223
v 0.713757 0.528851 0.270223
v 0.802404 0.517180 0.270223
v 0.891051 0.528851 0.270223
v 0.973657 0.563067 0.270223
v 1.044593 0.617498 0.270223
v 1.099023 0.688433 0.270223
v 1.133240 0.771039 0.270223
v 1.144910 0.859687 0.270223
v 1.143231 0.951011 0.250723
v 1.107981 1.036112 0.250723
v 1.051907 1.109189 0.250723
v 0.978829 1.165264 0.250723
v 0.893729 1.200513 0.250723
v 0.802404 1.212537 0.250723
v 0.711080 1.200513 0.250723
v 0.625979 1.165264 0.250723
v 0.552901 1.109189 0.250723
v 0.496827 1.036112 0.250723
v 0.461577 0.951011 0.250723
v 0.449554 0.859687 0.250723
v 0.461577 0.768362 0.250723
v 0.496827 0.683262 0.250723
v 0.552901 0.610184 0.250723
v 0.625979 0.554109 0.250723
v 0.711080 0.518859 0.250723
v 0.802404 0.506836 0.250723
v 0.893729 0.518859 0.250723
v 0.978829 0.554109 0.250723
v 1.051907 0.610184 0.250723
v 1.107981 0.683261 0.250723
v 1.143231 0.768362 0.250723
v 1.155255 0.859687 0.250723
vt 0.646501 0.882822
vt 0.650926 0.884190
vt 0.635316 0.921875
vt 0.631350 0.919402
vt 0.500000 0.837500
vt 0.607246 0.950813
vt 0.575835 0.974916
vt 0.539255 0.990068
vt 0.500000 0.995236
vt 0.460745 0.990068
vt 0.424165 0.974916
vt 0.392753 0.950813
vt 0.368650 0.919402
vt 0.353499 0.882822
vt 0.348331 0.843567
vt 0.353499 0.804312
vt 0.368651 0.767732
vt 0.392754 0.736320
vt 0.424165 0.712217
vt 0.460745 0.697065
vt 0.500000 0.691898
vt 0.539255 0.697066
vt 0.575835 0.712217
vt 0.607247 0.736320
vt 0.631350 0.767732
vt 0.646502 0.804312
vt 0.651670 0.843567
vt 0.610485 0.954235
vt 0.578125 0.979066
vt 0.540440 0.994676
vt 0.500000 1.000000
vt 0.459560 0.994676
vt 0.421875 0.979066
vt 0.389515 0.954235
vt 0.364684 0.921875
vt 0.349074 0.884190
vt 0.343750 0.843750
vt 0.349074 0.803310
vt 0.364684 0.765625
vt 0.389515 0.733265
vt 0.421875 0.708434
vt 0.459560 0.692824
vt 0.500000 0.687500
vt 0.540440 0.692824
vt 0.578125 0.708434
vt 0.610485 0.733265
vt 0.635316 0.765625
vt 0.650926 0.803310
vt 0.656250 0.843750
vn 0.853302 0.228643 0.468612
vn 0.853302 0.228643 0.468612
vn 0.765051 0.441703 0.468611
vn 0.765051 0.441703 0.468611
vn 0.000000 0.000000 1.000000
vn 0.000000 0.000000 1.000000
vn 0.000000 0.000000 1.000000
vn 0.000000 0.000000 1.000000
vn 0.000000 0.000000 1.000000
vn 0.000000 0.000000 1.000000
vn 0.000000 0.000000 1.000000
vn 0.000000 0.000000 1.000000
vn 0.000000 0.000000 1.000000
vn 0.000000 0.000000 1.000000
vn 0.000000 0.000000 1.000000
vn 0.000000 0.000000 1.000000
vn 0.000000 0.000000 1.000000
vn 0.000000 0.000000 1.000000
vn 0.000000 0.000000 1.000000
vn 0.000000 0.000000 1.000000
vn 0.000000 0.000000 1.000000
vn 0.000000 0.000000 1.000000
vn 0.000000 0.000000 1.000000
vn 0.000000 0.000000 1.000000
vn 0.000000 0.000000 1.000000
vn 0.000000 0.000000 1.000000
vn 0.000000 0.000000 1.000000
vn 0.000000 0.000000 1.000000
vn 0.000000 0.000000 1.000000
vn 0.624661 0.624661 0.468612
vn 0.624661 0.624661 0.468612
vn 0.441702 0.765050 0.468612
vn 0.441702 0.765050 0.468613
vn 0.228641 0.853303 0.468613
vn 0.228641 0.853303 0.468613
vn 0.000000 0.883404 0.468613
vn 0.000000 0.883404 0.468613
vn -0.228641 0.853302 0.468613
vn -0.228641 0.853302 0.468613
vn -0.441701 0.765050 0.468614
vn -0.441701 0.765050 0.468614
vn -0.624660 0.624661 0.468612
vn -0.624660 0.624661 0.468612
vn -0.765051 0.441702 0.468611
vn -0.765051 0.441702 0.468611
vn -0.853303 0.228642 0.468612
vn -0.853303 0.228642 0.468612
vn -0.883404 0.000000 0.468613
vn -0.883404 0.000000 0.468613
vn -0.853303 -0.228641 0.468612
vn -0.853303 -0.228642 0.468612
vn -0.765050 -0.441702 0.468613
vn -0.765050 -0.441702 0.468613
vn -0.624661 -0.624661 0.468612
vn -0.624661 -0.624661 0.468612
vn -0.441702 -0.765050 0.468612
vn -0.441702 -0.765050 0.468612
vn -0.228642 -0.853303 0.468611
vn -0.228642 -0.853303 0.468611
vn 0.000000 -0.883405 0.468611
vn 0.000000 -0.883405 0.468611
vn 0.228642 -0.853303 0.468612
vn 0.228642 -0.853303 0.468612
vn 0.441702 -0.765050 0.468613
vn 0.441702 -0.765050 0.468613
vn 0.624660 -0.624661 0.468613
vn 0.624660 -0.624661 0.468613
vn 0.765051 -0.441703 0.468611
vn 0.765051 -0.441703 0.468611
vn 0.853303 -0.228642 0.468611
vn 0.853303 -0.228642 0.468611
vn 0.883402 0.000000 0.468615
vn 0.883402 0.000000 0.468615
s 1
g polySurface31 pCylinder12
usemtl initialShadingGroup
f 2/1/1 26/2/2 27/3/3 3/4/4
s 2
f 2/1/5 3/4/6 1/5/7
f 3/4/6 4/6/8 1/5/7
f 4/6/8 5/7/9 1/5/7
f 5/7/9 6/8/10 1/5/7
f 6/8/10 7/9/11 1/5/7
f 7/9/11 8/10/12 1/5/7
f 8/10/12 9/11/13 1/5/7
f 9/11/13 10/12/14 1/5/7
f 10/12/14 11/13/15 1/5/7
f 11/13/15 12/14/16 1/5/7
f 12/14/16 13/15/17 1/5/7
f 13/15/17 14/16/18 1/5/7
f 14/16/18 15/17/19 1/5/7
f 15/17/19 16/18/20 1/5/7
f 16/18/20 17/19/21 1/5/7
f 17/19/21 18/20/22 1/5/7
f 18/20/22 19/21/23 1/5/7
f 19/21/23 20/22/24 1/5/7
f 20/22/24 21/23/25 1/5/7
f 21/23/25 22/24/26 1/5/7
f 22/24/26 23/25/27 1/5/7
f 23/25/27 24/26/28 1/5/7
f 24/26/28 25/27/29 1/5/7
f 25/27/29 2/1/5 1/5/7
s 1
f 3/4/4 27/3/3 28/28/30 4/6/31
f 4/6/31 28/28/30 29/29/32 5/7/33
f 5/7/33 29/29/32 30/30/34 6/8/35
f 6/8/35 30/30/34 31/31/36 7/9/37
f 7/9/37 31/31/36 32/32/38 8/10/39
f 8/10/39 32/32/38 33/33/40 9/11/41
f 9/11/41 33/33/40 34/34/42 10/12/43
f 10/12/43 34/34/42 35/35/44 11/13/45
f 11/13/45 35/35/44 36/36/46 12/14/47
f 12/14/47 36/36/46 37/37/48 13/15/49
f 13/15/49 37/37/48 38/38/50 14/16/51
f 14/16/51 38/38/50 39/39/52 15/17/53
f 15/17/53 39/39/52 40/40/54 16/18/55
f 16/18/55 40/40/54 41/41/56 17/19/57
f 17/19/57 41/41/56 42/42/58 18/20/59
f 18/20/59 42/42/58 43/43/60 19/21/61
f 19/21/61 43/43/60 44/44/62 20/22/63
f 20/22/63 44/44/62 45/45/64 21/23/65
f 21/23/65 45/45/64 46/46/66 22/24/67
f 22/24/67 46/46/66 47/47/68 23/25/69
f 23/25/69 47/47/68 48/48/70 24/26/71
f 24/26/71 48/48/70 49/49/72 25/27/73
f 26/2/2 2/1/1 25/27/73 49/49/72
