# This file uses centimeters as units for non-parametric coordinates.

mtllib 33.mtl
g default
v 0.091169 -0.931222 0.516293
v 0.000000 -0.931222 0.489114
v -0.091169 -0.931222 0.516293
v -0.128932 -0.931222 0.581909
v -0.091169 -0.931222 0.647524
v 0.000000 -0.931222 0.674703
v 0.091169 -0.931222 0.647524
v 0.128932 -0.931222 0.581909
v 0.168457 -0.867519 0.460667
v 0.000000 -0.867519 0.410447
v -0.168457 -0.867519 0.460667
v -0.238235 -0.867519 0.581909
v -0.168457 -0.867519 0.703150
v 0.000000 -0.867519 0.753370
v 0.168457 -0.867519 0.703150
v 0.238235 -0.867519 0.581909
v 0.220100 -0.772181 0.423499
v 0.000000 -0.772181 0.357884
v -0.220100 -0.772181 0.423499
v -0.311269 -0.772181 0.581909
v -0.220100 -0.772181 0.740318
v 0.000000 -0.772181 0.805934
v 0.220100 -0.772181 0.740318
v 0.311269 -0.772181 0.581909
v 0.238235 -0.659721 0.390073
v 0.000000 -0.659721 0.319051
v -0.238235 -0.659721 0.390073
v -0.336915 -0.659721 0.561534
v -0.238235 -0.659721 0.732996
v 0.000000 -0.659721 0.804017
v 0.238235 -0.659721 0.732996
v 0.336915 -0.659721 0.561534
v 0.229738 -0.547262 0.381447
v 0.000000 -0.547262 0.315832
v -0.229738 -0.547262 0.381447
v -0.324899 -0.547262 0.539857
v -0.229738 -0.547262 0.698267
v 0.000000 -0.547262 0.763882
v 0.229738 -0.547262 0.698267
v 0.324899 -0.547262 0.539857
v 0.207564 -0.451924 0.371904
v -0.000000 -0.451924 0.316945
v -0.207564 -0.451924 0.371904
v -0.293539 -0.451924 0.504587
v -0.207564 -0.451924 0.637269
v -0.000000 -0.451924 0.692228
v 0.207564 -0.451924 0.637269
v 0.293539 -0.451924 0.504587
v 0.169137 -0.388221 0.391006
v -0.000000 -0.388221 0.349644
v -0.169137 -0.388221 0.391006
v -0.239196 -0.388221 0.490864
v -0.169137 -0.388221 0.590721
v -0.000000 -0.388221 0.632084
v 0.169137 -0.388221 0.590721
v 0.239196 -0.388221 0.490864
v 0.000000 -0.953591 0.581909
v 0.123742 -0.366410 0.424747
v -0.000000 -0.366410 0.397360
v 0.000000 -0.363677 0.490864
v -0.123742 -0.366410 0.424747
v -0.174997 -0.366410 0.490864
v -0.123742 -0.366410 0.556981
v -0.000000 -0.366410 0.584367
v 0.123742 -0.366410 0.556981
v 0.174997 -0.366410 0.490864
vt 0.000000 0.125000
vt 0.125000 0.125000
vt 0.250000 0.125000
vt 0.375000 0.125000
vt 0.500000 0.125000
vt 0.625000 0.125000
vt 0.750000 0.125000
vt 0.875000 0.125000
vt 1.000000 0.125000
vt 0.000000 0.250000
vt 0.125000 0.250000
vt 0.250000 0.250000
vt 0.375000 0.250000
vt 0.500000 0.250000
vt 0.625000 0.250000
vt 0.750000 0.250000
vt 0.875000 0.250000
vt 1.000000 0.250000
vt 0.000000 0.375000
vt 0.125000 0.375000
vt 0.250000 0.375000
vt 0.375000 0.375000
vt 0.500000 0.375000
vt 0.625000 0.375000
vt 0.750000 0.375000
vt 0.875000 0.375000
vt 1.000000 0.375000
vt 0.000000 0.500000
vt 0.125000 0.500000
vt 0.250000 0.500000
vt 0.375000 0.500000
vt 0.500000 0.500000
vt 0.625000 0.500000
vt 0.750000 0.500000
vt 0.875000 0.500000
vt 1.000000 0.500000
vt 0.000000 0.625000
vt 0.125000 0.625000
vt 0.250000 0.625000
vt 0.375000 0.625000
vt 0.500000 0.625000
vt 0.625000 0.625000
vt 0.750000 0.625000
vt 0.875000 0.625000
vt 1.000000 0.625000
vt 0.000000 0.750000
vt 0.125000 0.750000
vt 0.250000 0.750000
vt 0.375000 0.750000
vt 0.500000 0.750000
vt 0.625000 0.750000
vt 0.750000 0.750000
vt 0.875000 0.750000
vt 1.000000 0.750000
vt 0.000000 0.875000
vt 0.125000 0.875000
vt 0.250000 0.875000
vt 0.375000 0.875000
vt 0.500000 0.875000
vt 0.625000 0.875000
vt 0.750000 0.875000
vt 0.875000 0.875000
vt 1.000000 0.875000
vt 0.062500 0.000000
vt 0.187500 0.000000
vt 0.312500 0.000000
vt 0.437500 0.000000
vt 0.562500 0.000000
vt 0.687500 0.000000
vt 0.812500 0.000000
vt 0.937500 0.000000
vt 0.062500 1.000000
vt 0.187500 1.000000
vt 0.312500 1.000000
vt 0.437500 1.000000
vt 0.562500 1.000000
vt 0.687500 1.000000
vt 0.812500 1.000000
vt 0.937500 1.000000
vt 0.000000 0.875000
vt 0.125000 0.875000
vt 0.250000 0.875000
vt 0.375000 0.875000
vt 0.500000 0.875000
vt 0.625000 0.875000
vt 0.750000 0.875000
vt 0.875000 0.875000
vt 1.000000 0.875000
vn 0.288492 -0.853812 -0.433333
vn -0.000000 -0.827176 -0.561943
vn -0.000000 -0.589214 -0.807977
vn 0.446961 -0.634119 -0.630966
vn -0.288492 -0.853812 -0.433333
vn -0.446961 -0.634119 -0.630966
vn -0.454177 -0.890912 0.000000
vn -0.719079 -0.694929 0.000000
vn -0.288492 -0.853812 0.433333
vn -0.446961 -0.634119 0.630967
vn 0.000000 -0.827176 0.561943
vn 0.000000 -0.589214 0.807977
vn 0.288491 -0.853812 0.433333
vn 0.446961 -0.634119 0.630967
vn 0.454177 -0.890912 0.000000
vn 0.719079 -0.694929 -0.000000
vn 0.000000 -0.390396 -0.920647
vn 0.550184 -0.408175 -0.728485
vn -0.550184 -0.408175 -0.728485
vn -0.924641 -0.379552 0.031300
vn -0.558996 -0.254638 0.789103
vn -0.000000 -0.204025 0.978966
vn 0.558996 -0.254638 0.789103
vn 0.924641 -0.379552 0.031300
vn 0.000000 -0.183666 -0.982989
vn 0.576745 -0.167872 -0.799490
vn -0.576745 -0.167872 -0.799490
vn -0.998892 -0.046976 0.002951
vn -0.579324 0.123850 0.805633
vn -0.000000 0.174049 0.984737
vn 0.579324 0.123850 0.805633
vn 0.998892 -0.046976 0.002951
vn 0.000000 -0.028566 -0.999592
vn 0.575036 0.011751 -0.818044
vn -0.575036 0.011751 -0.818044
vn -0.974131 0.225502 0.014729
vn -0.518029 0.404589 0.753627
vn -0.000000 0.445623 0.895220
vn 0.518029 0.404589 0.753627
vn 0.974131 0.225502 0.014729
vn 0.000000 0.157958 -0.987446
vn 0.521386 0.206877 -0.827864
vn -0.521386 0.206877 -0.827864
vn -0.897983 0.437470 -0.047403
vn -0.456379 0.594154 0.662344
vn 0.000000 0.618471 0.785807
vn 0.456379 0.594154 0.662344
vn 0.897983 0.437470 -0.047403
vn -0.000000 0.610674 -0.791882
vn 0.378701 0.639215 -0.669320
vn -0.378701 0.639215 -0.669320
vn -0.661477 0.749407 -0.028937
vn -0.342610 0.755681 0.558180
vn -0.000000 0.746045 0.665895
vn 0.342610 0.755681 0.558180
vn 0.661477 0.749407 -0.028937
vn 0.000000 -1.000000 0.000000
vn 0.118757 0.963563 -0.239673
vn 0.000000 0.958479 -0.285163
vn 0.000000 1.000000 0.000000
vn -0.118757 0.963563 -0.239673
vn -0.225600 0.974220 -0.000000
vn -0.118757 0.963563 0.239673
vn 0.000000 0.958479 0.285163
vn 0.118757 0.963563 0.239673
vn 0.225600 0.974220 0.000000
s 1
g pSphere7
usemtl phong8SG
f 1/1/1 2/2/2 10/11/3 9/10/4
f 2/2/2 3/3/5 11/12/6 10/11/3
f 3/3/5 4/4/7 12/13/8 11/12/6
f 4/4/7 5/5/9 13/14/10 12/13/8
f 5/5/9 6/6/11 14/15/12 13/14/10
f 6/6/11 7/7/13 15/16/14 14/15/12
f 7/7/13 8/8/15 16/17/16 15/16/14
f 8/8/15 1/9/1 9/18/4 16/17/16
f 9/10/4 10/11/3 18/20/17 17/19/18
f 10/11/3 11/12/6 19/21/19 18/20/17
f 11/12/6 12/13/8 20/22/20 19/21/19
f 12/13/8 13/14/10 21/23/21 20/22/20
f 13/14/10 14/15/12 22/24/22 21/23/21
f 14/15/12 15/16/14 23/25/23 22/24/22
f 15/16/14 16/17/16 24/26/24 23/25/23
f 16/17/16 9/18/4 17/27/18 24/26/24
f 17/19/18 18/20/17 26/29/25 25/28/26
f 18/20/17 19/21/19 27/30/27 26/29/25
f 19/21/19 20/22/20 28/31/28 27/30/27
f 20/22/20 21/23/21 29/32/29 28/31/28
f 21/23/21 22/24/22 30/33/30 29/32/29
f 22/24/22 23/25/23 31/34/31 30/33/30
f 23/25/23 24/26/24 32/35/32 31/34/31
f 24/26/24 17/27/18 25/36/26 32/35/32
f 25/28/26 26/29/25 34/38/33 33/37/34
f 26/29/25 27/30/27 35/39/35 34/38/33
f 27/30/27 28/31/28 36/40/36 35/39/35
f 28/31/28 29/32/29 37/41/37 36/40/36
f 29/32/29 30/33/30 38/42/38 37/41/37
f 30/33/30 31/34/31 39/43/39 38/42/38
f 31/34/31 32/35/32 40/44/40 39/43/39
f 32/35/32 25/36/26 33/45/34 40/44/40
f 33/37/34 34/38/33 42/47/41 41/46/42
f 34/38/33 35/39/35 43/48/43 42/47/41
f 35/39/35 36/40/36 44/49/44 43/48/43
f 36/40/36 37/41/37 45/50/45 44/49/44
f 37/41/37 38/42/38 46/51/46 45/50/45
f 38/42/38 39/43/39 47/52/47 46/51/46
f 39/43/39 40/44/40 48/53/48 47/52/47
f 40/44/40 33/45/34 41/54/42 48/53/48
f 41/46/42 42/47/41 50/56/49 49/55/50
f 42/47/41 43/48/43 51/57/51 50/56/49
f 43/48/43 44/49/44 52/58/52 51/57/51
f 44/49/44 45/50/45 53/59/53 52/58/52
f 45/50/45 46/51/46 54/60/54 53/59/53
f 46/51/46 47/52/47 55/61/55 54/60/54
f 47/52/47 48/53/48 56/62/56 55/61/55
f 48/53/48 41/54/42 49/63/50 56/62/56
f 2/2/2 1/1/1 57/64/57
f 3/3/5 2/2/2 57/65/57
f 4/4/7 3/3/5 57/66/57
f 5/5/9 4/4/7 57/67/57
f 6/6/11 5/5/9 57/68/57
f 7/7/13 6/6/11 57/69/57
f 8/8/15 7/7/13 57/70/57
f 1/9/1 8/8/15 57/71/57
f 58/80/58 59/81/59 60/72/60
f 59/81/59 61/82/61 60/73/60
f 61/82/61 62/83/62 60/74/60
f 62/83/62 63/84/63 60/75/60
f 63/84/63 64/85/64 60/76/60
f 64/85/64 65/86/65 60/77/60
f 65/86/65 66/87/66 60/78/60
f 66/87/66 58/88/58 60/79/60
f 49/55/50 50/56/49 59/81/59 58/80/58
f 50/56/49 51/57/51 61/82/61 59/81/59
f 51/57/51 52/58/52 62/83/62 61/82/61
f 52/58/52 53/59/53 63/84/63 62/83/62
f 53/59/53 54/60/54 64/85/64 63/84/63
f 54/60/54 55/61/55 65/86/65 64/85/64
f 55/61/55 56/62/56 66/87/66 65/86/65
f 56/62/56 49/63/50 58/88/58 66/87/66
