# This file uses centimeters as units for non-parametric coordinates.

mtllib 35.mtl
g default
v -7.056673 2.459974 -0.277867
v -7.260087 2.459974 -0.481279
v -7.537954 2.459974 -0.555734
v -7.815820 2.459974 -0.481279
v -8.019233 2.459974 -0.277867
v -8.093687 2.459974 0.000000
v -8.019233 2.459974 0.277867
v -7.815820 2.459974 0.481279
v -7.537954 2.459974 0.555734
v -7.260087 2.459974 0.481279
v -7.056673 2.459974 0.277867
v -6.982220 2.459974 0.000000
v -7.130465 2.490988 -0.235264
v -7.302689 2.490988 -0.407489
v -7.537954 2.490988 -0.470527
v -7.773217 2.490988 -0.407489
v -7.945442 2.490988 -0.235264
v -8.008481 2.490988 0.000000
v -7.945442 2.490988 0.235264
v -7.773217 2.490988 0.407489
v -7.537954 2.490988 0.470527
v -7.302689 2.490988 0.407489
v -7.130465 2.490988 0.235264
v -7.067426 2.490988 0.000000
v -7.056673 2.515053 -0.277867
v -7.071339 2.531411 -0.269400
v -7.260087 2.515053 -0.481279
v -7.268554 2.531411 -0.466614
v -7.537954 2.515053 -0.555734
v -7.537954 2.531411 -0.538799
v -7.815820 2.515053 -0.481279
v -7.807353 2.531411 -0.466614
v -8.019233 2.515053 -0.277867
v -8.004567 2.531411 -0.269400
v -8.093687 2.515053 0.000000
v -8.076752 2.531411 0.000000
v -8.019233 2.515053 0.277867
v -8.004567 2.531411 0.269400
v -7.815820 2.515053 0.481279
v -7.807353 2.531411 0.466614
v -7.537954 2.515053 0.555734
v -7.537954 2.531411 0.538799
v -7.260087 2.515053 0.481279
v -7.268554 2.531411 0.466614
v -7.056673 2.515053 0.277867
v -7.071339 2.531411 0.269400
v -6.982220 2.515053 0.000000
v -6.999154 2.531411 -0.000000
v -7.115798 2.531411 -0.243731
v -7.130465 2.515053 -0.235264
v -7.294221 2.531411 -0.422154
v -7.302689 2.515053 -0.407489
v -7.537954 2.531411 -0.487462
v -7.537954 2.515053 -0.470527
v -7.781684 2.531411 -0.422154
v -7.773217 2.515053 -0.407489
v -7.960107 2.531411 -0.243731
v -7.945442 2.515053 -0.235264
v -8.025416 2.531411 0.000000
v -8.008481 2.515053 0.000000
v -7.960107 2.531411 0.243731
v -7.945442 2.515053 0.235264
v -7.781684 2.531411 0.422154
v -7.773217 2.515053 0.407489
v -7.537954 2.531411 0.487462
v -7.537954 2.515053 0.470527
v -7.294221 2.531411 0.422154
v -7.302689 2.515053 0.407489
v -7.115798 2.531411 0.243731
v -7.130465 2.515053 0.235264
v -7.050492 2.531411 0.000000
v -7.067426 2.515053 0.000000
v -7.093568 2.542002 0.256565
v -7.281388 2.542002 0.444384
v -7.537954 2.542002 0.513130
v -7.794519 2.542002 0.444384
v -7.982337 2.542002 0.256565
v -8.051084 2.542002 0.000000
v -7.982337 2.542002 -0.256565
v -7.794519 2.542002 -0.444384
v -7.537954 2.542002 -0.513130
v -7.281388 2.542002 -0.444384
v -7.093568 2.542002 -0.256565
v -7.024823 2.542002 -0.000000
vt 0.625000 0.629554
vt 0.624682 0.688440
vt 0.604484 0.688440
vt 0.375317 0.688440
vt 0.395516 0.688440
vt 0.396151 0.688440
vt 0.416349 0.688440
vt 0.416984 0.688440
vt 0.437183 0.688440
vt 0.437818 0.688440
vt 0.458016 0.688440
vt 0.458651 0.688440
vt 0.478849 0.688440
vt 0.479484 0.688440
vt 0.499683 0.688440
vt 0.500318 0.688440
vt 0.520516 0.688440
vt 0.521151 0.688440
vt 0.541349 0.688440
vt 0.541984 0.688440
vt 0.562183 0.688440
vt 0.562817 0.688440
vt 0.583016 0.688440
vt 0.583651 0.688440
vt 0.603849 0.688440
vt 0.375000 0.312501
vt 0.395833 0.312501
vt 0.375000 0.629554
vt 0.416667 0.312501
vt 0.395833 0.629554
vt 0.437500 0.312501
vt 0.416667 0.629554
vt 0.458333 0.312501
vt 0.437500 0.629554
vt 0.479167 0.312501
vt 0.458333 0.629554
vt 0.500000 0.312501
vt 0.479167 0.629554
vt 0.520833 0.312501
vt 0.500000 0.629554
vt 0.541667 0.312501
vt 0.520833 0.629554
vt 0.562500 0.312501
vt 0.541667 0.629554
vt 0.583333 0.312501
vt 0.562500 0.629554
vt 0.604167 0.312501
vt 0.583333 0.629554
vt 0.625000 0.312501
vt 0.604167 0.629554
vt 0.578125 0.979066
vt 0.635317 0.921875
vt 0.500000 1.000000
vt 0.578125 0.979066
vt 0.421875 0.979066
vt 0.500000 1.000000
vt 0.364684 0.921875
vt 0.421875 0.979066
vt 0.343750 0.843750
vt 0.364684 0.921875
vt 0.364684 0.765625
vt 0.343750 0.843750
vt 0.421875 0.708434
vt 0.364684 0.765625
vt 0.500000 0.687500
vt 0.421875 0.708434
vt 0.578125 0.708434
vt 0.500000 0.687500
vt 0.635316 0.765625
vt 0.578125 0.708434
vt 0.656250 0.843750
vt 0.635316 0.765625
vt 0.635316 0.921875
vt 0.656250 0.843750
vt 0.578125 0.979066
vt 0.635317 0.921875
vt 0.500000 1.000000
vt 0.578125 0.979066
vt 0.421875 0.979066
vt 0.500000 1.000000
vt 0.364684 0.921875
vt 0.421875 0.979066
vt 0.343750 0.843750
vt 0.364684 0.921875
vt 0.364684 0.765625
vt 0.343750 0.843750
vt 0.421875 0.708434
vt 0.364684 0.765625
vt 0.500000 0.687500
vt 0.421875 0.708434
vt 0.578125 0.708434
vt 0.500000 0.687500
vt 0.635316 0.765625
vt 0.578125 0.708434
vt 0.656250 0.843750
vt 0.635317 0.765625
vt 0.635316 0.921875
vt 0.656250 0.843750
vt 0.635316 0.765625
vt 0.578125 0.708434
vt 0.500000 0.687500
vt 0.421875 0.708434
vt 0.364684 0.765625
vt 0.343750 0.843750
vt 0.364684 0.921875
vt 0.421875 0.979066
vt 0.500000 1.000000
vt 0.578125 0.979066
vt 0.635316 0.921875
vt 0.656250 0.843750
vn 0.847187 0.207442 -0.489124
vn 0.484978 0.828490 -0.280001
vn 0.560005 0.828489 0.000001
vn 0.978248 0.207441 -0.000000
vn 0.489123 0.207443 -0.847187
vn 0.280000 0.828491 -0.484977
vn 0.000000 0.207444 -0.978247
vn 0.000000 0.828492 -0.560001
vn -0.489124 0.207444 -0.847187
vn -0.280000 0.828493 -0.484973
vn -0.847186 0.207445 -0.489123
vn -0.484972 0.828494 -0.279999
vn -0.978246 0.207446 0.000000
vn -0.559997 0.828494 0.000000
vn -0.847187 0.207445 0.489123
vn -0.484972 0.828494 0.279999
vn -0.489124 0.207444 0.847187
vn -0.280000 0.828493 0.484974
vn -0.000000 0.207444 0.978247
vn 0.000001 0.828490 0.560004
vn 0.489123 0.207443 0.847187
vn 0.280002 0.828488 0.484980
vn 0.847187 0.207442 0.489124
vn 0.484981 0.828488 0.280003
vn -0.441520 0.860280 0.254909
vn -0.789202 0.411762 0.455644
vn -0.911293 0.411759 -0.000000
vn -0.509823 0.860279 -0.000000
vn -0.254913 0.860279 0.441519
vn -0.455645 0.411761 0.789202
vn 0.000000 0.860279 0.509824
vn 0.000000 0.411756 0.911294
vn 0.254911 0.860278 0.441521
vn 0.455650 0.411749 0.789206
vn 0.441521 0.860278 0.254914
vn 0.789208 0.411747 0.455648
vn 0.509824 0.860279 0.000000
vn 0.911296 0.411752 0.000000
vn 0.441521 0.860278 -0.254914
vn 0.789208 0.411747 -0.455648
vn 0.254911 0.860278 -0.441522
vn 0.455650 0.411749 -0.789206
vn -0.000000 0.860277 -0.509827
vn -0.000000 0.411754 -0.911295
vn -0.254914 0.860277 -0.441522
vn -0.455645 0.411759 -0.789203
vn -0.441522 0.860279 -0.254910
vn -0.789203 0.411760 -0.455645
vn 0.866025 0.000000 -0.500000
vn 0.499999 0.000000 -0.866026
vn 0.000000 0.000000 -1.000000
vn -0.500000 0.000000 -0.866025
vn -0.866025 0.000000 -0.500000
vn -1.000000 0.000000 0.000000
vn -0.866025 0.000000 0.500000
vn -0.500000 0.000000 0.866025
vn -0.000000 0.000000 1.000000
vn 0.499999 0.000000 0.866026
vn 0.866025 0.000000 0.500000
vn 1.000000 0.000000 -0.000000
vn 0.036653 0.997310 -0.063482
vn 0.063483 0.997310 -0.036652
vn 0.000000 0.997310 -0.073303
vn -0.036651 0.997310 -0.063483
vn -0.063481 0.997310 -0.036651
vn -0.073303 0.997310 0.000000
vn -0.063481 0.997310 0.036651
vn -0.036651 0.997310 0.063483
vn 0.000000 0.997310 0.073303
vn 0.036653 0.997310 0.063482
vn 0.063483 0.997310 0.036652
vn 0.073302 0.997310 0.000000
vn -0.500000 0.000000 0.866025
vn -0.866026 0.000000 0.499998
vn -0.000000 0.000000 1.000000
vn 0.500000 0.000000 0.866025
vn 0.866025 0.000000 0.500000
vn 1.000000 0.000000 0.000000
vn 0.866025 0.000000 -0.500000
vn 0.500000 0.000000 -0.866025
vn -0.000000 0.000000 -1.000000
vn -0.500000 0.000000 -0.866025
vn -0.866026 0.000000 -0.499998
vn -1.000000 0.000000 -0.000000
s 1
g pCylinder67
usemtl initialShadingGroup
f 25/1/1 26/2/2 48/3/3 47/50/4
f 26/4/2 25/28/1 27/30/5 28/5/6
f 28/6/6 27/30/5 29/32/7 30/7/8
f 30/8/8 29/32/7 31/34/9 32/9/10
f 32/10/10 31/34/9 33/36/11 34/11/12
f 34/12/12 33/36/11 35/38/13 36/13/14
f 36/14/14 35/38/13 37/40/15 38/15/16
f 38/16/16 37/40/15 39/42/17 40/17/18
f 40/18/18 39/42/17 41/44/19 42/19/20
f 42/20/20 41/44/19 43/46/21 44/21/22
f 44/22/22 43/46/21 45/48/23 46/23/24
f 46/24/24 45/48/23 47/50/4 48/25/3
f 49/52/25 50/97/26 72/95/27 71/74/28
f 50/97/26 49/52/25 51/54/29 52/75/30
f 52/75/30 51/54/29 53/56/31 54/77/32
f 54/77/32 53/56/31 55/58/33 56/79/34
f 56/79/34 55/58/33 57/60/35 58/81/36
f 58/81/36 57/60/35 59/62/37 60/83/38
f 60/83/38 59/62/37 61/64/39 62/85/40
f 62/85/40 61/64/39 63/66/41 64/87/42
f 64/87/42 63/66/41 65/68/43 66/89/44
f 66/89/44 65/68/43 67/70/45 68/91/46
f 68/91/46 67/70/45 69/72/47 70/93/48
f 70/93/48 69/72/47 71/74/28 72/95/27
f 1/26/49 2/27/50 27/30/5 25/28/1
f 2/27/50 3/29/51 29/32/7 27/30/5
f 3/29/51 4/31/52 31/34/9 29/32/7
f 4/31/52 5/33/53 33/36/11 31/34/9
f 5/33/53 6/35/54 35/38/13 33/36/11
f 6/35/54 7/37/55 37/40/15 35/38/13
f 7/37/55 8/39/56 39/42/17 37/40/15
f 8/39/56 9/41/57 41/44/19 39/42/17
f 9/41/57 10/43/58 43/46/21 41/44/19
f 10/43/58 11/45/59 45/48/23 43/46/21
f 11/45/59 12/47/60 47/50/4 45/48/23
f 12/47/60 1/49/49 25/1/1 47/50/4
f 26/73/2 28/51/6 82/108/61 83/109/62
f 28/51/6 30/53/8 81/107/63 82/108/61
f 30/53/8 32/55/10 80/106/64 81/107/63
f 32/55/10 34/57/12 79/105/65 80/106/64
f 34/57/12 36/59/14 78/104/66 79/105/65
f 36/59/14 38/61/16 77/103/67 78/104/66
f 38/61/16 40/63/18 76/102/68 77/103/67
f 40/63/18 42/65/20 75/101/69 76/102/68
f 42/65/20 44/67/22 74/100/70 75/101/69
f 44/67/22 46/69/24 73/99/71 74/100/70
f 46/69/24 48/71/3 84/110/72 73/99/71
f 48/71/3 26/73/2 83/109/62 84/110/72
f 50/97/26 52/75/30 14/78/73 13/76/74
f 52/75/30 54/77/32 15/80/75 14/78/73
f 54/77/32 56/79/34 16/82/76 15/80/75
f 56/79/34 58/81/36 17/84/77 16/82/76
f 58/81/36 60/83/38 18/86/78 17/84/77
f 60/83/38 62/85/40 19/88/79 18/86/78
f 62/85/40 64/87/42 20/90/80 19/88/79
f 64/87/42 66/89/44 21/92/81 20/90/80
f 66/89/44 68/91/46 22/94/82 21/92/81
f 68/91/46 70/93/48 23/96/83 22/94/82
f 70/93/48 72/95/27 24/98/84 23/96/83
f 72/95/27 50/97/26 13/76/74 24/98/84
f 74/100/70 73/99/71 69/72/47 67/70/45
f 75/101/69 74/100/70 67/70/45 65/68/43
f 76/102/68 75/101/69 65/68/43 63/66/41
f 77/103/67 76/102/68 63/66/41 61/64/39
f 78/104/66 77/103/67 61/64/39 59/62/37
f 79/105/65 78/104/66 59/62/37 57/60/35
f 80/106/64 79/105/65 57/60/35 55/58/33
f 81/107/63 80/106/64 55/58/33 53/56/31
f 82/108/61 81/107/63 53/56/31 51/54/29
f 83/109/62 82/108/61 51/54/29 49/52/25
f 84/110/72 83/109/62 49/52/25 71/74/28
f 73/99/71 84/110/72 71/74/28 69/72/47
