# This file uses centimeters as units for non-parametric coordinates.

mtllib 36.mtl
g default
v -7.486458 2.478326 -0.089193
v -7.589449 2.478326 -0.089193
v -7.640945 2.478326 -0.000000
v -7.589449 2.478326 0.089193
v -7.486458 2.478326 0.089193
v -7.434962 2.478326 0.000000
v -7.478491 2.523388 -0.102991
v -7.597415 2.523388 -0.102991
v -7.656878 2.523388 -0.000000
v -7.597415 2.523388 0.102991
v -7.478491 2.523388 0.102991
v -7.419029 2.523388 0.000000
v -7.486458 2.568450 -0.089193
v -7.589449 2.568450 -0.089193
v -7.640945 2.568450 -0.000000
v -7.589449 2.568450 0.089193
v -7.486458 2.568450 0.089193
v -7.434962 2.568450 0.000000
v -7.508222 2.601438 -0.051496
v -7.567684 2.601438 -0.051496
v -7.597415 2.601438 -0.000000
v -7.567684 2.601438 0.051496
v -7.508222 2.601438 0.051496
v -7.478491 2.601438 0.000000
v -7.537953 2.613513 0.000000
vt 0.000000 0.333333
vt 0.166667 0.333333
vt 0.333333 0.333333
vt 0.500000 0.333333
vt 0.666667 0.333333
vt 0.833333 0.333333
vt 1.000000 0.333333
vt 0.000000 0.500000
vt 0.166667 0.500000
vt 0.333333 0.500000
vt 0.500000 0.500000
vt 0.666667 0.500000
vt 0.833333 0.500000
vt 1.000000 0.500000
vt 0.000000 0.666667
vt 0.166667 0.666667
vt 0.333333 0.666667
vt 0.500000 0.666667
vt 0.666667 0.666667
vt 0.833333 0.666667
vt 1.000000 0.666667
vt 0.000000 0.833333
vt 0.166667 0.833333
vt 0.333333 0.833333
vt 0.500000 0.833333
vt 0.666667 0.833333
vt 0.833333 0.833333
vt 1.000000 0.833333
vt 0.083333 1.000000
vt 0.250000 1.000000
vt 0.416667 1.000000
vt 0.583333 1.000000
vt 0.750000 1.000000
vt 0.916667 1.000000
vn 0.471402 -0.333349 -0.816492
vn -0.471402 -0.333349 -0.816492
vn -0.500000 -0.000000 -0.866026
vn 0.500000 0.000000 -0.866025
vn -0.942803 -0.333349 -0.000000
vn -1.000000 -0.000000 -0.000000
vn -0.471402 -0.333349 0.816492
vn -0.500000 -0.000000 0.866025
vn 0.471402 -0.333349 0.816492
vn 0.500000 -0.000000 0.866025
vn 0.942803 -0.333349 0.000000
vn 1.000000 -0.000000 0.000000
vn -0.427197 0.519624 -0.739928
vn 0.427197 0.519624 -0.739928
vn -0.854395 0.519624 -0.000000
vn -0.427197 0.519624 0.739928
vn 0.427197 0.519624 0.739928
vn 0.854395 0.519624 0.000000
vn -0.269776 0.841952 -0.467266
vn 0.269776 0.841952 -0.467266
vn -0.539552 0.841952 -0.000000
vn -0.269776 0.841952 0.467266
vn 0.269776 0.841952 0.467266
vn 0.539552 0.841952 0.000000
vn -0.000000 1.000000 0.000000
s 1
g pSphere9
usemtl initialShadingGroup
f 1/1/1 2/2/2 8/9/3 7/8/4
f 2/2/2 3/3/5 9/10/6 8/9/3
f 3/3/5 4/4/7 10/11/8 9/10/6
f 4/4/7 5/5/9 11/12/10 10/11/8
f 5/5/9 6/6/11 12/13/12 11/12/10
f 6/6/11 1/7/1 7/14/4 12/13/12
f 7/8/4 8/9/3 14/16/13 13/15/14
f 8/9/3 9/10/6 15/17/15 14/16/13
f 9/10/6 10/11/8 16/18/16 15/17/15
f 10/11/8 11/12/10 17/19/17 16/18/16
f 11/12/10 12/13/12 18/20/18 17/19/17
f 12/13/12 7/14/4 13/21/14 18/20/18
f 13/15/14 14/16/13 20/23/19 19/22/20
f 14/16/13 15/17/15 21/24/21 20/23/19
f 15/17/15 16/18/16 22/25/22 21/24/21
f 16/18/16 17/19/17 23/26/23 22/25/22
f 17/19/17 18/20/18 24/27/24 23/26/23
f 18/20/18 13/21/14 19/28/20 24/27/24
f 19/22/20 20/23/19 25/29/25
f 20/23/19 21/24/21 25/30/25
f 21/24/21 22/25/22 25/31/25
f 22/25/22 23/26/23 25/32/25
f 23/26/23 24/27/24 25/33/25
f 24/27/24 19/28/20 25/34/25
