# This file uses centimeters as units for non-parametric coordinates.

mtllib 37.mtl
g default
v -9.060809 2.611593 1.068064
v -9.000323 2.611593 1.102985
v -8.965990 2.615126 1.043515
v -9.026471 2.615126 1.008596
v -9.121292 2.611593 1.102985
v -9.095144 2.615126 1.008596
v -9.155625 2.615126 1.043515
v -9.121292 2.611593 1.172827
v -9.189960 2.615126 1.102988
v -9.189960 2.615126 1.172824
v -9.060809 2.611593 1.207748
v -9.155625 2.615126 1.232297
v -9.095144 2.615126 1.267216
v -9.000323 2.611593 1.172827
v -9.026471 2.615126 1.267216
v -8.965990 2.615126 1.232297
v -8.931654 2.615126 1.172824
v -8.931654 2.615126 1.102988
v -8.959997 2.634790 1.033135
v -9.020478 2.634790 0.998217
v -9.101137 2.634790 0.998217
v -9.161618 2.634790 1.033135
v -9.201943 2.634790 1.102988
v -9.201943 2.634790 1.172824
v -9.161618 2.634790 1.242677
v -9.101137 2.634790 1.277595
v -9.020478 2.634790 1.277595
v -8.959997 2.634790 1.242677
v -8.919668 2.634790 1.172824
v -8.919668 2.634790 1.102988
v -8.965990 2.654455 1.043515
v -9.026471 2.654455 1.008596
v -9.095144 2.654455 1.008596
v -9.155625 2.654455 1.043515
v -9.189960 2.654455 1.102988
v -9.189960 2.654455 1.172824
v -9.155625 2.654455 1.232297
v -9.095144 2.654455 1.267216
v -9.026471 2.654455 1.267216
v -8.965990 2.654455 1.232297
v -8.931654 2.654455 1.172824
v -8.931654 2.654455 1.102988
v -9.000323 2.667477 1.102985
v -9.060809 2.667477 1.068064
v -9.121292 2.667477 1.102985
v -9.121292 2.667477 1.172827
v -9.060809 2.667477 1.207748
v -9.000323 2.667477 1.172827
v -9.000323 2.569555 1.172827
v -9.060809 2.569555 1.207748
v -9.121292 2.569555 1.172827
v -9.121292 2.569555 1.102985
v -9.060809 2.569555 1.068064
v -9.000323 2.569555 1.102985
vt 0.027675 0.111317
vt 0.000000 0.166667
vt 0.000000 0.215442
vt 0.000000 0.333333
vt 0.000000 0.358636
vt 0.138992 0.111317
vt 0.083333 0.166661
vt 0.250005 0.166657
vt 0.416672 0.166657
vt 0.583337 0.166658
vt 0.750005 0.166657
vt 0.000000 0.618651
vt 0.000000 0.666667
vt 0.000000 0.740984
vt 0.000000 0.833333
vt 0.027675 0.888683
vt 0.083333 0.833339
vt 0.361156 0.861011
vt 0.222247 0.847177
vt 0.527824 0.861011
vt 0.416672 0.833343
vt 0.694489 0.861011
vt 0.583337 0.833342
vt 0.879660 0.851792
vt 0.750005 0.833343
vt 0.121660 0.333333
vt 0.249989 0.166667
vt 0.288324 0.333333
vt 0.416657 0.166667
vt 0.454993 0.333333
vt 0.583325 0.166667
vt 0.621659 0.333333
vt 0.749989 0.166667
vt 0.788324 0.333333
vt 0.916667 0.166660
vt 0.954994 0.333334
vt 0.045006 0.333333
vt 0.125003 0.500000
vt 0.211673 0.333334
vt 0.291671 0.500001
vt 0.378338 0.333333
vt 0.458334 0.500000
vt 0.545006 0.333333
vt 0.625004 0.500000
vt 0.711673 0.333333
vt 0.791670 0.500000
vt 0.878339 0.333333
vt 0.958333 0.500000
vt 0.041662 0.499998
vt 0.121660 0.666663
vt 0.208330 0.500000
vt 0.288327 0.666667
vt 0.374996 0.499994
vt 0.454993 0.666662
vt 0.541662 0.499997
vt 0.621660 0.666664
vt 0.708330 0.500000
vt 0.788327 0.666667
vt 0.874995 0.499999
vt 0.954993 0.666662
vt 0.045006 0.666663
vt 0.211673 0.666662
vt 0.378340 0.666667
vt 0.545006 0.666664
vt 0.711673 0.666662
vt 0.878340 0.666667
vt 0.916677 0.833333
vt 0.062326 0.042015
vt 0.083333 0.000000
vt 0.104341 0.042015
vt 0.104341 0.957985
vt 0.083333 1.000000
vt 0.062326 0.957985
vt 0.062326 0.042015
vt 0.083333 0.000000
vt 0.104341 0.042015
vt 0.138992 0.111317
vt 0.083333 0.166661
vt 0.027675 0.111317
vn 0.040139 -0.998925 -0.023174
vn -0.000000 -0.998925 -0.046348
vn 0.020006 -0.998658 -0.047775
vn 0.031372 -0.998658 -0.041214
vn 0.628452 -0.504189 -0.592319
vn 0.198740 -0.504174 -0.840423
vn 0.235750 -0.508864 -0.827937
vn 0.599141 -0.508875 -0.618123
vn -0.040139 -0.998925 -0.023174
vn -0.031372 -0.998658 -0.041214
vn -0.020006 -0.998658 -0.047776
vn -0.198740 -0.504174 -0.840423
vn -0.628470 -0.504160 -0.592324
vn -0.599155 -0.508851 -0.618129
vn -0.235750 -0.508864 -0.827937
vn -0.040139 -0.998925 0.023174
vn -0.051379 -0.998658 0.006562
vn -0.051379 -0.998658 -0.006562
vn -0.827239 -0.504112 -0.248085
vn -0.827239 -0.504113 0.248086
vn -0.834930 -0.508795 0.209808
vn -0.834931 -0.508794 -0.209808
vn -0.000000 -0.998925 0.046348
vn -0.020006 -0.998658 0.047776
vn -0.031372 -0.998658 0.041214
vn -0.628470 -0.504160 0.592324
vn -0.198739 -0.504164 0.840429
vn -0.235750 -0.508855 0.827942
vn -0.599152 -0.508851 0.618132
vn 0.040139 -0.998925 0.023174
vn 0.031372 -0.998658 0.041214
vn 0.020006 -0.998658 0.047776
vn 0.198739 -0.504164 0.840429
vn 0.628451 -0.504189 0.592319
vn 0.599139 -0.508875 0.618125
vn 0.235750 -0.508855 0.827942
vn 0.051379 -0.998658 -0.006562
vn 0.051379 -0.998658 0.006562
vn 0.827186 -0.504199 0.248086
vn 0.827187 -0.504198 -0.248086
vn 0.834877 -0.508886 -0.209797
vn 0.834876 -0.508888 0.209797
vn 0.599141 0.508875 -0.618123
vn 0.235750 0.508863 -0.827937
vn 0.198740 0.504174 -0.840423
vn 0.628452 0.504189 -0.592319
vn -0.235750 0.508863 -0.827937
vn -0.599155 0.508851 -0.618129
vn -0.628471 0.504160 -0.592324
vn -0.198740 0.504174 -0.840423
vn -0.834931 0.508793 -0.209808
vn -0.834930 0.508795 0.209808
vn -0.827239 0.504113 0.248086
vn -0.827240 0.504111 -0.248086
vn -0.599152 0.508851 0.618132
vn -0.235750 0.508855 0.827942
vn -0.198739 0.504164 0.840429
vn -0.628470 0.504160 0.592325
vn 0.235750 0.508855 0.827942
vn 0.599139 0.508875 0.618126
vn 0.628451 0.504189 0.592320
vn 0.198739 0.504164 0.840429
vn 0.834877 0.508887 0.209797
vn 0.834877 0.508886 -0.209797
vn 0.827187 0.504198 -0.248086
vn 0.827186 0.504199 0.248086
vn 0.113875 0.982208 -0.149331
vn 0.072387 0.982208 -0.173284
vn -0.000001 0.985706 -0.168476
vn 0.145904 0.985706 -0.084239
vn -0.072387 0.982208 -0.173285
vn -0.113877 0.982208 -0.149331
vn -0.145906 0.985705 -0.084238
vn -0.186265 0.982208 -0.023953
vn -0.186265 0.982208 0.023953
vn -0.145906 0.985705 0.084238
vn -0.113877 0.982208 0.149332
vn -0.072388 0.982208 0.173286
vn -0.000001 0.985706 0.168477
vn 0.072387 0.982208 0.173285
vn 0.113875 0.982208 0.149331
vn 0.145904 0.985706 0.084239
vn 0.186265 0.982208 0.023953
vn 0.186265 0.982208 -0.023953
vn 0.000000 1.000000 -0.000000
vn 0.000000 1.000000 -0.000000
vn 0.000000 1.000000 -0.000000
vn 0.000000 1.000000 -0.000000
vn 0.499991 0.000000 0.866031
vn 0.499991 0.000000 0.866031
vn 0.499991 0.000000 0.866031
vn 0.499990 0.000000 0.866031
vn -0.500006 0.000000 0.866022
vn -0.500006 0.000000 0.866022
vn -0.500006 0.000000 0.866022
vn -0.500006 0.000000 0.866022
vn -1.000000 0.000000 0.000000
vn -1.000000 0.000000 0.000000
vn -1.000000 0.000000 0.000000
vn -1.000000 0.000000 0.000000
vn -0.500006 0.000000 -0.866022
vn -0.500006 0.000000 -0.866022
vn -0.500006 0.000000 -0.866022
vn -0.500006 0.000000 -0.866022
vn 0.499991 0.000000 -0.866031
vn 0.499991 0.000000 -0.866031
vn 0.499990 0.000000 -0.866031
vn 0.499991 0.000000 -0.866031
vn 1.000000 0.000000 0.000000
vn 1.000000 0.000000 0.000000
vn 1.000000 0.000000 0.000000
vn 1.000000 0.000000 0.000000
vn 0.000000 1.000000 0.000000
vn 0.000000 1.000000 0.000000
s 1
g pSphere10
usemtl initialShadingGroup
f 2/2/1 1/7/2 4/37/3 3/3/4
s 2
f 3/4/5 4/37/6 20/49/7 19/5/8
s 1
f 1/7/2 5/27/9 7/39/10 6/26/11
s 2
f 6/26/12 7/39/13 22/51/14 21/38/15
s 1
f 5/8/9 8/29/16 10/41/17 9/28/18
s 2
f 9/28/19 10/41/20 24/53/21 23/40/22
s 1
f 8/9/16 11/31/23 13/43/24 12/30/25
s 2
f 12/30/26 13/43/27 26/55/28 25/42/29
s 1
f 11/10/23 14/33/30 16/45/31 15/32/32
s 2
f 15/32/33 16/45/34 28/57/35 27/44/36
s 1
f 14/11/30 2/35/1 18/47/37 17/34/38
s 2
f 17/34/39 18/47/40 30/59/41 29/46/42
s 11
f 19/12/43 20/49/44 32/61/45 31/13/46
f 21/38/47 22/51/48 34/62/49 33/50/50
f 23/40/51 24/53/52 36/63/53 35/52/54
f 25/42/55 26/55/56 38/64/57 37/54/58
f 27/44/59 28/57/60 40/65/61 39/56/62
f 29/46/63 30/59/64 42/66/65 41/58/66
s 16
f 31/14/67 32/61/68 44/17/69 43/15/70
f 33/50/71 34/62/72 45/19/73 44/17/69
f 35/52/74 36/63/75 46/18/76 45/19/73
f 37/54/77 38/64/78 47/20/79 46/21/76
f 39/56/80 40/65/81 48/22/82 47/23/79
f 41/58/83 42/66/84 43/24/70 48/25/82
s 1
f 1/7/2 6/26/11 4/37/3
f 5/27/9 9/28/18 7/39/10
f 8/29/16 12/30/25 10/41/17
f 11/31/23 15/32/32 13/43/24
f 14/33/30 17/34/38 16/45/31
f 2/35/1 3/36/4 18/47/37
s 2
f 4/37/6 6/26/12 21/38/15 20/49/7
f 7/39/13 9/28/19 23/40/22 22/51/14
f 10/41/20 12/30/26 25/42/29 24/53/21
f 13/43/27 15/32/33 27/44/36 26/55/28
f 16/45/34 17/34/39 29/46/42 28/57/35
f 18/47/40 3/36/5 19/48/8 30/59/41
s 11
f 20/49/44 21/38/47 33/50/50 32/61/45
f 22/51/48 23/40/51 35/52/54 34/62/49
f 24/53/52 25/42/55 37/54/58 36/63/53
f 26/55/56 27/44/59 39/56/62 38/64/57
f 28/57/60 29/46/63 41/58/66 40/65/61
f 30/59/64 19/48/43 31/60/46 42/66/65
s 16
f 32/61/68 33/50/71 44/17/69
f 34/62/72 35/52/74 45/19/73
f 36/63/75 37/54/77 46/21/76
f 38/64/78 39/56/80 47/23/79
f 40/65/81 41/58/83 48/25/82
f 42/66/84 31/60/67 43/67/70
s 21
f 43/16/85 44/17/86 45/19/87 46/71/88
s off
f 14/68/89 11/69/90 50/75/91 49/74/92
f 11/69/93 8/70/94 51/76/95 50/75/96
f 8/70/97 5/6/98 52/77/99 51/76/100
f 5/6/101 1/7/102 53/78/103 52/77/104
f 1/7/105 2/1/106 54/79/107 53/78/108
f 2/1/109 14/68/110 49/74/111 54/79/112
s 21
f 43/16/85 46/71/88 47/72/113 48/73/114
