# This file uses centimeters as units for non-parametric coordinates.

mtllib 39.mtl
g default
v -7.331783 2.613955 -1.457675
v -7.271297 2.613955 -1.422754
v -7.236964 2.616547 -1.482224
v -7.297446 2.616547 -1.517143
v -7.392267 2.613955 -1.422754
v -7.366119 2.616547 -1.517143
v -7.426600 2.616547 -1.482224
v -7.392267 2.613955 -1.352912
v -7.460935 2.616547 -1.422751
v -7.460935 2.616547 -1.352914
v -7.331783 2.613955 -1.317991
v -7.426600 2.616547 -1.293442
v -7.366119 2.616547 -1.258523
v -7.271297 2.613955 -1.352912
v -7.297446 2.616547 -1.258523
v -7.236964 2.616547 -1.293442
v -7.202629 2.616547 -1.352914
v -7.202629 2.616547 -1.422751
v -7.230971 2.634790 -1.492604
v -7.291452 2.634790 -1.527522
v -7.372112 2.634790 -1.527522
v -7.432593 2.634790 -1.492604
v -7.472918 2.634790 -1.422751
v -7.472918 2.634790 -1.352914
v -7.432593 2.634790 -1.283062
v -7.372112 2.634790 -1.248144
v -7.291452 2.634790 -1.248144
v -7.230971 2.634790 -1.283062
v -7.190643 2.634790 -1.352914
v -7.190643 2.634790 -1.422751
v -7.236964 2.653034 -1.482224
v -7.297446 2.653034 -1.517143
v -7.366119 2.653034 -1.517143
v -7.426600 2.653034 -1.482224
v -7.460935 2.653034 -1.422751
v -7.460935 2.653034 -1.352914
v -7.426600 2.653034 -1.293442
v -7.366119 2.653034 -1.258523
v -7.297446 2.653034 -1.258523
v -7.236964 2.653034 -1.293442
v -7.202629 2.653034 -1.352914
v -7.202629 2.653034 -1.422751
v -7.271297 2.665116 -1.422754
v -7.331783 2.665116 -1.457675
v -7.392267 2.665116 -1.422754
v -7.392267 2.665116 -1.352912
v -7.331783 2.665116 -1.317991
v -7.271297 2.665116 -1.352912
v -7.271297 2.571916 -1.352912
v -7.331783 2.571916 -1.317991
v -7.392267 2.571916 -1.352912
v -7.392267 2.571916 -1.422754
v -7.331783 2.571916 -1.457675
v -7.271297 2.571916 -1.422754
vt 0.027690 0.111287
vt 0.000000 0.166667
vt 0.000000 0.215029
vt 0.000000 0.333333
vt 0.000000 0.344022
vt 0.138977 0.111287
vt 0.083333 0.166661
vt 0.250005 0.166657
vt 0.416672 0.166657
vt 0.583337 0.166658
vt 0.750005 0.166657
vt 0.000000 0.632948
vt 0.000000 0.666667
vt 0.000000 0.741373
vt 0.000000 0.833333
vt 0.027690 0.888713
vt 0.083333 0.833339
vt 0.361148 0.861027
vt 0.222243 0.847185
vt 0.527817 0.861026
vt 0.416672 0.833343
vt 0.694481 0.861026
vt 0.583337 0.833342
vt 0.879655 0.851802
vt 0.750005 0.833343
vt 0.121659 0.333333
vt 0.249989 0.166667
vt 0.288323 0.333333
vt 0.416657 0.166667
vt 0.454993 0.333333
vt 0.583325 0.166667
vt 0.621658 0.333333
vt 0.749989 0.166667
vt 0.788323 0.333333
vt 0.916667 0.166660
vt 0.954993 0.333333
vt 0.045006 0.333333
vt 0.125003 0.500000
vt 0.211673 0.333333
vt 0.291671 0.500002
vt 0.378338 0.333333
vt 0.458333 0.500000
vt 0.545006 0.333333
vt 0.625004 0.500000
vt 0.711673 0.333333
vt 0.791670 0.500000
vt 0.878338 0.333333
vt 0.958333 0.500000
vt 0.041662 0.499998
vt 0.121660 0.666664
vt 0.208331 0.500000
vt 0.288327 0.666667
vt 0.374996 0.499994
vt 0.454993 0.666663
vt 0.541662 0.499997
vt 0.621660 0.666665
vt 0.708330 0.500000
vt 0.788327 0.666667
vt 0.874995 0.499999
vt 0.954993 0.666663
vt 0.045006 0.666664
vt 0.211673 0.666663
vt 0.378341 0.666667
vt 0.545006 0.666665
vt 0.711673 0.666663
vt 0.878341 0.666667
vt 0.916677 0.833333
vt 0.062351 0.041964
vt 0.083333 0.000000
vt 0.104315 0.041964
vt 0.104315 0.958036
vt 0.083333 1.000000
vt 0.062351 0.958036
vt 0.062351 0.041964
vt 0.083333 0.000000
vt 0.104315 0.041964
vt 0.138977 0.111287
vt 0.083333 0.166661
vt 0.027690 0.111287
vn 0.029464 -0.999421 -0.017012
vn -0.000000 -0.999421 -0.034023
vn 0.014687 -0.999277 -0.035073
vn 0.023028 -0.999277 -0.030258
vn 0.616588 -0.532484 -0.579897
vn 0.193915 -0.532469 -0.823938
vn 0.232172 -0.537493 -0.810677
vn 0.585982 -0.537504 -0.606394
vn -0.029465 -0.999421 -0.017012
vn -0.023029 -0.999277 -0.030258
vn -0.014687 -0.999277 -0.035073
vn -0.193915 -0.532469 -0.823938
vn -0.616607 -0.532454 -0.579903
vn -0.585997 -0.537480 -0.606402
vn -0.232172 -0.537493 -0.810677
vn -0.029465 -0.999421 0.017012
vn -0.037721 -0.999277 0.004816
vn -0.037721 -0.999277 -0.004816
vn -0.810553 -0.532406 -0.244023
vn -0.810552 -0.532407 0.244023
vn -0.818198 -0.537423 0.204278
vn -0.818198 -0.537422 -0.204278
vn -0.000000 -0.999421 0.034023
vn -0.014687 -0.999277 0.035073
vn -0.023029 -0.999277 0.030258
vn -0.616606 -0.532455 0.579904
vn -0.193913 -0.532459 0.823945
vn -0.232173 -0.537484 0.810683
vn -0.585994 -0.537480 0.606404
vn 0.029464 -0.999421 0.017012
vn 0.023028 -0.999277 0.030258
vn 0.014687 -0.999277 0.035073
vn 0.193913 -0.532459 0.823945
vn 0.616587 -0.532484 0.579897
vn 0.585980 -0.537504 0.606397
vn 0.232173 -0.537484 0.810683
vn 0.037721 -0.999277 -0.004816
vn 0.037721 -0.999277 0.004816
vn 0.810495 -0.532494 0.244022
vn 0.810497 -0.532493 -0.244022
vn 0.818140 -0.537516 -0.204266
vn 0.818139 -0.537517 0.204266
vn 0.585982 0.537504 -0.606394
vn 0.232172 0.537493 -0.810677
vn 0.193915 0.532469 -0.823938
vn 0.616588 0.532484 -0.579897
vn -0.232172 0.537493 -0.810677
vn -0.585997 0.537480 -0.606402
vn -0.616607 0.532455 -0.579903
vn -0.193915 0.532469 -0.823938
vn -0.818198 0.537422 -0.204278
vn -0.818198 0.537423 0.204278
vn -0.810552 0.532407 0.244023
vn -0.810553 0.532406 -0.244023
vn -0.585994 0.537480 0.606404
vn -0.232173 0.537484 0.810683
vn -0.193913 0.532459 0.823945
vn -0.616606 0.532455 0.579904
vn 0.232173 0.537484 0.810683
vn 0.585980 0.537504 0.606397
vn 0.616587 0.532484 0.579897
vn 0.193913 0.532459 0.823945
vn 0.818139 0.537517 0.204266
vn 0.818140 0.537516 -0.204266
vn 0.810496 0.532493 -0.244022
vn 0.810495 0.532494 0.244022
vn 0.105889 0.984630 -0.138896
vn 0.067342 0.984630 -0.161151
vn -0.000001 0.987658 -0.156629
vn 0.135644 0.987658 -0.078315
vn -0.067343 0.984629 -0.161152
vn -0.105891 0.984629 -0.138896
vn -0.135646 0.987657 -0.078314
vn -0.173234 0.984629 -0.022255
vn -0.173234 0.984629 0.022255
vn -0.135646 0.987657 0.078314
vn -0.105891 0.984629 0.138896
vn -0.067343 0.984629 0.161152
vn -0.000001 0.987658 0.156629
vn 0.067343 0.984630 0.161151
vn 0.105889 0.984630 0.138896
vn 0.135644 0.987657 0.078315
vn 0.173234 0.984629 0.022255
vn 0.173234 0.984629 -0.022255
vn 0.000000 1.000000 -0.000000
vn 0.000000 1.000000 -0.000000
vn 0.000000 1.000000 -0.000000
vn 0.000000 1.000000 -0.000000
vn 0.499990 0.000000 0.866031
vn 0.499990 0.000000 0.866031
vn 0.499990 0.000000 0.866031
vn 0.499990 0.000000 0.866031
vn -0.500006 0.000000 0.866022
vn -0.500006 0.000000 0.866022
vn -0.500006 0.000000 0.866022
vn -0.500006 0.000000 0.866022
vn -1.000000 0.000000 0.000000
vn -1.000000 0.000000 0.000000
vn -1.000000 0.000000 0.000000
vn -1.000000 0.000000 0.000000
vn -0.500006 0.000000 -0.866022
vn -0.500006 0.000000 -0.866022
vn -0.500006 0.000000 -0.866022
vn -0.500006 0.000000 -0.866022
vn 0.499991 0.000000 -0.866031
vn 0.499991 0.000000 -0.866031
vn 0.499991 0.000000 -0.866031
vn 0.499991 0.000000 -0.866031
vn 1.000000 0.000000 0.000000
vn 1.000000 0.000000 0.000000
vn 1.000000 0.000000 0.000000
vn 1.000000 0.000000 0.000000
vn 0.000000 1.000000 0.000000
vn 0.000000 1.000000 0.000000
s 1
g pSphere12
usemtl initialShadingGroup
f 2/2/1 1/7/2 4/37/3 3/3/4
s 2
f 3/4/5 4/37/6 20/49/7 19/5/8
s 1
f 1/7/2 5/27/9 7/39/10 6/26/11
s 2
f 6/26/12 7/39/13 22/51/14 21/38/15
s 1
f 5/8/9 8/29/16 10/41/17 9/28/18
s 2
f 9/28/19 10/41/20 24/53/21 23/40/22
s 1
f 8/9/16 11/31/23 13/43/24 12/30/25
s 2
f 12/30/26 13/43/27 26/55/28 25/42/29
s 1
f 11/10/23 14/33/30 16/45/31 15/32/32
s 2
f 15/32/33 16/45/34 28/57/35 27/44/36
s 1
f 14/11/30 2/35/1 18/47/37 17/34/38
s 2
f 17/34/39 18/47/40 30/59/41 29/46/42
s 11
f 19/12/43 20/49/44 32/61/45 31/13/46
f 21/38/47 22/51/48 34/62/49 33/50/50
f 23/40/51 24/53/52 36/63/53 35/52/54
f 25/42/55 26/55/56 38/64/57 37/54/58
f 27/44/59 28/57/60 40/65/61 39/56/62
f 29/46/63 30/59/64 42/66/65 41/58/66
s 16
f 31/14/67 32/61/68 44/17/69 43/15/70
f 33/50/71 34/62/72 45/19/73 44/17/69
f 35/52/74 36/63/75 46/18/76 45/19/73
f 37/54/77 38/64/78 47/20/79 46/21/76
f 39/56/80 40/65/81 48/22/82 47/23/79
f 41/58/83 42/66/84 43/24/70 48/25/82
s 1
f 1/7/2 6/26/11 4/37/3
f 5/27/9 9/28/18 7/39/10
f 8/29/16 12/30/25 10/41/17
f 11/31/23 15/32/32 13/43/24
f 14/33/30 17/34/38 16/45/31
f 2/35/1 3/36/4 18/47/37
s 2
f 4/37/6 6/26/12 21/38/15 20/49/7
f 7/39/13 9/28/19 23/40/22 22/51/14
f 10/41/20 12/30/26 25/42/29 24/53/21
f 13/43/27 15/32/33 27/44/36 26/55/28
f 16/45/34 17/34/39 29/46/42 28/57/35
f 18/47/40 3/36/5 19/48/8 30/59/41
s 11
f 20/49/44 21/38/47 33/50/50 32/61/45
f 22/51/48 23/40/51 35/52/54 34/62/49
f 24/53/52 25/42/55 37/54/58 36/63/53
f 26/55/56 27/44/59 39/56/62 38/64/57
f 28/57/60 29/46/63 41/58/66 40/65/61
f 30/59/64 19/48/43 31/60/46 42/66/65
s 16
f 32/61/68 33/50/71 44/17/69
f 34/62/72 35/52/74 45/19/73
f 36/63/75 37/54/77 46/21/76
f 38/64/78 39/56/80 47/23/79
f 40/65/81 41/58/83 48/25/82
f 42/66/84 31/60/67 43/67/70
s 21
f 43/16/85 44/17/86 45/19/87 46/71/88
s off
f 14/68/89 11/69/90 50/75/91 49/74/92
f 11/69/93 8/70/94 51/76/95 50/75/96
f 8/70/97 5/6/98 52/77/99 51/76/100
f 5/6/101 1/7/102 53/78/103 52/77/104
f 1/7/105 2/1/106 54/79/107 53/78/108
f 2/1/109 14/68/110 49/74/111 54/79/112
s 21
f 43/16/85 46/71/88 47/72/113 48/73/114
