# This file uses centimeters as units for non-parametric coordinates.

mtllib 9.mtl
g default
v 1.121950 -3.508260 0.251546
v 0.645023 -2.489721 0.224878
v -0.645023 -2.489721 0.224878
v -0.000667 -2.489721 -0.115125
v -1.121950 -3.508260 0.198210
v -0.000000 -3.508260 -0.339854
v -1.121950 -3.605447 0.198210
v -0.000000 -3.605447 -0.339854
v 1.121950 -3.605447 0.251546
v 0.000000 -3.605447 0.789609
v 0.133974 -3.508260 0.739744
v -0.129772 -3.508260 0.737016
v -0.545529 -2.489721 0.511165
v 0.544194 -2.489721 0.511166
v -0.242354 -2.998991 0.624091
v -0.883487 -2.998991 0.211544
v -0.001459 -2.998991 -0.227489
v 0.883487 -2.998991 0.238212
v 0.244454 -2.998991 0.625455
v -0.169927 -3.253625 0.680553
v -1.002718 -3.253625 0.204877
v -0.000000 -3.253625 -0.283671
v 1.002718 -3.253625 0.244879
v 0.173078 -3.253625 0.682599
v -0.363354 -2.744355 0.567628
v -0.764255 -2.744355 0.218211
v -0.000667 -2.744355 -0.171307
v 0.764255 -2.744355 0.231545
v 0.365776 -2.744355 0.568310
v 0.293294 -2.871673 0.596882
v 0.823871 -2.871673 0.234878
v -0.000978 -2.871673 -0.199398
v -0.823871 -2.871673 0.214877
v -0.291032 -2.871673 0.595860
v 0.203004 -3.126308 0.654027
v 0.943103 -3.126308 0.241545
v -0.000673 -3.126308 -0.255580
v -0.943103 -3.126308 0.208210
v -0.200378 -3.126308 0.652322
v 0.150678 -3.380943 0.711172
v 1.062334 -3.380943 0.248212
v -0.000163 -3.380943 -0.311763
v -1.062334 -3.380943 0.201543
v -0.147001 -3.380943 0.708784
v -1.181543 -3.508260 0.197715
v -1.219138 -3.525266 0.197001
v 0.002404 -3.525266 -0.393559
v 0.002042 -3.508260 -0.374495
v 0.002042 -3.605447 -0.374495
v 0.002404 -3.588441 -0.393559
v -1.219138 -3.588441 0.197001
v -1.181543 -3.605447 0.197715
v 1.219138 -3.525266 0.252755
v 1.181543 -3.508260 0.252041
v 1.181543 -3.605447 0.252041
v 1.219138 -3.588441 0.252755
v -0.002404 -3.525266 0.843313
v -0.002042 -3.508260 0.824248
v -0.002042 -3.605447 0.824251
v -0.002404 -3.588441 0.843315
vt 0.569231 0.417584
vt 0.560271 0.366657
vt 0.924934 0.366657
vt 0.901087 0.417584
vt 0.098913 0.417584
vt 0.500000 0.417584
vt 0.499935 0.366657
vt 0.075066 0.366657
vt 0.051220 0.276855
vt 0.500000 0.276855
vt 0.948780 0.276855
vt 0.500000 0.276855
vt 0.441199 0.366657
vt 0.432029 0.417584
vt 0.281788 0.723145
vt 0.717677 0.723145
vt 0.758009 0.723145
vt 0.499733 0.723145
vt 0.241991 0.723145
vt 0.170452 0.570364
vt 0.383587 0.570364
vt 0.354659 0.621292
vt 0.194298 0.621292
vt 0.499733 0.621292
vt 0.499609 0.570364
vt 0.829548 0.570364
vt 0.805702 0.621292
vt 0.646310 0.621292
vt 0.617317 0.570364
vt 0.122759 0.468511
vt 0.419849 0.468511
vt 0.403059 0.519437
vt 0.146605 0.519437
vt 0.499416 0.519437
vt 0.499731 0.468511
vt 0.877241 0.468511
vt 0.853395 0.519437
vt 0.597782 0.519437
vt 0.581201 0.468511
vt 0.553589 0.315730
vt 0.948780 0.315730
vt 0.500000 0.315730
vt 0.051220 0.315730
vt 0.448091 0.315730
vt 0.027383 0.315730
vt 0.012345 0.308927
vt 0.499038 0.308927
vt 0.499183 0.315730
vt 0.500817 0.315730
vt 0.500962 0.308927
vt 0.972617 0.315730
vt 0.987655 0.308927
vt 0.500817 0.276855
vt 0.500962 0.283657
vt 0.987655 0.283657
vt 0.972617 0.276855
vt 0.027383 0.276855
vt 0.012345 0.283657
vt 0.499183 0.276855
vt 0.499038 0.283657
vn 0.459539 0.170659 0.871607
vn 0.445271 0.180618 0.876989
vn 0.444852 0.180913 0.877142
vn 0.459142 0.170934 0.871763
vn -0.428170 0.208478 -0.879322
vn -0.428385 0.208422 -0.879230
vn -0.425488 0.208282 -0.880669
vn -0.425310 0.208216 -0.880771
vn -0.000000 -1.000000 -0.000000
vn -0.000000 -1.000000 -0.000000
vn -0.000000 -1.000000 -0.000000
vn -0.000000 -1.000000 -0.000000
vn 0.457633 0.191623 -0.868247
vn 0.457636 0.191584 -0.868254
vn 0.457559 0.191942 -0.868216
vn 0.457575 0.191841 -0.868229
vn -0.478207 0.159844 0.863579
vn -0.478568 0.159496 0.863443
vn -0.490396 0.148576 0.858742
vn -0.490019 0.148910 0.858899
vn 0.000000 1.000000 0.000000
vn 0.000000 1.000000 0.000000
vn 0.000000 1.000000 0.000000
vn 0.000000 1.000000 0.000000
vn 0.000000 1.000000 0.000000
vn -0.007677 0.217706 0.975984
vn -0.007681 0.217706 0.975984
vn -0.005677 0.217711 0.975997
vn -0.005674 0.217711 0.975997
vn -0.579133 0.083023 0.810995
vn -0.577505 0.084622 0.811990
vn -0.695546 0.009920 0.718413
vn -0.705358 0.005175 0.708832
vn -0.446079 0.211986 -0.869526
vn -0.446590 0.212037 -0.869251
vn -0.439439 0.211321 -0.873062
vn -0.439156 0.211292 -0.873211
vn 0.457282 0.190769 -0.868620
vn 0.457289 0.190791 -0.868611
vn 0.457339 0.191300 -0.868473
vn 0.457340 0.191263 -0.868481
vn 0.684986 0.033823 0.727771
vn 0.557618 0.107723 0.823079
vn 0.559819 0.105783 0.821835
vn 0.696681 0.028563 0.716812
vn -0.001587 0.217728 0.976008
vn -0.001587 0.217728 0.976008
vn -0.000523 0.217726 0.976010
vn -0.000523 0.217726 0.976010
vn -0.508163 0.132402 0.851023
vn -0.508390 0.132190 0.850920
vn -0.535532 0.113458 0.836859
vn -0.535679 0.113397 0.836773
vn -0.435241 0.209474 -0.875606
vn -0.435487 0.209655 -0.875440
vn -0.431802 0.208172 -0.877617
vn -0.431560 0.208145 -0.877742
vn 0.457317 0.192766 -0.868160
vn 0.457295 0.192776 -0.868169
vn 0.457180 0.191836 -0.868438
vn 0.457173 0.191990 -0.868408
vn 0.510993 0.136994 0.848598
vn 0.480357 0.155367 0.863202
vn 0.480189 0.155497 0.863272
vn 0.511341 0.136856 0.848411
vn -0.003974 0.217717 0.976004
vn -0.003976 0.217717 0.976004
vn -0.002625 0.217725 0.976007
vn -0.002625 0.217725 0.976007
vn -0.785242 -0.036615 0.618105
vn -0.785242 -0.036615 0.618105
vn -0.449566 0.212330 -0.867644
vn -0.449566 0.212330 -0.867644
vn 0.457332 0.191507 -0.868431
vn 0.457332 0.191507 -0.868431
vn 0.780280 -0.012330 0.625309
vn 0.780280 -0.012330 0.625309
vn -0.000366 0.217725 0.976010
vn -0.000366 0.217725 0.976010
vn 0.440051 0.184281 0.878860
vn 0.440051 0.184281 0.878860
vn 0.457613 0.191846 -0.868208
vn 0.457613 0.191846 -0.868208
vn -0.424264 0.207827 -0.881367
vn -0.424264 0.207827 -0.881367
vn -0.474356 0.163542 0.865009
vn -0.474356 0.163542 0.865009
vn -0.008892 0.217703 0.975974
vn -0.008892 0.217703 0.975974
vn -0.331710 0.707110 0.624471
vn -0.331710 0.707110 0.624471
vn -0.331710 0.707110 0.624471
vn -0.331710 0.707110 0.624471
vn -0.307773 0.707107 -0.636612
vn -0.307773 0.707107 -0.636612
vn -0.307773 0.707107 -0.636612
vn -0.307773 0.707107 -0.636612
vn 0.331712 0.707109 -0.624471
vn 0.331712 0.707109 -0.624471
vn 0.331712 0.707109 -0.624471
vn 0.331712 0.707109 -0.624471
vn 0.331712 -0.707108 -0.624472
vn 0.331712 -0.707108 -0.624472
vn 0.331712 -0.707108 -0.624472
vn 0.331712 -0.707108 -0.624472
vn -0.307774 -0.707106 -0.636613
vn -0.307774 -0.707106 -0.636613
vn -0.307774 -0.707106 -0.636613
vn -0.307774 -0.707106 -0.636613
vn -0.331714 -0.707102 0.624478
vn -0.331714 -0.707102 0.624478
vn -0.331714 -0.707102 0.624478
vn -0.331714 -0.707102 0.624478
vn 0.307770 0.707111 0.636610
vn 0.307770 0.707111 0.636610
vn 0.307770 0.707111 0.636610
vn 0.307770 0.707111 0.636610
vn 0.307776 -0.707101 0.636617
vn 0.307776 -0.707101 0.636617
vn 0.307776 -0.707101 0.636617
vn 0.307776 -0.707101 0.636617
vn -0.435257 0.000000 -0.900306
vn -0.435257 0.000000 -0.900306
vn -0.435257 0.000000 -0.900306
vn -0.435257 0.000000 -0.900306
vn 0.469112 0.000000 -0.883139
vn 0.469112 0.000000 -0.883139
vn 0.469112 0.000000 -0.883139
vn 0.469112 0.000000 -0.883139
vn 0.435257 0.000012 0.900306
vn 0.435257 0.000012 0.900306
vn 0.435257 0.000012 0.900306
vn 0.435257 0.000012 0.900306
vn -0.469112 0.000013 0.883139
vn -0.469112 0.000013 0.883139
vn -0.469112 0.000013 0.883139
vn -0.469112 0.000013 0.883139
vn -0.000000 1.000000 -0.000000
vn -0.000000 1.000000 -0.000000
vn -0.000000 1.000000 -0.000000
vn -0.000000 1.000000 -0.000000
vn -0.000000 -1.000000 -0.000000
vn -0.000000 -1.000000 -0.000000
vn 0.000000 1.000000 0.000000
vn -0.000000 1.000000 -0.000000
vn -0.000000 -1.000000 -0.000000
vn 0.000000 1.000000 0.000000
vn -0.000000 1.000000 -0.000000
vn -0.000000 -1.000000 -0.000000
vn -0.000000 1.000000 -0.000000
s 1
g pCube10
usemtl phong19SG
f 24/1/1 40/2/2 41/3/3 23/4/4
s 2
f 21/5/5 22/6/6 42/7/7 43/8/8
s 3
f 7/9/9 8/10/10 9/11/11 10/12/12
s 4
f 41/3/13 42/7/14 22/6/15 23/4/16
s 5
f 43/8/17 44/13/18 20/14/19 21/5/20
s off
f 13/15/21 14/16/22 2/17/23 4/18/24 3/19/25
s 6
f 44/13/26 40/2/27 24/1/28 20/14/29
s 5
f 33/20/30 34/21/31 25/22/32 26/23/33
s 2
f 26/23/34 27/24/35 32/25/36 33/20/37
s 4
f 31/26/38 32/25/39 27/24/40 28/27/41
s 1
f 29/28/42 30/29/43 31/26/44 28/27/45
s 6
f 34/21/46 30/29/47 29/28/48 25/22/49
s 5
f 38/30/50 39/31/51 15/32/52 16/33/53
s 2
f 16/33/54 17/34/55 37/35/56 38/30/57
s 4
f 36/36/58 37/35/59 17/34/60 18/37/61
s 1
f 19/38/62 35/39/63 36/36/64 18/37/65
s 6
f 39/31/66 35/39/67 19/38/68 15/32/69
s 5
f 26/23/33 25/22/32 13/15/70 3/19/71
s 2
f 3/19/72 4/18/73 27/24/35 26/23/34
s 4
f 28/27/41 27/24/40 4/18/74 2/17/75
s 1
f 14/16/76 29/28/42 28/27/45 2/17/77
s 6
f 25/22/49 29/28/48 14/16/78 13/15/79
s 1
f 30/29/43 19/38/62 18/37/65 31/26/44
s 4
f 18/37/61 17/34/60 32/25/39 31/26/38
s 2
f 33/20/37 32/25/36 17/34/55 16/33/54
s 5
f 16/33/53 15/32/52 34/21/31 33/20/30
s 6
f 15/32/69 19/38/68 30/29/47 34/21/46
s 1
f 35/39/63 24/1/1 23/4/4 36/36/64
s 4
f 23/4/16 22/6/15 37/35/59 36/36/58
s 2
f 38/30/57 37/35/56 22/6/6 21/5/5
s 5
f 21/5/20 20/14/19 39/31/51 38/30/50
s 6
f 20/14/29 24/1/28 35/39/67 39/31/66
s 1
f 40/2/2 11/40/80 1/41/81 41/3/3
s 4
f 1/41/82 6/42/83 42/7/14 41/3/13
s 2
f 43/8/8 42/7/7 6/42/84 5/43/85
s 5
f 5/43/86 12/44/87 44/13/18 43/8/17
s 6
f 12/44/88 11/40/89 40/2/27 44/13/26
s off
f 45/45/90 46/46/91 57/47/92 58/48/93
f 46/46/94 45/45/95 48/49/96 47/50/97
f 47/50/98 48/49/99 54/51/100 53/52/101
f 49/53/102 50/54/103 56/55/104 55/56/105
f 50/54/106 49/53/107 52/57/108 51/58/109
f 51/58/110 52/57/111 59/59/112 60/60/113
f 53/52/114 54/51/115 58/48/116 57/47/117
f 55/56/118 56/55/119 60/60/120 59/59/121
f 46/46/122 47/50/123 50/54/124 51/58/125
f 47/50/126 53/52/127 56/55/128 50/54/129
f 53/52/130 57/47/131 60/60/132 56/55/133
f 57/47/134 46/46/135 51/58/136 60/60/137
s 12
f 5/43/138 6/42/139 48/49/140 45/45/141
s 3
f 8/10/10 7/9/9 52/57/142 49/53/143
s 12
f 6/42/139 1/41/144 54/51/145 48/49/140
s 3
f 9/11/11 8/10/10 49/53/143 55/56/146
s 12
f 1/41/144 11/40/147 58/48/148 54/51/145
s 3
f 10/12/12 9/11/11 55/56/146 59/59/149
f 7/9/9 10/12/12 59/59/149 52/57/142
s 12
f 58/48/148 12/44/150 5/43/138 45/45/141
f 58/48/148 11/40/147 12/44/150
